<svg xmlns="http://www.w3.org/2000/svg" viewBox="0 0 96 140" fill="#2A2521" fill-rule="evenodd">
  <path d="M77.78 50.44 L77.19 50.91 L76.59 51.38 L75.98 51.84 L75.36 52.29 L74.73 52.74 L74.09 53.18 L73.45 53.62 L72.79 54.05 L72.14 54.48 L71.47 54.91 L70.80 55.33 L70.12 55.75 L69.45 56.16 L68.76 56.58 L68.08 56.99 L67.39 57.39 L66.70 57.79 L66.01 58.19 L65.32 58.59 L64.63 58.99 L63.94 59.38 L63.26 59.78 L62.57 60.17 L61.89 60.56 L61.21 60.94 L60.54 61.33 L59.87 61.72 L59.20 62.10 L58.54 62.49 L57.89 62.88 L57.25 63.26 L56.61 63.65 L55.98 64.03 L55.36 64.42 L54.75 64.81 L54.15 65.19 L53.56 65.58 L52.99 65.97 L52.42 66.37 L51.87 66.76 L51.33 67.16 L50.81 67.56 L50.30 67.96 L49.81 68.36 L49.33 68.76 L48.87 69.17 L48.43 69.59 L48.00 70.00 L47.57 69.59 L47.13 69.17 L46.67 68.76 L46.19 68.36 L45.70 67.96 L45.19 67.56 L44.67 67.16 L44.13 66.76 L43.58 66.37 L43.01 65.97 L42.44 65.58 L41.85 65.19 L41.25 64.81 L40.64 64.42 L40.02 64.03 L39.39 63.65 L38.75 63.26 L38.11 62.88 L37.46 62.49 L36.80 62.10 L36.13 61.72 L35.46 61.33 L34.79 60.94 L34.11 60.56 L33.43 60.17 L32.74 59.78 L32.06 59.38 L31.37 58.99 L30.68 58.59 L29.99 58.19 L29.30 57.79 L28.61 57.39 L27.92 56.99 L27.24 56.58 L26.55 56.16 L25.88 55.75 L25.20 55.33 L24.53 54.91 L23.86 54.48 L23.21 54.05 L22.55 53.62 L21.91 53.18 L21.27 52.74 L20.64 52.29 L20.02 51.84 L19.41 51.38 L18.81 50.91 L18.22 50.44 Z" fill="#C3B4AC"/>
  <path d="M11.00 102.00 L14.45 101.50 L17.90 101.00 L21.35 100.50 L24.80 100.00 L28.25 99.50 L31.70 99.00 L35.15 98.50 L38.60 98.00 L42.05 97.50 L45.50 97.00 L48.95 96.50 L52.40 96.00 L55.85 95.50 L59.30 95.00 L62.75 94.50 L66.20 94.00 L69.65 93.50 L73.10 93.00 L76.55 92.50 L80.00 92.00 L80.73 92.91 L81.41 93.86 L82.04 94.83 L82.62 95.82 L83.16 96.84 L83.64 97.89 L84.06 98.95 L84.43 100.03 L84.75 101.13 L85.00 102.25 L85.19 103.38 L85.33 104.53 L85.40 105.69 L85.40 106.85 L85.34 108.03 L85.22 109.22 L85.02 110.41 L84.75 111.60 L84.41 112.80 L84.00 114.00 L86.67 114.59 L86.49 115.22 L86.30 115.83 L86.08 116.43 L85.85 117.02 L85.61 117.60 L85.34 118.16 L85.05 118.71 L84.75 119.25 L84.43 119.77 L84.09 120.29 L83.73 120.78 L83.35 121.27 L82.96 121.74 L82.55 122.20 L82.12 122.64 L81.67 123.07 L81.20 123.49 L80.71 123.89 L80.21 124.28 L79.69 124.66 L79.15 125.02 L78.59 125.36 L78.01 125.69 L77.42 126.01 L76.80 126.31 L76.17 126.60 L75.52 126.87 L74.85 127.13 L74.17 127.37 L73.46 127.59 L72.74 127.80 L72.00 128.00 L71.00 128.08 L70.00 128.16 L69.00 128.23 L68.00 128.31 L67.00 128.37 L66.00 128.44 L65.00 128.50 L64.00 128.56 L63.00 128.61 L62.00 128.66 L61.00 128.71 L60.00 128.75 L59.00 128.79 L58.00 128.83 L57.00 128.86 L56.00 128.89 L55.00 128.91 L54.00 128.94 L53.00 128.96 L52.00 128.97 L51.00 128.98 L50.00 128.99 L49.00 129.00 L48.00 129.00 L47.00 129.00 L46.00 128.99 L45.00 128.98 L44.00 128.97 L43.00 128.96 L42.00 128.94 L41.00 128.91 L40.00 128.89 L39.00 128.86 L38.00 128.83 L37.00 128.79 L36.00 128.75 L35.00 128.71 L34.00 128.66 L33.00 128.61 L32.00 128.56 L31.00 128.50 L30.00 128.44 L29.00 128.37 L28.00 128.31 L27.00 128.23 L26.00 128.16 L25.00 128.08 L24.00 128.00 L23.26 127.80 L22.54 127.59 L21.83 127.37 L21.15 127.13 L20.48 126.87 L19.83 126.60 L19.20 126.31 L18.58 126.01 L17.99 125.69 L17.41 125.36 L16.85 125.02 L16.31 124.66 L15.79 124.28 L15.29 123.89 L14.80 123.49 L14.33 123.07 L13.88 122.64 L13.45 122.20 L13.04 121.74 L12.65 121.27 L12.27 120.78 L11.91 120.29 L11.57 119.77 L11.25 119.25 L10.95 118.71 L10.66 118.16 L10.39 117.60 L10.15 117.02 L9.92 116.43 L9.70 115.83 L9.51 115.22 L9.33 114.59 L9.18 113.95 L9.04 113.30 L8.92 112.64 L8.81 111.97 L8.73 111.28 L8.66 110.59 L8.61 109.88 L8.58 109.16 L8.57 108.43 L8.58 107.68 L8.60 106.93 L8.65 106.17 L8.71 105.39 L8.79 104.60 L8.88 103.81 L9.00 103.00 L9.22 102.01 Z" fill="#C3B4AC"/>
  <path d="M49.67 68.33 L48.96 67.65 L48.23 66.96 L47.47 66.29 L46.69 65.61 L45.88 64.94 L45.05 64.27 L44.20 63.60 L43.33 62.93 L42.44 62.25 L41.54 61.58 L40.62 60.91 L39.68 60.23 L38.74 59.55 L37.78 58.87 L36.82 58.19 L35.85 57.51 L34.88 56.83 L33.91 56.15 L32.93 55.46 L31.96 54.78 L31.00 54.09 L30.04 53.41 L29.09 52.72 L28.16 52.04 L27.23 51.36 L26.32 50.68 L25.43 50.00 L24.56 49.32 L23.71 48.65 L22.87 47.99 L22.06 47.32 L21.28 46.67 L20.53 46.00 L19.82 45.34 L19.14 44.67 L18.51 44.00 L17.91 43.33 L17.36 42.66 L16.84 42.00 L16.38 41.33 L15.95 40.67 L15.57 40.01 L15.22 39.35 L14.92 38.70 L14.66 38.04 L14.44 37.38 L14.26 36.72 L14.14 36.21 L14.04 35.51 L13.95 34.82 L13.87 34.14 L13.81 33.49 L13.76 32.84 L13.72 32.21 L13.69 31.59 L13.68 30.99 L13.68 30.40 L13.69 29.82 L13.72 29.26 L13.75 28.71 L13.80 28.18 L13.87 27.65 L13.94 27.14 L14.03 26.65 L14.14 26.16 L14.25 25.69 L14.39 25.23 L14.53 24.78 L14.69 24.34 L14.86 23.92 L15.04 23.50 L15.24 23.10 L15.46 22.71 L15.69 22.32 L15.93 21.95 L16.19 21.58 L16.46 21.23 L16.75 20.89 L17.06 20.55 L17.38 20.22 L17.72 19.90 L18.08 19.60 L18.45 19.30 L18.84 19.00 L19.25 18.72 L19.68 18.45 L20.13 18.19 L20.60 17.93 L21.09 17.69 L21.59 17.45 L22.12 17.23 L22.67 17.02 L23.24 16.81 L23.83 16.62 L24.44 16.44 L24.37 16.39 L25.35 16.31 L26.34 16.23 L27.32 16.16 L28.30 16.09 L29.29 16.02 L30.27 15.96 L31.26 15.90 L32.24 15.84 L33.23 15.79 L34.21 15.74 L35.20 15.69 L36.18 15.65 L37.17 15.61 L38.15 15.57 L39.14 15.54 L40.12 15.51 L41.11 15.48 L42.09 15.46 L43.08 15.44 L44.06 15.43 L45.05 15.42 L46.03 15.41 L47.02 15.40 L48.00 15.40 L48.98 15.40 L49.97 15.41 L50.95 15.42 L51.94 15.43 L52.92 15.44 L53.91 15.46 L54.89 15.48 L55.88 15.51 L56.86 15.54 L57.85 15.57 L58.83 15.61 L59.82 15.65 L60.80 15.69 L61.79 15.74 L62.77 15.79 L63.76 15.84 L64.74 15.90 L65.73 15.96 L66.71 16.02 L67.70 16.09 L68.68 16.16 L69.66 16.23 L70.65 16.31 L70.93 16.27 L71.56 16.44 L72.17 16.62 L72.76 16.81 L73.33 17.02 L73.88 17.23 L74.41 17.45 L74.91 17.69 L75.40 17.93 L75.87 18.19 L76.32 18.45 L76.75 18.72 L77.16 19.00 L77.55 19.30 L77.92 19.60 L78.28 19.90 L78.62 20.22 L78.94 20.55 L79.25 20.89 L79.54 21.23 L79.81 21.58 L80.07 21.95 L80.31 22.32 L80.54 22.71 L80.76 23.10 L80.96 23.50 L81.14 23.92 L81.31 24.34 L81.47 24.78 L81.61 25.23 L81.75 25.69 L81.86 26.16 L81.97 26.65 L82.06 27.14 L82.13 27.65 L82.20 28.18 L82.25 28.71 L82.28 29.26 L82.31 29.82 L82.32 30.40 L82.32 30.99 L82.31 31.59 L82.28 32.21 L82.24 32.84 L82.19 33.49 L82.13 34.14 L82.05 34.82 L81.96 35.51 L81.89 36.04 L81.74 36.72 L81.56 37.38 L81.34 38.04 L81.08 38.70 L80.78 39.35 L80.43 40.01 L80.05 40.67 L79.62 41.33 L79.16 42.00 L78.64 42.66 L78.09 43.33 L77.49 44.00 L76.86 44.67 L76.18 45.34 L75.47 46.00 L74.72 46.67 L73.94 47.32 L73.13 47.99 L72.29 48.65 L71.44 49.32 L70.57 50.00 L69.68 50.68 L68.77 51.36 L67.84 52.04 L66.91 52.72 L65.96 53.41 L65.00 54.09 L64.04 54.78 L63.07 55.46 L62.09 56.15 L61.12 56.83 L60.15 57.51 L59.18 58.19 L58.22 58.87 L57.26 59.55 L56.32 60.23 L55.38 60.91 L54.46 61.58 L53.56 62.25 L52.67 62.93 L51.80 63.60 L50.95 64.27 L50.12 64.94 L49.31 65.61 L48.53 66.29 L47.77 66.96 L47.04 67.65 Z" fill="none" stroke="#FFFFFF" stroke-width="3.4" stroke-linejoin="round" stroke-linecap="round"/>
  <path d="M46.33 68.33 L45.75 68.89 L45.11 69.44 L44.42 69.97 L43.69 70.50 L42.91 71.02 L42.10 71.53 L41.25 72.04 L40.36 72.54 L39.45 73.03 L38.50 73.52 L37.53 74.00 L36.54 74.48 L35.52 74.96 L34.49 75.44 L33.44 75.92 L32.37 76.40 L31.30 76.89 L30.21 77.38 L29.11 77.88 L28.01 78.39 L26.91 78.91 L25.80 79.44 L24.69 79.98 L23.59 80.54 L22.49 81.12 L21.40 81.71 L20.32 82.33 L19.26 82.96 L18.20 83.63 L17.17 84.31 L16.16 85.03 L15.16 85.78 L14.19 86.54 L13.23 87.34 L12.30 88.15 L11.40 89.00 L10.52 89.88 L9.68 90.79 L8.87 91.74 L8.10 92.72 L7.37 93.74 L6.69 94.81 L6.06 95.91 L5.49 97.06 L4.98 98.25 L4.54 99.47 L4.18 100.74 L3.86 102.21 L3.73 103.12 L3.63 104.03 L3.54 104.93 L3.48 105.82 L3.45 106.70 L3.44 107.58 L3.45 108.44 L3.49 109.30 L3.55 110.15 L3.63 111.00 L3.74 111.83 L3.87 112.65 L4.03 113.46 L4.21 114.26 L4.41 115.05 L4.63 115.83 L4.88 116.60 L5.15 117.35 L5.45 118.10 L5.76 118.82 L6.10 119.54 L6.46 120.24 L6.85 120.93 L7.26 121.60 L7.69 122.25 L8.14 122.89 L8.61 123.52 L9.10 124.12 L9.62 124.71 L10.15 125.28 L10.71 125.84 L11.29 126.37 L11.88 126.89 L12.50 127.38 L13.13 127.86 L13.78 128.32 L14.45 128.75 L15.14 129.17 L15.85 129.57 L16.57 129.95 L17.31 130.31 L18.06 130.65 L18.83 130.97 L19.62 131.27 L20.43 131.55 L21.25 131.81 L22.08 132.05 L23.63 132.39 L24.65 132.47 L25.66 132.55 L26.68 132.63 L27.70 132.70 L28.71 132.77 L29.73 132.83 L30.74 132.89 L31.76 132.95 L32.77 133.00 L33.79 133.06 L34.80 133.10 L35.82 133.15 L36.83 133.19 L37.85 133.22 L38.86 133.26 L39.88 133.29 L40.89 133.31 L41.91 133.34 L42.92 133.36 L43.94 133.37 L44.95 133.38 L45.97 133.39 L46.98 133.40 L48.00 133.40 L49.02 133.40 L50.03 133.39 L51.05 133.38 L52.06 133.37 L53.08 133.36 L54.09 133.34 L55.11 133.31 L56.12 133.29 L57.14 133.26 L58.15 133.22 L59.17 133.19 L60.18 133.15 L61.20 133.10 L62.21 133.06 L63.23 133.00 L64.24 132.95 L65.26 132.89 L66.27 132.83 L67.29 132.77 L68.30 132.70 L69.32 132.63 L70.34 132.55 L71.35 132.47 L73.07 132.27 L73.92 132.05 L74.75 131.81 L75.57 131.55 L76.38 131.27 L77.17 130.97 L77.94 130.65 L78.69 130.31 L79.43 129.95 L80.15 129.57 L80.86 129.17 L81.55 128.75 L82.22 128.32 L82.87 127.86 L83.50 127.38 L84.12 126.89 L84.71 126.37 L85.29 125.84 L85.85 125.28 L86.38 124.71 L86.90 124.12 L87.39 123.52 L87.86 122.89 L88.31 122.25 L88.74 121.60 L89.15 120.93 L89.54 120.24 L89.90 119.54 L90.24 118.82 L90.55 118.10 L90.85 117.35 L91.12 116.60 L91.37 115.83 L91.59 115.05 L91.79 114.26 L91.97 113.46 L92.13 112.65 L92.26 111.83 L92.37 111.00 L92.45 110.15 L92.51 109.30 L92.55 108.44 L92.56 107.58 L92.55 106.70 L92.52 105.82 L92.46 104.93 L92.37 104.03 L92.27 103.12 L92.11 102.04 L91.82 100.74 L91.46 99.47 L91.02 98.25 L90.51 97.06 L89.94 95.91 L89.31 94.81 L88.63 93.74 L87.90 92.72 L87.13 91.74 L86.32 90.79 L85.48 89.88 L84.60 89.00 L83.70 88.15 L82.77 87.34 L81.81 86.54 L80.84 85.78 L79.84 85.03 L78.83 84.31 L77.80 83.63 L76.74 82.96 L75.68 82.33 L74.60 81.71 L73.51 81.12 L72.41 80.54 L71.31 79.98 L70.20 79.44 L69.09 78.91 L67.99 78.39 L66.89 77.88 L65.79 77.38 L64.70 76.89 L63.63 76.40 L62.56 75.92 L61.51 75.44 L60.48 74.96 L59.46 74.48 L58.47 74.00 L57.50 73.52 L56.55 73.03 L55.64 72.54 L54.75 72.04 L53.90 71.53 L53.09 71.02 L52.31 70.50 L51.58 69.97 L50.89 69.44 L50.25 68.89 Z" fill="none" stroke="#FFFFFF" stroke-width="3.4" stroke-linejoin="round" stroke-linecap="round"/>
  <path d="M11.47 105.27 L13.01 105.04 L14.54 104.82 L16.07 104.60 L17.61 104.37 L19.14 104.15 L20.67 103.93 L22.21 103.70 L23.74 103.48 L25.27 103.25 L26.80 103.03 L28.34 102.80 L29.87 102.57 L31.40 102.35 L32.93 102.12 L34.47 101.89 L36.00 101.66 L37.53 101.44 L39.06 101.21 L40.60 100.98 L42.13 100.75 L43.66 100.52 L45.19 100.29 L46.73 100.06 L48.26 99.83 L49.79 99.60 L51.32 99.37 L52.85 99.14 L54.39 98.90 L55.92 98.67 L57.45 98.44 L58.98 98.21 L60.51 97.97 L62.05 97.74 L63.58 97.51 L65.11 97.27 L66.64 97.04 L68.17 96.80 L69.70 96.57 L71.23 96.33 L72.77 96.10 L74.30 95.86 L75.83 95.63 L77.36 95.39 L78.89 95.15 L77.73 93.89 L78.04 94.23 L78.33 94.59 L78.62 94.94 L78.90 95.31 L79.17 95.67 L79.43 96.04 L79.69 96.42 L79.93 96.80 L80.17 97.18 L80.40 97.57 L80.62 97.96 L80.83 98.36 L81.03 98.76 L81.23 99.17 L81.41 99.57 L81.59 99.99 L81.75 100.40 L81.91 100.82 L82.05 101.25 L82.19 101.67 L82.32 102.10 L82.44 102.53 L82.54 102.97 L82.64 103.41 L82.73 103.85 L82.80 104.30 L82.87 104.75 L82.92 105.20 L82.96 105.65 L83.00 106.11 L83.02 106.57 L83.03 107.03 L83.03 107.50 L83.01 107.96 L82.99 108.43 L82.95 108.91 L82.90 109.38 L82.84 109.86 L82.76 110.34 L82.67 110.82 L82.57 111.31 L82.46 111.79 L82.33 112.28 L82.19 112.77 L82.03 113.26 L81.90 113.91 L81.98 114.56 L82.25 115.16 L82.69 115.64 L83.26 115.97 L83.91 116.10 L84.56 116.02 L85.16 115.75 L85.64 115.31 L85.97 114.74 L86.20 114.16 L86.41 113.59 L86.61 113.01 L86.79 112.43 L86.96 111.85 L87.11 111.27 L87.25 110.69 L87.38 110.11 L87.48 109.53 L87.58 108.94 L87.65 108.36 L87.72 107.78 L87.76 107.20 L87.80 106.62 L87.82 106.04 L87.82 105.46 L87.81 104.89 L87.79 104.31 L87.75 103.74 L87.70 103.17 L87.63 102.60 L87.55 102.03 L87.46 101.47 L87.35 100.91 L87.23 100.35 L87.10 99.79 L86.96 99.24 L86.80 98.69 L86.63 98.15 L86.44 97.61 L86.24 97.07 L86.03 96.54 L85.81 96.02 L85.58 95.49 L85.34 94.98 L85.08 94.47 L84.81 93.96 L84.53 93.46 L84.24 92.96 L83.94 92.47 L83.62 91.99 L83.30 91.51 L82.97 91.04 L82.62 90.57 L82.27 90.11 L78.04 89.29 L76.51 89.50 L74.97 89.71 L73.44 89.91 L71.90 90.12 L70.37 90.33 L68.83 90.54 L67.29 90.75 L65.76 90.96 L64.22 91.17 L62.69 91.38 L61.15 91.59 L59.62 91.80 L58.08 92.01 L56.55 92.23 L55.01 92.44 L53.48 92.65 L51.95 92.86 L50.41 93.08 L48.88 93.29 L47.34 93.50 L45.81 93.72 L44.27 93.93 L42.74 94.15 L41.20 94.36 L39.67 94.58 L38.14 94.79 L36.60 95.01 L35.07 95.22 L33.53 95.44 L32.00 95.66 L30.46 95.88 L28.93 96.09 L27.40 96.31 L25.86 96.53 L24.33 96.75 L22.80 96.97 L21.26 97.19 L19.73 97.41 L18.19 97.63 L16.66 97.85 L15.13 98.07 L13.59 98.29 L12.06 98.51 L10.53 98.73 L9.54 99.04 L8.70 99.64 L8.08 100.46 L7.75 101.44 L7.73 102.47 L8.04 103.46 L8.64 104.30 L9.46 104.92 L10.44 105.25 Z" fill="none" stroke="#FFFFFF" stroke-width="3.4" stroke-linejoin="round" stroke-linecap="round"/>
  <path d="M49.67 68.33 L48.96 67.65 L48.23 66.96 L47.47 66.29 L46.69 65.61 L45.88 64.94 L45.05 64.27 L44.20 63.60 L43.33 62.93 L42.44 62.25 L41.54 61.58 L40.62 60.91 L39.68 60.23 L38.74 59.55 L37.78 58.87 L36.82 58.19 L35.85 57.51 L34.88 56.83 L33.91 56.15 L32.93 55.46 L31.96 54.78 L31.00 54.09 L30.04 53.41 L29.09 52.72 L28.16 52.04 L27.23 51.36 L26.32 50.68 L25.43 50.00 L24.56 49.32 L23.71 48.65 L22.87 47.99 L22.06 47.32 L21.28 46.67 L20.53 46.00 L19.82 45.34 L19.14 44.67 L18.51 44.00 L17.91 43.33 L17.36 42.66 L16.84 42.00 L16.38 41.33 L15.95 40.67 L15.57 40.01 L15.22 39.35 L14.92 38.70 L14.66 38.04 L14.44 37.38 L14.26 36.72 L14.14 36.21 L14.04 35.51 L13.95 34.82 L13.87 34.14 L13.81 33.49 L13.76 32.84 L13.72 32.21 L13.69 31.59 L13.68 30.99 L13.68 30.40 L13.69 29.82 L13.72 29.26 L13.75 28.71 L13.80 28.18 L13.87 27.65 L13.94 27.14 L14.03 26.65 L14.14 26.16 L14.25 25.69 L14.39 25.23 L14.53 24.78 L14.69 24.34 L14.86 23.92 L15.04 23.50 L15.24 23.10 L15.46 22.71 L15.69 22.32 L15.93 21.95 L16.19 21.58 L16.46 21.23 L16.75 20.89 L17.06 20.55 L17.38 20.22 L17.72 19.90 L18.08 19.60 L18.45 19.30 L18.84 19.00 L19.25 18.72 L19.68 18.45 L20.13 18.19 L20.60 17.93 L21.09 17.69 L21.59 17.45 L22.12 17.23 L22.67 17.02 L23.24 16.81 L23.83 16.62 L24.44 16.44 L24.37 16.39 L25.35 16.31 L26.34 16.23 L27.32 16.16 L28.30 16.09 L29.29 16.02 L30.27 15.96 L31.26 15.90 L32.24 15.84 L33.23 15.79 L34.21 15.74 L35.20 15.69 L36.18 15.65 L37.17 15.61 L38.15 15.57 L39.14 15.54 L40.12 15.51 L41.11 15.48 L42.09 15.46 L43.08 15.44 L44.06 15.43 L45.05 15.42 L46.03 15.41 L47.02 15.40 L48.00 15.40 L48.98 15.40 L49.97 15.41 L50.95 15.42 L51.94 15.43 L52.92 15.44 L53.91 15.46 L54.89 15.48 L55.88 15.51 L56.86 15.54 L57.85 15.57 L58.83 15.61 L59.82 15.65 L60.80 15.69 L61.79 15.74 L62.77 15.79 L63.76 15.84 L64.74 15.90 L65.73 15.96 L66.71 16.02 L67.70 16.09 L68.68 16.16 L69.66 16.23 L70.65 16.31 L70.93 16.27 L71.56 16.44 L72.17 16.62 L72.76 16.81 L73.33 17.02 L73.88 17.23 L74.41 17.45 L74.91 17.69 L75.40 17.93 L75.87 18.19 L76.32 18.45 L76.75 18.72 L77.16 19.00 L77.55 19.30 L77.92 19.60 L78.28 19.90 L78.62 20.22 L78.94 20.55 L79.25 20.89 L79.54 21.23 L79.81 21.58 L80.07 21.95 L80.31 22.32 L80.54 22.71 L80.76 23.10 L80.96 23.50 L81.14 23.92 L81.31 24.34 L81.47 24.78 L81.61 25.23 L81.75 25.69 L81.86 26.16 L81.97 26.65 L82.06 27.14 L82.13 27.65 L82.20 28.18 L82.25 28.71 L82.28 29.26 L82.31 29.82 L82.32 30.40 L82.32 30.99 L82.31 31.59 L82.28 32.21 L82.24 32.84 L82.19 33.49 L82.13 34.14 L82.05 34.82 L81.96 35.51 L81.89 36.04 L81.74 36.72 L81.56 37.38 L81.34 38.04 L81.08 38.70 L80.78 39.35 L80.43 40.01 L80.05 40.67 L79.62 41.33 L79.16 42.00 L78.64 42.66 L78.09 43.33 L77.49 44.00 L76.86 44.67 L76.18 45.34 L75.47 46.00 L74.72 46.67 L73.94 47.32 L73.13 47.99 L72.29 48.65 L71.44 49.32 L70.57 50.00 L69.68 50.68 L68.77 51.36 L67.84 52.04 L66.91 52.72 L65.96 53.41 L65.00 54.09 L64.04 54.78 L63.07 55.46 L62.09 56.15 L61.12 56.83 L60.15 57.51 L59.18 58.19 L58.22 58.87 L57.26 59.55 L56.32 60.23 L55.38 60.91 L54.46 61.58 L53.56 62.25 L52.67 62.93 L51.80 63.60 L50.95 64.27 L50.12 64.94 L49.31 65.61 L48.53 66.29 L47.77 66.96 L47.04 67.65 Z M46.33 71.67 L45.75 71.11 L45.11 70.56 L44.42 70.03 L43.69 69.50 L42.91 68.98 L42.10 68.47 L41.25 67.96 L40.36 67.46 L39.45 66.97 L38.50 66.48 L37.53 66.00 L36.54 65.52 L35.52 65.04 L34.49 64.56 L33.44 64.08 L32.37 63.60 L31.30 63.11 L30.21 62.62 L29.11 62.12 L28.01 61.61 L26.91 61.09 L25.80 60.56 L24.69 60.02 L23.59 59.46 L22.49 58.88 L21.40 58.29 L20.32 57.67 L19.26 57.04 L18.20 56.37 L17.17 55.69 L16.16 54.97 L15.16 54.22 L14.19 53.46 L13.23 52.66 L12.30 51.85 L11.40 51.00 L10.52 50.12 L9.68 49.21 L8.87 48.26 L8.10 47.28 L7.37 46.26 L6.69 45.19 L6.06 44.09 L5.49 42.94 L4.98 41.75 L4.54 40.53 L4.18 39.26 L3.86 37.79 L3.73 36.88 L3.63 35.97 L3.54 35.07 L3.48 34.18 L3.45 33.30 L3.44 32.42 L3.45 31.56 L3.49 30.70 L3.55 29.85 L3.63 29.00 L3.74 28.17 L3.87 27.35 L4.03 26.54 L4.21 25.74 L4.41 24.95 L4.63 24.17 L4.88 23.40 L5.15 22.65 L5.45 21.90 L5.76 21.18 L6.10 20.46 L6.46 19.76 L6.85 19.07 L7.26 18.40 L7.69 17.75 L8.14 17.11 L8.61 16.48 L9.10 15.88 L9.62 15.29 L10.15 14.72 L10.71 14.16 L11.29 13.63 L11.88 13.11 L12.50 12.62 L13.13 12.14 L13.78 11.68 L14.45 11.25 L15.14 10.83 L15.85 10.43 L16.57 10.05 L17.31 9.69 L18.06 9.35 L18.83 9.03 L19.62 8.73 L20.43 8.45 L21.25 8.19 L22.08 7.95 L23.63 7.61 L24.65 7.53 L25.66 7.45 L26.68 7.37 L27.70 7.30 L28.71 7.23 L29.73 7.17 L30.74 7.11 L31.76 7.05 L32.77 7.00 L33.79 6.94 L34.80 6.90 L35.82 6.85 L36.83 6.81 L37.85 6.78 L38.86 6.74 L39.88 6.71 L40.89 6.69 L41.91 6.66 L42.92 6.64 L43.94 6.63 L44.95 6.62 L45.97 6.61 L46.98 6.60 L48.00 6.60 L49.02 6.60 L50.03 6.61 L51.05 6.62 L52.06 6.63 L53.08 6.64 L54.09 6.66 L55.11 6.69 L56.12 6.71 L57.14 6.74 L58.15 6.78 L59.17 6.81 L60.18 6.85 L61.20 6.90 L62.21 6.94 L63.23 7.00 L64.24 7.05 L65.26 7.11 L66.27 7.17 L67.29 7.23 L68.30 7.30 L69.32 7.37 L70.34 7.45 L71.35 7.53 L73.07 7.73 L73.92 7.95 L74.75 8.19 L75.57 8.45 L76.38 8.73 L77.17 9.03 L77.94 9.35 L78.69 9.69 L79.43 10.05 L80.15 10.43 L80.86 10.83 L81.55 11.25 L82.22 11.68 L82.87 12.14 L83.50 12.62 L84.12 13.11 L84.71 13.63 L85.29 14.16 L85.85 14.72 L86.38 15.29 L86.90 15.88 L87.39 16.48 L87.86 17.11 L88.31 17.75 L88.74 18.40 L89.15 19.07 L89.54 19.76 L89.90 20.46 L90.24 21.18 L90.55 21.90 L90.85 22.65 L91.12 23.40 L91.37 24.17 L91.59 24.95 L91.79 25.74 L91.97 26.54 L92.13 27.35 L92.26 28.17 L92.37 29.00 L92.45 29.85 L92.51 30.70 L92.55 31.56 L92.56 32.42 L92.55 33.30 L92.52 34.18 L92.46 35.07 L92.37 35.97 L92.27 36.88 L92.11 37.96 L91.82 39.26 L91.46 40.53 L91.02 41.75 L90.51 42.94 L89.94 44.09 L89.31 45.19 L88.63 46.26 L87.90 47.28 L87.13 48.26 L86.32 49.21 L85.48 50.12 L84.60 51.00 L83.70 51.85 L82.77 52.66 L81.81 53.46 L80.84 54.22 L79.84 54.97 L78.83 55.69 L77.80 56.37 L76.74 57.04 L75.68 57.67 L74.60 58.29 L73.51 58.88 L72.41 59.46 L71.31 60.02 L70.20 60.56 L69.09 61.09 L67.99 61.61 L66.89 62.12 L65.79 62.62 L64.70 63.11 L63.63 63.60 L62.56 64.08 L61.51 64.56 L60.48 65.04 L59.46 65.52 L58.47 66.00 L57.50 66.48 L56.55 66.97 L55.64 67.46 L54.75 67.96 L53.90 68.47 L53.09 68.98 L52.31 69.50 L51.58 70.03 L50.89 70.56 L50.25 71.11 Z"/>
  <path d="M46.33 68.33 L45.75 68.89 L45.11 69.44 L44.42 69.97 L43.69 70.50 L42.91 71.02 L42.10 71.53 L41.25 72.04 L40.36 72.54 L39.45 73.03 L38.50 73.52 L37.53 74.00 L36.54 74.48 L35.52 74.96 L34.49 75.44 L33.44 75.92 L32.37 76.40 L31.30 76.89 L30.21 77.38 L29.11 77.88 L28.01 78.39 L26.91 78.91 L25.80 79.44 L24.69 79.98 L23.59 80.54 L22.49 81.12 L21.40 81.71 L20.32 82.33 L19.26 82.96 L18.20 83.63 L17.17 84.31 L16.16 85.03 L15.16 85.78 L14.19 86.54 L13.23 87.34 L12.30 88.15 L11.40 89.00 L10.52 89.88 L9.68 90.79 L8.87 91.74 L8.10 92.72 L7.37 93.74 L6.69 94.81 L6.06 95.91 L5.49 97.06 L4.98 98.25 L4.54 99.47 L4.18 100.74 L3.86 102.21 L3.73 103.12 L3.63 104.03 L3.54 104.93 L3.48 105.82 L3.45 106.70 L3.44 107.58 L3.45 108.44 L3.49 109.30 L3.55 110.15 L3.63 111.00 L3.74 111.83 L3.87 112.65 L4.03 113.46 L4.21 114.26 L4.41 115.05 L4.63 115.83 L4.88 116.60 L5.15 117.35 L5.45 118.10 L5.76 118.82 L6.10 119.54 L6.46 120.24 L6.85 120.93 L7.26 121.60 L7.69 122.25 L8.14 122.89 L8.61 123.52 L9.10 124.12 L9.62 124.71 L10.15 125.28 L10.71 125.84 L11.29 126.37 L11.88 126.89 L12.50 127.38 L13.13 127.86 L13.78 128.32 L14.45 128.75 L15.14 129.17 L15.85 129.57 L16.57 129.95 L17.31 130.31 L18.06 130.65 L18.83 130.97 L19.62 131.27 L20.43 131.55 L21.25 131.81 L22.08 132.05 L23.63 132.39 L24.65 132.47 L25.66 132.55 L26.68 132.63 L27.70 132.70 L28.71 132.77 L29.73 132.83 L30.74 132.89 L31.76 132.95 L32.77 133.00 L33.79 133.06 L34.80 133.10 L35.82 133.15 L36.83 133.19 L37.85 133.22 L38.86 133.26 L39.88 133.29 L40.89 133.31 L41.91 133.34 L42.92 133.36 L43.94 133.37 L44.95 133.38 L45.97 133.39 L46.98 133.40 L48.00 133.40 L49.02 133.40 L50.03 133.39 L51.05 133.38 L52.06 133.37 L53.08 133.36 L54.09 133.34 L55.11 133.31 L56.12 133.29 L57.14 133.26 L58.15 133.22 L59.17 133.19 L60.18 133.15 L61.20 133.10 L62.21 133.06 L63.23 133.00 L64.24 132.95 L65.26 132.89 L66.27 132.83 L67.29 132.77 L68.30 132.70 L69.32 132.63 L70.34 132.55 L71.35 132.47 L73.07 132.27 L73.92 132.05 L74.75 131.81 L75.57 131.55 L76.38 131.27 L77.17 130.97 L77.94 130.65 L78.69 130.31 L79.43 129.95 L80.15 129.57 L80.86 129.17 L81.55 128.75 L82.22 128.32 L82.87 127.86 L83.50 127.38 L84.12 126.89 L84.71 126.37 L85.29 125.84 L85.85 125.28 L86.38 124.71 L86.90 124.12 L87.39 123.52 L87.86 122.89 L88.31 122.25 L88.74 121.60 L89.15 120.93 L89.54 120.24 L89.90 119.54 L90.24 118.82 L90.55 118.10 L90.85 117.35 L91.12 116.60 L91.37 115.83 L91.59 115.05 L91.79 114.26 L91.97 113.46 L92.13 112.65 L92.26 111.83 L92.37 111.00 L92.45 110.15 L92.51 109.30 L92.55 108.44 L92.56 107.58 L92.55 106.70 L92.52 105.82 L92.46 104.93 L92.37 104.03 L92.27 103.12 L92.11 102.04 L91.82 100.74 L91.46 99.47 L91.02 98.25 L90.51 97.06 L89.94 95.91 L89.31 94.81 L88.63 93.74 L87.90 92.72 L87.13 91.74 L86.32 90.79 L85.48 89.88 L84.60 89.00 L83.70 88.15 L82.77 87.34 L81.81 86.54 L80.84 85.78 L79.84 85.03 L78.83 84.31 L77.80 83.63 L76.74 82.96 L75.68 82.33 L74.60 81.71 L73.51 81.12 L72.41 80.54 L71.31 79.98 L70.20 79.44 L69.09 78.91 L67.99 78.39 L66.89 77.88 L65.79 77.38 L64.70 76.89 L63.63 76.40 L62.56 75.92 L61.51 75.44 L60.48 74.96 L59.46 74.48 L58.47 74.00 L57.50 73.52 L56.55 73.03 L55.64 72.54 L54.75 72.04 L53.90 71.53 L53.09 71.02 L52.31 70.50 L51.58 69.97 L50.89 69.44 L50.25 68.89 Z M49.67 71.67 L48.96 72.35 L48.23 73.04 L47.47 73.71 L46.69 74.39 L45.88 75.06 L45.05 75.73 L44.20 76.40 L43.33 77.07 L42.44 77.75 L41.54 78.42 L40.62 79.09 L39.68 79.77 L38.74 80.45 L37.78 81.13 L36.82 81.81 L35.85 82.49 L34.88 83.17 L33.91 83.85 L32.93 84.54 L31.96 85.22 L31.00 85.91 L30.04 86.59 L29.09 87.28 L28.16 87.96 L27.23 88.64 L26.32 89.32 L25.43 90.00 L24.56 90.68 L23.71 91.35 L22.87 92.01 L22.06 92.68 L21.28 93.33 L20.53 94.00 L19.82 94.66 L19.14 95.33 L18.51 96.00 L17.91 96.67 L17.36 97.34 L16.84 98.00 L16.38 98.67 L15.95 99.33 L15.57 99.99 L15.22 100.65 L14.92 101.30 L14.66 101.96 L14.44 102.62 L14.26 103.28 L14.14 103.79 L14.04 104.49 L13.95 105.18 L13.87 105.86 L13.81 106.51 L13.76 107.16 L13.72 107.79 L13.69 108.41 L13.68 109.01 L13.68 109.60 L13.69 110.18 L13.72 110.74 L13.75 111.29 L13.80 111.82 L13.87 112.35 L13.94 112.86 L14.03 113.35 L14.14 113.84 L14.25 114.31 L14.39 114.77 L14.53 115.22 L14.69 115.66 L14.86 116.08 L15.04 116.50 L15.24 116.90 L15.46 117.29 L15.69 117.68 L15.93 118.05 L16.19 118.42 L16.46 118.77 L16.75 119.11 L17.06 119.45 L17.38 119.78 L17.72 120.10 L18.08 120.40 L18.45 120.70 L18.84 121.00 L19.25 121.28 L19.68 121.55 L20.13 121.81 L20.60 122.07 L21.09 122.31 L21.59 122.55 L22.12 122.77 L22.67 122.98 L23.24 123.19 L23.83 123.38 L24.44 123.56 L24.37 123.61 L25.35 123.69 L26.34 123.77 L27.32 123.84 L28.30 123.91 L29.29 123.98 L30.27 124.04 L31.26 124.10 L32.24 124.16 L33.23 124.21 L34.21 124.26 L35.20 124.31 L36.18 124.35 L37.17 124.39 L38.15 124.43 L39.14 124.46 L40.12 124.49 L41.11 124.52 L42.09 124.54 L43.08 124.56 L44.06 124.57 L45.05 124.58 L46.03 124.59 L47.02 124.60 L48.00 124.60 L48.98 124.60 L49.97 124.59 L50.95 124.58 L51.94 124.57 L52.92 124.56 L53.91 124.54 L54.89 124.52 L55.88 124.49 L56.86 124.46 L57.85 124.43 L58.83 124.39 L59.82 124.35 L60.80 124.31 L61.79 124.26 L62.77 124.21 L63.76 124.16 L64.74 124.10 L65.73 124.04 L66.71 123.98 L67.70 123.91 L68.68 123.84 L69.66 123.77 L70.65 123.69 L70.93 123.73 L71.56 123.56 L72.17 123.38 L72.76 123.19 L73.33 122.98 L73.88 122.77 L74.41 122.55 L74.91 122.31 L75.40 122.07 L75.87 121.81 L76.32 121.55 L76.75 121.28 L77.16 121.00 L77.55 120.70 L77.92 120.40 L78.28 120.10 L78.62 119.78 L78.94 119.45 L79.25 119.11 L79.54 118.77 L79.81 118.42 L80.07 118.05 L80.31 117.68 L80.54 117.29 L80.76 116.90 L80.96 116.50 L81.14 116.08 L81.31 115.66 L81.47 115.22 L81.61 114.77 L81.75 114.31 L81.86 113.84 L81.97 113.35 L82.06 112.86 L82.13 112.35 L82.20 111.82 L82.25 111.29 L82.28 110.74 L82.31 110.18 L82.32 109.60 L82.32 109.01 L82.31 108.41 L82.28 107.79 L82.24 107.16 L82.19 106.51 L82.13 105.86 L82.05 105.18 L81.96 104.49 L81.89 103.96 L81.74 103.28 L81.56 102.62 L81.34 101.96 L81.08 101.30 L80.78 100.65 L80.43 99.99 L80.05 99.33 L79.62 98.67 L79.16 98.00 L78.64 97.34 L78.09 96.67 L77.49 96.00 L76.86 95.33 L76.18 94.66 L75.47 94.00 L74.72 93.33 L73.94 92.68 L73.13 92.01 L72.29 91.35 L71.44 90.68 L70.57 90.00 L69.68 89.32 L68.77 88.64 L67.84 87.96 L66.91 87.28 L65.96 86.59 L65.00 85.91 L64.04 85.22 L63.07 84.54 L62.09 83.85 L61.12 83.17 L60.15 82.49 L59.18 81.81 L58.22 81.13 L57.26 80.45 L56.32 79.77 L55.38 79.09 L54.46 78.42 L53.56 77.75 L52.67 77.07 L51.80 76.40 L50.95 75.73 L50.12 75.06 L49.31 74.39 L48.53 73.71 L47.77 73.04 L47.04 72.35 Z"/>
  <path d="M11.47 105.27 L13.01 105.04 L14.54 104.82 L16.07 104.60 L17.61 104.37 L19.14 104.15 L20.67 103.93 L22.21 103.70 L23.74 103.48 L25.27 103.25 L26.80 103.03 L28.34 102.80 L29.87 102.57 L31.40 102.35 L32.93 102.12 L34.47 101.89 L36.00 101.66 L37.53 101.44 L39.06 101.21 L40.60 100.98 L42.13 100.75 L43.66 100.52 L45.19 100.29 L46.73 100.06 L48.26 99.83 L49.79 99.60 L51.32 99.37 L52.85 99.14 L54.39 98.90 L55.92 98.67 L57.45 98.44 L58.98 98.21 L60.51 97.97 L62.05 97.74 L63.58 97.51 L65.11 97.27 L66.64 97.04 L68.17 96.80 L69.70 96.57 L71.23 96.33 L72.77 96.10 L74.30 95.86 L75.83 95.63 L77.36 95.39 L78.89 95.15 L77.73 93.89 L78.04 94.23 L78.33 94.59 L78.62 94.94 L78.90 95.31 L79.17 95.67 L79.43 96.04 L79.69 96.42 L79.93 96.80 L80.17 97.18 L80.40 97.57 L80.62 97.96 L80.83 98.36 L81.03 98.76 L81.23 99.17 L81.41 99.57 L81.59 99.99 L81.75 100.40 L81.91 100.82 L82.05 101.25 L82.19 101.67 L82.32 102.10 L82.44 102.53 L82.54 102.97 L82.64 103.41 L82.73 103.85 L82.80 104.30 L82.87 104.75 L82.92 105.20 L82.96 105.65 L83.00 106.11 L83.02 106.57 L83.03 107.03 L83.03 107.50 L83.01 107.96 L82.99 108.43 L82.95 108.91 L82.90 109.38 L82.84 109.86 L82.76 110.34 L82.67 110.82 L82.57 111.31 L82.46 111.79 L82.33 112.28 L82.19 112.77 L82.03 113.26 L81.90 113.91 L81.98 114.56 L82.25 115.16 L82.69 115.64 L83.26 115.97 L83.91 116.10 L84.56 116.02 L85.16 115.75 L85.64 115.31 L85.97 114.74 L86.20 114.16 L86.41 113.59 L86.61 113.01 L86.79 112.43 L86.96 111.85 L87.11 111.27 L87.25 110.69 L87.38 110.11 L87.48 109.53 L87.58 108.94 L87.65 108.36 L87.72 107.78 L87.76 107.20 L87.80 106.62 L87.82 106.04 L87.82 105.46 L87.81 104.89 L87.79 104.31 L87.75 103.74 L87.70 103.17 L87.63 102.60 L87.55 102.03 L87.46 101.47 L87.35 100.91 L87.23 100.35 L87.10 99.79 L86.96 99.24 L86.80 98.69 L86.63 98.15 L86.44 97.61 L86.24 97.07 L86.03 96.54 L85.81 96.02 L85.58 95.49 L85.34 94.98 L85.08 94.47 L84.81 93.96 L84.53 93.46 L84.24 92.96 L83.94 92.47 L83.62 91.99 L83.30 91.51 L82.97 91.04 L82.62 90.57 L82.27 90.11 L78.04 89.29 L76.51 89.50 L74.97 89.71 L73.44 89.91 L71.90 90.12 L70.37 90.33 L68.83 90.54 L67.29 90.75 L65.76 90.96 L64.22 91.17 L62.69 91.38 L61.15 91.59 L59.62 91.80 L58.08 92.01 L56.55 92.23 L55.01 92.44 L53.48 92.65 L51.95 92.86 L50.41 93.08 L48.88 93.29 L47.34 93.50 L45.81 93.72 L44.27 93.93 L42.74 94.15 L41.20 94.36 L39.67 94.58 L38.14 94.79 L36.60 95.01 L35.07 95.22 L33.53 95.44 L32.00 95.66 L30.46 95.88 L28.93 96.09 L27.40 96.31 L25.86 96.53 L24.33 96.75 L22.80 96.97 L21.26 97.19 L19.73 97.41 L18.19 97.63 L16.66 97.85 L15.13 98.07 L13.59 98.29 L12.06 98.51 L10.53 98.73 L9.54 99.04 L8.70 99.64 L8.08 100.46 L7.75 101.44 L7.73 102.47 L8.04 103.46 L8.64 104.30 L9.46 104.92 L10.44 105.25 Z"/>
</svg>
