<?xml version="1.0" encoding="UTF-8"?>
<svg id="Layer_1" data-name="Layer 1" xmlns="http://www.w3.org/2000/svg" viewBox="-320 32 1412 528">
  <defs>
    <style>
      .cls-1 {
        fill: #24262A;
        stroke: #24262A;
        stroke-width: 2.5;
        stroke-linejoin: round;
        stroke-linecap: round;
      }
    </style>
  </defs>
  <path class="cls-1" d="M729.79,257.82h-99.07c-3.87,0-6.58-2.62-7.06-6.85l-4.66-47.34c-.29-2.52.62-4.14,1.44-5.05,1.28-1.43,3.28-2.22,5.63-2.22h98.14c3.99,0,6.16,2.07,7.04,6.7l.02.14,5.59,47.3c.2,1.9-.36,3.66-1.55,4.99-1.33,1.48-3.34,2.32-5.51,2.32ZM626.06,200.36c-1.18,0-2.14.32-2.65.89-.4.44-.54,1.09-.44,1.96l4.66,47.33c.38,3.27,2.42,3.27,3.09,3.27h99.07c1.03,0,1.98-.37,2.54-1,.44-.49.63-1.12.55-1.87l-5.58-47.2c-.63-3.22-1.59-3.38-3.1-3.38h-98.14Z"/>
  <path class="cls-1" d="M1090.33,556.48h-4v-227.38c0-26.14-21.26-47.41-47.4-47.41h-69.73v-7.58c0-1.74-1.42-3.16-3.16-3.16h-31.52l14.84-69.42c.73-3.39-1.19-6.8-4.46-7.94l-89.57-31.3c-1.75-.61-3.62.36-4.21,2.04l-.65,1.85-1.86-.61c-.93-.3-1.94-.57-2.99-.79-14.78-3.04-29.3,5.97-33.31,20.29l55.88,11.52c1.15-8.57-1.64-17.25-7.64-23.55l-5.71-6,82.78,28.97c2.37.82,3.75,3.29,3.21,5.74l-14.79,69.22h-30.67c-1.74,0-3.16,1.42-3.16,3.16v7.58h-85.5v-7.97c0-2.45-1.99-4.44-4.43-4.44h-57.12l-8.2-73.45c-.54-3.41-1.96-4.13-3.92-4.13h-117.21c-1.23,0-2.41.51-3.17,1.36-.41.46-.87,1.23-.74,2.31l8.21,86.31h-130.77l7.67-48.12h-28.36l-.2-1.78c-.29-2.61-.7-5.14-1.22-7.51l-.05-.41c-.18-25.54,2.07-42.55,6.69-50.55l.69-1.2,1.36.22c6.13,1,12.02,1.03,17.57.12-4.72-7.18-5.67-11.47-5.87-17.62-.06-1.22.7-2.34,1.89-2.74,1.21-.41,2.5.01,3.23,1.06,3.54,5.07,7.4,7.4,14.4,11.64.87.53,1.78,1.08,2.75,1.67,6.75-3.95,12.97-9.64,18.94-17.34-4.76-2.44-8.33-4.59-11.09-8.66-.7-1.05-.62-2.39.17-3.35.81-.97,2.12-1.29,3.29-.79,3.39,1.43,6.98,1.54,11.53,1.69,1.15.04,2.35.08,3.62.14,2.2-3.59,4.38-7.52,6.5-11.71-6.79-2.58-7.04-3.35-7.31-4.17l-.3-.93.56-.9c.54-.77.57-.82,11.69-3.76,2.18-4.87,4.35-10.09,6.59-15.86-8.32.92-15.86,1.9-22.95,2.99-.48.73-1.3,2.1-1.89,3.08-2.05,3.41-2.26,3.71-2.84,4.05-.74.42-1.58.45-2.32.12-.49-.22-1.89-.85-3.16-5.57-5.4.99-10.14,1.98-14.41,2.99-.45,2-.66,4.75-.85,7.23-.43,5.64-.8,10.11-4.11,10l-.36-.04c-1.77-.37-4.07-1.7-5.02-5.86l-.1-.45.11-.45c1.69-7.18,1.97-15.4.86-24.44-5.1,1.64-9.14,2.65-13.97,1.71-1.23-.25-2.13-1.24-2.25-2.48-.12-1.25.59-2.41,1.75-2.88,3.41-1.39,6.04-3.84,9.36-6.95.85-.79,1.73-1.62,2.68-2.48-.99-4.1-2.2-8.34-3.7-12.89-6.65,2.98-7.37,2.61-8.12,2.22l-.87-.45-.27-1.4c0-.66,0-.87,5.64-10.56-1.83-4.83-3.98-10.06-6.54-15.88-5.18,6.47-9.93,12.62-14.13,18.34.18.86.57,2.44.86,3.56.96,3.84,1.03,4.21.84,4.88-.22.79-.79,1.4-1.56,1.69-.51.19-1.94.73-6.17-1.7-2.92,4.22-5.62,8.34-8.06,12.3,1.1,1.74,2.9,3.84,4.51,5.73,3.81,4.45,6.56,7.66,4.16,9.95l-.3.24c-4.63,2.95-9.59-1.74-13.22-5.17-.3-.28-.59-.56-.87-.82-4.55,8.51-7.6,16.01-9.28,22.81,5.75,3.19,10.68,5.16,15.06,6.02,1.23.23,2.15,1.24,2.27,2.5.12,1.25-.57,2.4-1.72,2.87-4.35,1.76-9.94,2.26-17.06,1.52.51,11.42,6.66,19.92,18.73,25.93l.89.44.18.98c.52,2.81,1.42,5.82,2.65,8.97l.6,1.53-6.32,4.04-1.01-1.93c-.03-.05-2.36-4.47-4.69-7.5-3.84,4.6-7.52,7.6-11.22,9.15-1.11.46-2.37.15-3.12-.79-.77-.94-.82-2.25-.14-3.25,2.1-3.08,3.94-7.3,5.49-12.54-5.03-3.06-11.26-5.73-18.94-8.13,0,.23-.02.47-.02.7-.15,4.39-.35,10.4-5.2,11.41l-.36.04s-.06,0-.09,0c-3.06,0-3.33-3.93-3.68-8.9-.15-2.06-.31-4.34-.66-6.04-3.67-.9-7.62-1.75-11.98-2.57-1.14,3.95-2.39,4.51-2.84,4.71-.73.32-1.54.28-2.23-.11-.59-.31-.81-.65-2.57-3.65-.47-.8-1.12-1.9-1.53-2.54-5.96-.95-12.28-1.81-19.21-2.62,1.83,4.76,3.61,9.1,5.39,13.16,9.53,2.58,9.54,2.6,10.06,3.34l.58.82-.31,1.04c-.26.79-.49,1.48-6.2,3.62,1.73,3.45,3.51,6.71,5.31,9.72,1.03-.04,2-.07,2.94-.1,3.92-.11,7.02-.2,9.92-1.39,1.08-.46,2.34-.16,3.12.77.77.92.84,2.21.18,3.21-2.34,3.38-5.12,5.16-9.45,7.39,4.99,6.45,10.19,11.26,15.83,14.65.77-.46,1.51-.9,2.21-1.32,6.05-3.61,9.38-5.61,12.45-9.92.67-.98,1.91-1.39,3.07-.99,1.16.39,1.88,1.48,1.81,2.69-.2,5.23-1.02,8.92-4.96,14.94,7.68,1.24,15.92.37,25.09-2.66l1.18-.39.87.88c3.74,3.78,6.95,7.81,9.54,11.99l.27.44.02.52c.41,8.82,1.17,17.02,2.26,24.35l.34,2.29h-26.56l7.69,48.12H-320v-4h756.77l-7.69-48.12h26.62c-.92-6.71-1.57-14.08-1.95-21.93-2.18-3.45-4.82-6.8-7.86-9.97-10.46,3.27-20.2,3.87-28.98,1.79l-2.91-.69,1.75-2.43c3.49-4.85,4.94-7.83,5.56-11.19-2.87,2.92-6.18,4.9-10.89,7.71-1,.59-2.06,1.23-3.2,1.92l-1,.61-1.02-.58c-7.08-4-13.46-9.97-19.51-18.24l-1.4-1.91,2.12-1.06c3.01-1.5,5.21-2.63,6.94-3.93-2.11.32-4.3.38-6.67.44-1.26.03-2.6.07-4.04.15l-1.19.06-.62-1.02c-2.42-3.96-4.8-8.36-7.08-13.06l-.98-2.01,2.1-.75c.75-.27,1.54-.56,2.3-.86-1.54-.43-3.29-.91-4.96-1.36l-.92-.25-.39-.87c-2.32-5.23-4.62-10.89-7.02-17.31l-1.14-3.05,3.24.36c8.55.95,16.18,1.97,23.3,3.12,1.16.05,1.53.68,3.7,4.35.07.12.14.24.22.37.2-.64.4-1.35.55-2.03l.42-1.88,1.9.34c5.66,1.03,10.64,2.09,15.23,3.25l1.08.27.34,1.06c.69,2.15.9,5.14,1.1,8.02.09,1.3.21,3.03.4,4.26.77-1.49.87-4.4.95-6.67.04-1.25.08-2.43.21-3.46l.3-2.33,2.25.66c9.84,2.89,17.57,6.2,23.62,10.11l1.23.8-.39,1.41c-1.15,4.2-2.45,7.77-3.93,10.8,2.25-1.74,4.58-4.18,7.02-7.34l1.37-1.78,1.61,1.57c2.05,2,4.29,5.59,5.65,7.93-.83-2.34-1.48-4.61-1.94-6.79-13.58-7.06-20.34-17.6-20.1-31.36l.04-2.25,2.23.3c5.26.71,9.62.76,13.18.15-4-1.28-8.37-3.29-13.24-6.08l-1.27-.73.32-1.44c1.81-8.14,5.47-17.13,11.21-27.5l1.14-2.06,1.85,1.45c.93.73,1.91,1.66,2.95,2.64,2.21,2.09,5.11,4.83,7.17,4.98-.8-1.22-2.42-3.12-3.59-4.48-2.17-2.53-4.41-5.15-5.58-7.47l-.5-.99.58-.95c2.93-4.81,6.26-9.87,9.89-15.06l1.11-1.58,1.62,1.05c.9.58,1.9,1.14,2.75,1.56-.09-.37-.19-.75-.27-1.09-1.19-4.74-1.44-5.73-.47-6.54,4.85-6.62,10.43-13.82,16.57-21.41l2.05-2.53,1.33,2.97c3.35,7.49,6.07,14.02,8.3,19.99l.33.89-.48.82c-1.19,2.03-2.43,4.18-3.45,5.98,1.14-.48,2.36-1.03,3.48-1.55l2.02-.94.72,2.11c2.02,5.91,3.58,11.31,4.79,16.52l.27,1.16-.89.79c-1.26,1.12-2.41,2.19-3.49,3.2-2.33,2.17-4.44,4.15-6.81,5.72,2.84-.2,5.87-1.15,10.22-2.58l2.26-.74.35,2.35c1.52,10.28,1.35,19.63-.49,27.81.25.92.56,1.47.85,1.82.3-1.42.5-3.94.64-5.75.25-3.32.52-6.75,1.32-9.21l.35-1.06,1.08-.26c5.11-1.25,10.89-2.44,17.65-3.66l1.9-.34.41,1.89c.22,1.05.54,2.15.84,3.05.21-.34.41-.68.6-.99,2.59-4.31,2.91-4.84,4.08-4.88,8.24-1.27,17.08-2.4,27.02-3.46l3.24-.34-1.16,3.04c-2.82,7.44-5.52,13.98-8.25,20l-.39.87-.92.24c-2.03.54-4.55,1.21-6.68,1.79,1.15.46,2.4.94,3.56,1.37l2.1.76-.98,2c-2.69,5.46-5.48,10.53-8.31,15.05l-.63,1.01-1.19-.07c-1.68-.1-3.24-.15-4.71-.2-3.19-.1-6.08-.2-8.87-.76,2.15,1.86,4.95,3.33,9.03,5.39l2.12,1.07-1.41,1.91c-7.05,9.52-14.46,16.37-22.66,20.92l-1.02.57-1-.61c-1.33-.82-2.57-1.57-3.73-2.27-5.79-3.51-9.75-5.9-13.16-9.68.59,4.38,2.19,7.97,6.57,14.14l1.73,2.43-2.91.67c-6.46,1.49-13.38,1.74-20.59.72-2.76,5.73-5.71,18.54-5.53,47.13.41,1.9.75,3.89,1.02,5.94h29.48l-7.67,48.12h121.69l-7.79-81.89c-.23-1.95.38-3.88,1.73-5.4,1.51-1.69,3.81-2.7,6.16-2.7h117.21c3.05,0,6.9,1.32,7.89,7.6l7.81,69.98h53.54c4.65,0,8.43,3.79,8.43,8.44v3.97h77.5v-3.58c0-3.95,3.21-7.16,7.16-7.16h27.43l14.12-66.07c.11-.48-.16-.95-.62-1.11l-68.65-24.02c4.27,6.99,5.81,15.43,4.13,23.62l-.4,1.96-63.86-13.17.4-1.96c3.63-17.6,20.9-28.97,38.51-25.35.61.13,1.21.27,1.79.42,1.34-1.95,3.58-3.18,6.02-3.18.81,0,1.61.14,2.4.41l89.58,31.3c5.17,1.81,8.2,7.21,7.05,12.56l-13.8,64.58h26.58c3.95,0,7.16,3.21,7.16,7.16v3.58h65.73c28.34,0,51.4,23.06,51.4,51.41v227.38ZM424.1,181.8s-.02.03-.03.04c0-.01.02-.03.03-.04ZM421.71,181.01s0,.03,0,.05c0-.02,0-.03,0-.05ZM398.04,168.43s-.03.01-.04.02c.01,0,.03-.01.04-.02ZM491.64,154.67s0,.03,0,.04c0-.01,0-.02,0-.04ZM519.66,140s0,0,.01,0c0,0,0,0-.01,0ZM451.83,124.19s0,0,.01,0c0,0,0,0-.01,0Z"/>
</svg>