<svg xmlns="http://www.w3.org/2000/svg" width="460" height="210" viewBox="0 0 460 210">
  <path d="M0.0 61.9 L5.8 63.4 L11.5 64.8 L17.2 66.1 L23.0 67.2 L28.8 67.9 L34.5 68.4 L40.2 68.7 L46.0 68.7 L51.8 68.6 L57.5 68.5 L63.2 68.3 L69.0 68.1 L74.8 67.9 L80.5 67.7 L86.2 67.6 L92.0 67.3 L97.8 67.0 L103.5 66.5 L109.2 65.8 L115.0 64.9 L120.8 63.8 L126.5 62.5 L132.2 61.0 L138.0 59.5 L143.8 58.1 L149.5 56.7 L155.2 55.6 L161.0 54.8 L166.8 54.2 L172.5 54.0 L178.2 54.0 L184.0 54.3 L189.8 54.7 L195.5 55.3 L201.2 55.9 L207.0 56.4 L212.8 57.0 L218.5 57.4 L224.2 57.9 L230.0 58.3 L235.8 58.9 L241.5 59.5 L247.2 60.3 L253.0 61.2 L258.8 62.3 L264.5 63.6 L270.2 64.9 L276.0 66.3 L281.8 67.6 L287.5 68.7 L293.2 69.5 L299.0 70.1 L304.8 70.4 L310.5 70.3 L316.2 69.9 L322.0 69.3 L327.8 68.5 L333.5 67.6 L339.2 66.7 L345.0 65.8 L350.8 65.0 L356.5 64.3 L362.2 63.6 L368.0 63.0 L373.8 62.4 L379.5 61.7 L385.2 61.0 L391.0 60.1 L396.8 59.1 L402.5 58.0 L408.2 56.9 L414.0 55.8 L419.8 54.8 L425.5 54.0 L431.2 53.4 L437.0 53.2 L442.8 53.3 L448.5 53.7 L454.2 54.4 L460.0 55.3" fill="none" stroke="#5B5F64" stroke-width="2" stroke-opacity="0.45" stroke-linecap="round"/>
  <path d="M0.0 95.9 L5.8 96.9 L11.5 97.4 L17.2 97.6 L23.0 97.5 L28.8 97.1 L34.5 96.6 L40.2 95.9 L46.0 95.3 L51.8 94.6 L57.5 93.9 L63.2 93.3 L69.0 92.5 L74.8 91.6 L80.5 90.6 L86.2 89.3 L92.0 87.9 L97.8 86.3 L103.5 84.5 L109.2 82.8 L115.0 81.1 L120.8 79.6 L126.5 78.5 L132.2 77.7 L138.0 77.3 L143.8 77.4 L149.5 77.8 L155.2 78.5 L161.0 79.5 L166.8 80.5 L172.5 81.7 L178.2 82.7 L184.0 83.8 L189.8 84.8 L195.5 85.7 L201.2 86.7 L207.0 87.7 L212.8 88.8 L218.5 90.1 L224.2 91.5 L230.0 92.9 L235.8 94.4 L241.5 95.8 L247.2 97.0 L253.0 97.9 L258.8 98.5 L264.5 98.7 L270.2 98.4 L276.0 97.7 L281.8 96.7 L287.5 95.4 L293.2 94.0 L299.0 92.5 L304.8 91.0 L310.5 89.7 L316.2 88.5 L322.0 87.4 L327.8 86.4 L333.5 85.4 L339.2 84.5 L345.0 83.5 L350.8 82.4 L356.5 81.3 L362.2 80.2 L368.0 79.2 L373.8 78.3 L379.5 77.6 L385.2 77.3 L391.0 77.4 L396.8 77.9 L402.5 78.8 L408.2 80.0 L414.0 81.6 L419.8 83.3 L425.5 85.0 L431.2 86.8 L437.0 88.3 L442.8 89.7 L448.5 90.9 L454.2 91.9 L460.0 92.7" fill="none" stroke="#5B5F64" stroke-width="2" stroke-opacity="0.49" stroke-linecap="round"/>
  <path d="M0.0 119.3 L5.8 118.6 L11.5 117.6 L17.2 116.5 L23.0 115.3 L28.8 114.3 L34.5 113.3 L40.2 112.4 L46.0 111.5 L51.8 110.4 L57.5 109.2 L63.2 107.7 L69.0 106.1 L74.8 104.5 L80.5 102.9 L86.2 101.7 L92.0 100.8 L97.8 100.4 L103.5 100.6 L109.2 101.3 L115.0 102.4 L120.8 103.8 L126.5 105.4 L132.2 106.9 L138.0 108.3 L143.8 109.5 L149.5 110.6 L155.2 111.5 L161.0 112.5 L166.8 113.5 L172.5 114.7 L178.2 115.9 L184.0 117.1 L189.8 118.3 L195.5 119.2 L201.2 119.8 L207.0 119.8 L212.8 119.3 L218.5 118.3 L224.2 116.9 L230.0 115.1 L235.8 113.3 L241.5 111.4 L247.2 109.8 L253.0 108.4 L258.8 107.3 L264.5 106.4 L270.2 105.6 L276.0 104.9 L281.8 104.2 L287.5 103.4 L293.2 102.6 L299.0 101.9 L304.8 101.4 L310.5 101.2 L316.2 101.5 L322.0 102.3 L327.8 103.5 L333.5 105.2 L339.2 107.2 L345.0 109.2 L350.8 111.2 L356.5 113.0 L362.2 114.4 L368.0 115.5 L373.8 116.2 L379.5 116.7 L385.2 117.0 L391.0 117.3 L396.8 117.6 L402.5 117.9 L408.2 118.1 L414.0 118.1 L419.8 118.0 L425.5 117.4 L431.2 116.4 L437.0 115.0 L442.8 113.2 L448.5 111.2 L454.2 109.0 L460.0 107.0" fill="none" stroke="#5B5F64" stroke-width="2" stroke-opacity="0.53" stroke-linecap="round"/>
  <path d="M0.0 132.5 L5.8 131.3 L11.5 130.3 L17.2 129.6 L23.0 129.0 L28.8 128.4 L34.5 127.6 L40.2 126.7 L46.0 125.6 L51.8 124.4 L57.5 123.3 L63.2 122.6 L69.0 122.4 L74.8 122.8 L80.5 123.8 L86.2 125.2 L92.0 126.9 L97.8 128.4 L103.5 129.8 L109.2 130.8 L115.0 131.5 L120.8 132.0 L126.5 132.5 L132.2 133.0 L138.0 133.6 L143.8 134.4 L149.5 135.2 L155.2 135.8 L161.0 136.0 L166.8 135.7 L172.5 134.7 L178.2 133.3 L184.0 131.6 L189.8 129.7 L195.5 128.1 L201.2 126.8 L207.0 125.9 L212.8 125.4 L218.5 125.2 L224.2 125.1 L230.0 124.9 L235.8 124.6 L241.5 124.2 L247.2 123.9 L253.0 123.7 L258.8 124.0 L264.5 124.8 L270.2 126.2 L276.0 127.9 L281.8 129.8 L287.5 131.6 L293.2 133.1 L299.0 134.2 L304.8 134.7 L310.5 134.8 L316.2 134.7 L322.0 134.4 L327.8 134.2 L333.5 134.1 L339.2 134.1 L345.0 134.0 L350.8 133.7 L356.5 133.0 L362.2 131.9 L368.0 130.4 L373.8 128.5 L379.5 126.7 L385.2 125.1 L391.0 123.9 L396.8 123.2 L402.5 123.1 L408.2 123.5 L414.0 124.1 L419.8 124.8 L425.5 125.4 L431.2 125.8 L437.0 126.2 L442.8 126.6 L448.5 127.2 L454.2 128.1 L460.0 129.4" fill="none" stroke="#5B5F64" stroke-width="2" stroke-opacity="0.57" stroke-linecap="round"/>
  <path d="M0.0 144.8 L5.8 144.2 L11.5 143.8 L17.2 143.4 L23.0 142.9 L28.8 142.2 L34.5 141.3 L40.2 140.5 L46.0 139.9 L51.8 139.7 L57.5 140.1 L63.2 141.0 L69.0 142.4 L74.8 144.1 L80.5 145.8 L86.2 147.3 L92.0 148.4 L97.8 149.2 L103.5 149.6 L109.2 149.7 L115.0 149.9 L120.8 150.1 L126.5 150.5 L132.2 150.9 L138.0 151.3 L143.8 151.5 L149.5 151.2 L155.2 150.4 L161.0 149.1 L166.8 147.5 L172.5 145.7 L178.2 144.0 L184.0 142.6 L189.8 141.6 L195.5 141.2 L201.2 141.1 L207.0 141.3 L212.8 141.5 L218.5 141.6 L224.2 141.7 L230.0 141.6 L235.8 141.6 L241.5 141.8 L247.2 142.4 L253.0 143.5 L258.8 145.0 L264.5 146.7 L270.2 148.5 L276.0 150.1 L281.8 151.2 L287.5 151.7 L293.2 151.8 L299.0 151.4 L304.8 150.8 L310.5 150.2 L316.2 149.7 L322.0 149.4 L327.8 149.1 L333.5 148.8 L339.2 148.3 L345.0 147.5 L350.8 146.3 L356.5 144.8 L362.2 143.1 L368.0 141.5 L373.8 140.3 L379.5 139.6 L385.2 139.5 L391.0 139.9 L396.8 140.8 L402.5 141.7 L408.2 142.7 L414.0 143.5 L419.8 144.1 L425.5 144.6 L431.2 145.1 L437.0 145.7 L442.8 146.6 L448.5 147.7 L454.2 149.1 L460.0 150.5" fill="none" stroke="#5B5F64" stroke-width="2" stroke-opacity="0.61" stroke-linecap="round"/>
  <path d="M0.0 154.8 L5.8 154.3 L11.5 153.9 L17.2 153.5 L23.0 153.0 L28.8 152.6 L34.5 152.4 L40.2 152.5 L46.0 153.1 L51.8 154.1 L57.5 155.5 L63.2 157.3 L69.0 159.2 L74.8 161.2 L80.5 163.0 L86.2 164.5 L92.0 165.7 L97.8 166.5 L103.5 166.9 L109.2 167.0 L115.0 167.0 L120.8 167.0 L126.5 167.0 L132.2 166.9 L138.0 166.9 L143.8 166.7 L149.5 166.3 L155.2 165.6 L161.0 164.6 L166.8 163.1 L172.5 161.3 L178.2 159.4 L184.0 157.4 L189.8 155.6 L195.5 154.1 L201.2 153.0 L207.0 152.4 L212.8 152.3 L218.5 152.5 L224.2 152.9 L230.0 153.4 L235.8 153.9 L241.5 154.4 L247.2 154.9 L253.0 155.4 L258.8 156.0 L264.5 156.8 L270.2 157.9 L276.0 159.3 L281.8 161.0 L287.5 162.8 L293.2 164.6 L299.0 166.3 L304.8 167.7 L310.5 168.6 L316.2 168.9 L322.0 168.8 L327.8 168.3 L333.5 167.5 L339.2 166.5 L345.0 165.5 L350.8 164.6 L356.5 163.8 L362.2 163.0 L368.0 162.2 L373.8 161.3 L379.5 160.3 L385.2 159.0 L391.0 157.6 L396.8 156.0 L402.5 154.4 L408.2 153.0 L414.0 151.9 L419.8 151.2 L425.5 151.1 L431.2 151.4 L437.0 152.3 L442.8 153.4 L448.5 154.8 L454.2 156.2 L460.0 157.5" fill="none" stroke="#5B5F64" stroke-width="2" stroke-opacity="0.65" stroke-linecap="round"/>
  <path d="M0.0 163.9 L5.8 163.9 L11.5 164.0 L17.2 164.2 L23.0 164.6 L28.8 165.2 L34.5 166.1 L40.2 167.4 L46.0 168.9 L51.8 170.7 L57.5 172.6 L63.2 174.6 L69.0 176.5 L74.8 178.2 L80.5 179.6 L86.2 180.7 L92.0 181.4 L97.8 181.8 L103.5 181.8 L109.2 181.6 L115.0 181.3 L120.8 180.9 L126.5 180.4 L132.2 180.0 L138.0 179.5 L143.8 178.9 L149.5 178.3 L155.2 177.5 L161.0 176.5 L166.8 175.3 L172.5 173.8 L178.2 172.1 L184.0 170.3 L189.8 168.5 L195.5 166.7 L201.2 165.1 L207.0 163.8 L212.8 162.8 L218.5 162.2 L224.2 162.1 L230.0 162.3 L235.8 162.8 L241.5 163.6 L247.2 164.4 L253.0 165.4 L258.8 166.3 L264.5 167.2 L270.2 168.0 L276.0 168.9 L281.8 169.8 L287.5 170.8 L293.2 172.0 L299.0 173.3 L304.8 174.8 L310.5 176.4 L316.2 178.0 L322.0 179.6 L327.8 181.0 L333.5 182.1 L339.2 182.9 L345.0 183.3 L350.8 183.2 L356.5 182.7 L362.2 181.9 L368.0 180.8 L373.8 179.6 L379.5 178.2 L385.2 176.9 L391.0 175.7 L396.8 174.5 L402.5 173.4 L408.2 172.4 L414.0 171.4 L419.8 170.4 L425.5 169.3 L431.2 168.1 L437.0 166.9 L442.8 165.6 L448.5 164.3 L454.2 163.2 L460.0 162.4" fill="none" stroke="#5B5F64" stroke-width="2" stroke-opacity="0.69" stroke-linecap="round"/>
  <path d="M0.0 177.7 L5.8 178.2 L11.5 178.9 L17.2 179.8 L23.0 180.9 L28.8 182.2 L34.5 183.7 L40.2 185.2 L46.0 186.8 L51.8 188.2 L57.5 189.5 L63.2 190.6 L69.0 191.3 L74.8 191.7 L80.5 191.7 L86.2 191.5 L92.0 191.1 L97.8 190.5 L103.5 189.8 L109.2 189.1 L115.0 188.4 L120.8 187.7 L126.5 187.1 L132.2 186.5 L138.0 185.9 L143.8 185.2 L149.5 184.4 L155.2 183.4 L161.0 182.3 L166.8 181.1 L172.5 179.8 L178.2 178.4 L184.0 177.0 L189.8 175.8 L195.5 174.8 L201.2 174.1 L207.0 173.7 L212.8 173.7 L218.5 174.0 L224.2 174.5 L230.0 175.4 L235.8 176.3 L241.5 177.4 L247.2 178.5 L253.0 179.5 L258.8 180.4 L264.5 181.2 L270.2 182.0 L276.0 182.7 L281.8 183.4 L287.5 184.2 L293.2 185.1 L299.0 186.0 L304.8 187.1 L310.5 188.2 L316.2 189.3 L322.0 190.3 L327.8 191.2 L333.5 191.9 L339.2 192.3 L345.0 192.3 L350.8 192.0 L356.5 191.3 L362.2 190.4 L368.0 189.2 L373.8 187.9 L379.5 186.6 L385.2 185.3 L391.0 184.0 L396.8 182.9 L402.5 182.0 L408.2 181.2 L414.0 180.5 L419.8 179.8 L425.5 179.2 L431.2 178.6 L437.0 177.9 L442.8 177.1 L448.5 176.3 L454.2 175.6 L460.0 174.9" fill="none" stroke="#5B5F64" stroke-width="2" stroke-opacity="0.72" stroke-linecap="round"/>
  <path d="M0.0 191.5 L5.8 192.4 L11.5 193.4 L17.2 194.6 L23.0 195.8 L28.8 196.9 L34.5 197.8 L40.2 198.4 L46.0 198.7 L51.8 198.7 L57.5 198.4 L63.2 197.8 L69.0 197.0 L74.8 196.2 L80.5 195.3 L86.2 194.5 L92.0 193.8 L97.8 193.3 L103.5 192.9 L109.2 192.5 L115.0 192.1 L120.8 191.6 L126.5 191.1 L132.2 190.4 L138.0 189.5 L143.8 188.6 L149.5 187.6 L155.2 186.7 L161.0 185.9 L166.8 185.4 L172.5 185.1 L178.2 185.2 L184.0 185.7 L189.8 186.4 L195.5 187.4 L201.2 188.4 L207.0 189.5 L212.8 190.6 L218.5 191.5 L224.2 192.2 L230.0 192.8 L235.8 193.2 L241.5 193.6 L247.2 193.9 L253.0 194.3 L258.8 194.8 L264.5 195.4 L270.2 196.0 L276.0 196.7 L281.8 197.4 L287.5 198.0 L293.2 198.4 L299.0 198.5 L304.8 198.4 L310.5 197.8 L316.2 197.0 L322.0 195.9 L327.8 194.7 L333.5 193.5 L339.2 192.2 L345.0 191.2 L350.8 190.3 L356.5 189.6 L362.2 189.1 L368.0 188.8 L373.8 188.6 L379.5 188.4 L385.2 188.2 L391.0 188.0 L396.8 187.6 L402.5 187.2 L408.2 186.8 L414.0 186.4 L419.8 186.2 L425.5 186.2 L431.2 186.4 L437.0 187.0 L442.8 187.9 L448.5 189.0 L454.2 190.3 L460.0 191.6" fill="none" stroke="#5B5F64" stroke-width="2" stroke-opacity="0.72" stroke-linecap="round"/>
</svg>
