<svg xmlns="http://www.w3.org/2000/svg" viewBox="0 0 96 140" fill="#433D37" fill-rule="evenodd">
  <path d="M48.75 69.25 L48.08 68.60 L47.37 67.95 L46.64 67.31 L45.88 66.66 L45.09 66.02 L44.28 65.37 L43.44 64.73 L42.58 64.08 L41.69 63.43 L40.79 62.79 L39.87 62.14 L38.93 61.49 L37.99 60.83 L37.02 60.18 L36.05 59.52 L35.08 58.86 L34.09 58.20 L33.11 57.54 L32.12 56.88 L31.14 56.21 L30.15 55.54 L29.17 54.87 L28.20 54.20 L27.24 53.53 L26.29 52.85 L25.35 52.18 L24.43 51.50 L23.53 50.83 L22.64 50.15 L21.77 49.47 L20.93 48.79 L20.11 48.12 L19.32 47.43 L18.56 46.74 L17.84 46.04 L17.16 45.33 L16.51 44.62 L15.90 43.90 L15.34 43.18 L14.81 42.45 L14.33 41.72 L13.89 40.98 L13.50 40.24 L13.15 39.49 L12.85 38.74 L12.58 37.97 L12.37 37.19 L12.21 36.51 L12.10 35.76 L12.01 35.04 L11.93 34.32 L11.87 33.62 L11.82 32.93 L11.78 32.25 L11.76 31.59 L11.76 30.93 L11.76 30.29 L11.79 29.67 L11.82 29.05 L11.87 28.45 L11.94 27.86 L12.02 27.29 L12.12 26.72 L12.23 26.17 L12.36 25.63 L12.50 25.10 L12.66 24.59 L12.83 24.08 L13.02 23.59 L13.23 23.11 L13.45 22.64 L13.68 22.18 L13.94 21.74 L14.21 21.30 L14.49 20.88 L14.80 20.46 L15.12 20.06 L15.45 19.67 L15.81 19.29 L16.18 18.92 L16.57 18.56 L16.97 18.22 L17.40 17.88 L17.84 17.55 L18.30 17.24 L18.78 16.94 L19.28 16.65 L19.80 16.37 L20.34 16.10 L20.89 15.84 L21.47 15.60 L22.06 15.37 L22.68 15.15 L23.31 14.95 L23.97 14.75 L24.22 14.65 L25.21 14.56 L26.20 14.49 L27.19 14.41 L28.18 14.34 L29.17 14.27 L30.17 14.21 L31.16 14.15 L32.15 14.09 L33.14 14.04 L34.13 13.99 L35.12 13.94 L36.11 13.90 L37.10 13.86 L38.09 13.82 L39.08 13.79 L40.07 13.76 L41.06 13.73 L42.06 13.71 L43.05 13.69 L44.04 13.68 L45.03 13.67 L46.02 13.66 L47.01 13.65 L48.00 13.65 L48.99 13.65 L49.98 13.66 L50.97 13.67 L51.96 13.68 L52.95 13.69 L53.94 13.71 L54.94 13.73 L55.93 13.76 L56.92 13.79 L57.91 13.82 L58.90 13.86 L59.89 13.90 L60.88 13.94 L61.87 13.99 L62.86 14.04 L63.85 14.09 L64.84 14.15 L65.83 14.21 L66.83 14.27 L67.82 14.34 L68.81 14.41 L69.80 14.49 L70.79 14.56 L71.36 14.58 L72.03 14.75 L72.69 14.95 L73.32 15.15 L73.94 15.37 L74.53 15.60 L75.11 15.84 L75.66 16.10 L76.20 16.37 L76.72 16.65 L77.22 16.94 L77.70 17.24 L78.16 17.55 L78.60 17.88 L79.03 18.22 L79.43 18.56 L79.82 18.92 L80.19 19.29 L80.55 19.67 L80.88 20.06 L81.20 20.46 L81.51 20.88 L81.79 21.30 L82.06 21.74 L82.32 22.18 L82.55 22.64 L82.77 23.11 L82.98 23.59 L83.17 24.08 L83.34 24.59 L83.50 25.10 L83.64 25.63 L83.77 26.17 L83.88 26.72 L83.98 27.29 L84.06 27.86 L84.13 28.45 L84.18 29.05 L84.21 29.67 L84.24 30.29 L84.24 30.93 L84.24 31.59 L84.22 32.25 L84.18 32.93 L84.13 33.62 L84.07 34.32 L83.99 35.04 L83.90 35.76 L83.81 36.40 L83.63 37.19 L83.42 37.97 L83.15 38.74 L82.85 39.49 L82.50 40.24 L82.11 40.98 L81.67 41.72 L81.19 42.45 L80.66 43.18 L80.10 43.90 L79.49 44.62 L78.84 45.33 L78.16 46.04 L77.44 46.74 L76.68 47.43 L75.89 48.12 L75.07 48.79 L74.23 49.47 L73.36 50.15 L72.47 50.83 L71.57 51.50 L70.65 52.18 L69.71 52.85 L68.76 53.53 L67.80 54.20 L66.83 54.87 L65.85 55.54 L64.86 56.21 L63.88 56.88 L62.89 57.54 L61.91 58.20 L60.92 58.86 L59.95 59.52 L58.98 60.18 L58.01 60.83 L57.07 61.49 L56.13 62.14 L55.21 62.79 L54.31 63.43 L53.42 64.08 L52.56 64.73 L51.72 65.37 L50.91 66.02 L50.12 66.66 L49.36 67.31 L48.63 67.95 L47.92 68.60 Z M47.25 70.75 L46.63 70.16 L45.96 69.58 L45.25 69.01 L44.50 68.45 L43.70 67.90 L42.87 67.36 L42.01 66.83 L41.12 66.31 L40.20 65.79 L39.25 65.28 L38.28 64.77 L37.28 64.26 L36.27 63.76 L35.24 63.26 L34.20 62.75 L33.14 62.25 L32.08 61.74 L31.00 61.22 L29.92 60.70 L28.84 60.18 L27.75 59.64 L26.67 59.10 L25.59 58.54 L24.51 57.97 L23.44 57.39 L22.38 56.79 L21.33 56.17 L20.29 55.54 L19.27 54.88 L18.27 54.20 L17.29 53.50 L16.34 52.77 L15.40 52.03 L14.49 51.27 L13.61 50.48 L12.75 49.67 L11.92 48.83 L11.13 47.97 L10.38 47.08 L9.66 46.16 L8.99 45.20 L8.36 44.22 L7.78 43.20 L7.26 42.14 L6.80 41.06 L6.40 39.94 L6.07 38.78 L5.79 37.49 L5.66 36.62 L5.56 35.76 L5.48 34.90 L5.42 34.05 L5.39 33.21 L5.37 32.38 L5.38 31.56 L5.41 30.75 L5.46 29.95 L5.54 29.16 L5.63 28.38 L5.75 27.61 L5.89 26.85 L6.05 26.10 L6.23 25.37 L6.44 24.64 L6.66 23.93 L6.91 23.23 L7.17 22.55 L7.46 21.87 L7.77 21.21 L8.10 20.57 L8.45 19.94 L8.82 19.32 L9.21 18.71 L9.62 18.13 L10.05 17.55 L10.50 17.00 L10.96 16.46 L11.45 15.93 L11.96 15.42 L12.49 14.93 L13.04 14.46 L13.60 14.00 L14.18 13.56 L14.78 13.13 L15.40 12.73 L16.04 12.34 L16.70 11.97 L17.37 11.61 L18.06 11.28 L18.76 10.96 L19.49 10.66 L20.23 10.38 L20.98 10.11 L21.76 9.87 L22.55 9.64 L23.78 9.35 L24.79 9.27 L25.80 9.20 L26.81 9.12 L27.82 9.05 L28.83 8.98 L29.83 8.92 L30.84 8.86 L31.85 8.80 L32.86 8.74 L33.87 8.69 L34.88 8.65 L35.89 8.60 L36.90 8.56 L37.91 8.53 L38.92 8.49 L39.93 8.46 L40.94 8.44 L41.94 8.41 L42.95 8.39 L43.96 8.38 L44.97 8.37 L45.98 8.36 L46.99 8.35 L48.00 8.35 L49.01 8.35 L50.02 8.36 L51.03 8.37 L52.04 8.38 L53.05 8.39 L54.06 8.41 L55.06 8.44 L56.07 8.46 L57.08 8.49 L58.09 8.53 L59.10 8.56 L60.11 8.60 L61.12 8.65 L62.13 8.69 L63.14 8.74 L64.15 8.80 L65.16 8.86 L66.17 8.92 L67.17 8.98 L68.18 9.05 L69.19 9.12 L70.20 9.20 L71.21 9.27 L72.64 9.42 L73.45 9.64 L74.24 9.87 L75.02 10.11 L75.77 10.38 L76.51 10.66 L77.24 10.96 L77.94 11.28 L78.63 11.61 L79.30 11.97 L79.96 12.34 L80.60 12.73 L81.22 13.13 L81.82 13.56 L82.40 14.00 L82.96 14.46 L83.51 14.93 L84.04 15.42 L84.55 15.93 L85.04 16.46 L85.50 17.00 L85.95 17.55 L86.38 18.13 L86.79 18.71 L87.18 19.32 L87.55 19.94 L87.90 20.57 L88.23 21.21 L88.54 21.87 L88.83 22.55 L89.09 23.23 L89.34 23.93 L89.56 24.64 L89.77 25.37 L89.95 26.10 L90.11 26.85 L90.25 27.61 L90.37 28.38 L90.46 29.16 L90.54 29.95 L90.59 30.75 L90.62 31.56 L90.63 32.38 L90.61 33.21 L90.58 34.05 L90.52 34.90 L90.44 35.76 L90.34 36.62 L90.19 37.60 L89.93 38.78 L89.60 39.94 L89.20 41.06 L88.74 42.14 L88.22 43.20 L87.64 44.22 L87.01 45.20 L86.34 46.16 L85.62 47.08 L84.87 47.97 L84.08 48.83 L83.25 49.67 L82.39 50.48 L81.51 51.27 L80.60 52.03 L79.66 52.77 L78.71 53.50 L77.73 54.20 L76.73 54.88 L75.71 55.54 L74.67 56.17 L73.62 56.79 L72.56 57.39 L71.49 57.97 L70.41 58.54 L69.33 59.10 L68.25 59.64 L67.16 60.18 L66.08 60.70 L65.00 61.22 L63.92 61.74 L62.86 62.25 L61.80 62.75 L60.76 63.26 L59.73 63.76 L58.72 64.26 L57.72 64.77 L56.75 65.28 L55.80 65.79 L54.88 66.31 L53.99 66.83 L53.13 67.36 L52.30 67.90 L51.50 68.45 L50.75 69.01 L50.04 69.58 L49.37 70.16 Z"/>
  <path d="M47.25 69.25 L46.63 69.84 L45.96 70.42 L45.25 70.99 L44.50 71.55 L43.70 72.10 L42.87 72.64 L42.01 73.17 L41.12 73.69 L40.20 74.21 L39.25 74.72 L38.28 75.23 L37.28 75.74 L36.27 76.24 L35.24 76.74 L34.20 77.25 L33.14 77.75 L32.08 78.26 L31.00 78.78 L29.92 79.30 L28.84 79.82 L27.75 80.36 L26.67 80.90 L25.59 81.46 L24.51 82.03 L23.44 82.61 L22.38 83.21 L21.33 83.83 L20.29 84.46 L19.27 85.12 L18.27 85.80 L17.29 86.50 L16.34 87.23 L15.40 87.97 L14.49 88.73 L13.61 89.52 L12.75 90.33 L11.92 91.17 L11.13 92.03 L10.38 92.92 L9.66 93.84 L8.99 94.80 L8.36 95.78 L7.78 96.80 L7.26 97.86 L6.80 98.94 L6.40 100.06 L6.07 101.22 L5.79 102.51 L5.66 103.38 L5.56 104.24 L5.48 105.10 L5.42 105.95 L5.39 106.79 L5.37 107.62 L5.38 108.44 L5.41 109.25 L5.46 110.05 L5.54 110.84 L5.63 111.62 L5.75 112.39 L5.89 113.15 L6.05 113.90 L6.23 114.63 L6.44 115.36 L6.66 116.07 L6.91 116.77 L7.17 117.45 L7.46 118.13 L7.77 118.79 L8.10 119.43 L8.45 120.06 L8.82 120.68 L9.21 121.29 L9.62 121.87 L10.05 122.45 L10.50 123.00 L10.96 123.54 L11.45 124.07 L11.96 124.58 L12.49 125.07 L13.04 125.54 L13.60 126.00 L14.18 126.44 L14.78 126.87 L15.40 127.27 L16.04 127.66 L16.70 128.03 L17.37 128.39 L18.06 128.72 L18.76 129.04 L19.49 129.34 L20.23 129.62 L20.98 129.89 L21.76 130.13 L22.55 130.36 L23.78 130.65 L24.79 130.73 L25.80 130.80 L26.81 130.88 L27.82 130.95 L28.83 131.02 L29.83 131.08 L30.84 131.14 L31.85 131.20 L32.86 131.26 L33.87 131.31 L34.88 131.35 L35.89 131.40 L36.90 131.44 L37.91 131.47 L38.92 131.51 L39.93 131.54 L40.94 131.56 L41.94 131.59 L42.95 131.61 L43.96 131.62 L44.97 131.63 L45.98 131.64 L46.99 131.65 L48.00 131.65 L49.01 131.65 L50.02 131.64 L51.03 131.63 L52.04 131.62 L53.05 131.61 L54.06 131.59 L55.06 131.56 L56.07 131.54 L57.08 131.51 L58.09 131.47 L59.10 131.44 L60.11 131.40 L61.12 131.35 L62.13 131.31 L63.14 131.26 L64.15 131.20 L65.16 131.14 L66.17 131.08 L67.17 131.02 L68.18 130.95 L69.19 130.88 L70.20 130.80 L71.21 130.73 L72.64 130.58 L73.45 130.36 L74.24 130.13 L75.02 129.89 L75.77 129.62 L76.51 129.34 L77.24 129.04 L77.94 128.72 L78.63 128.39 L79.30 128.03 L79.96 127.66 L80.60 127.27 L81.22 126.87 L81.82 126.44 L82.40 126.00 L82.96 125.54 L83.51 125.07 L84.04 124.58 L84.55 124.07 L85.04 123.54 L85.50 123.00 L85.95 122.45 L86.38 121.87 L86.79 121.29 L87.18 120.68 L87.55 120.06 L87.90 119.43 L88.23 118.79 L88.54 118.13 L88.83 117.45 L89.09 116.77 L89.34 116.07 L89.56 115.36 L89.77 114.63 L89.95 113.90 L90.11 113.15 L90.25 112.39 L90.37 111.62 L90.46 110.84 L90.54 110.05 L90.59 109.25 L90.62 108.44 L90.63 107.62 L90.61 106.79 L90.58 105.95 L90.52 105.10 L90.44 104.24 L90.34 103.38 L90.19 102.40 L89.93 101.22 L89.60 100.06 L89.20 98.94 L88.74 97.86 L88.22 96.80 L87.64 95.78 L87.01 94.80 L86.34 93.84 L85.62 92.92 L84.87 92.03 L84.08 91.17 L83.25 90.33 L82.39 89.52 L81.51 88.73 L80.60 87.97 L79.66 87.23 L78.71 86.50 L77.73 85.80 L76.73 85.12 L75.71 84.46 L74.67 83.83 L73.62 83.21 L72.56 82.61 L71.49 82.03 L70.41 81.46 L69.33 80.90 L68.25 80.36 L67.16 79.82 L66.08 79.30 L65.00 78.78 L63.92 78.26 L62.86 77.75 L61.80 77.25 L60.76 76.74 L59.73 76.24 L58.72 75.74 L57.72 75.23 L56.75 74.72 L55.80 74.21 L54.88 73.69 L53.99 73.17 L53.13 72.64 L52.30 72.10 L51.50 71.55 L50.75 70.99 L50.04 70.42 L49.37 69.84 Z M48.75 70.75 L48.08 71.40 L47.37 72.05 L46.64 72.69 L45.88 73.34 L45.09 73.98 L44.28 74.63 L43.44 75.27 L42.58 75.92 L41.69 76.57 L40.79 77.21 L39.87 77.86 L38.93 78.51 L37.99 79.17 L37.02 79.82 L36.05 80.48 L35.08 81.14 L34.09 81.80 L33.11 82.46 L32.12 83.12 L31.14 83.79 L30.15 84.46 L29.17 85.13 L28.20 85.80 L27.24 86.47 L26.29 87.15 L25.35 87.82 L24.43 88.50 L23.53 89.17 L22.64 89.85 L21.77 90.53 L20.93 91.21 L20.11 91.88 L19.32 92.57 L18.56 93.26 L17.84 93.96 L17.16 94.67 L16.51 95.38 L15.90 96.10 L15.34 96.82 L14.81 97.55 L14.33 98.28 L13.89 99.02 L13.50 99.76 L13.15 100.51 L12.85 101.26 L12.58 102.03 L12.37 102.81 L12.21 103.49 L12.10 104.24 L12.01 104.96 L11.93 105.68 L11.87 106.38 L11.82 107.07 L11.78 107.75 L11.76 108.41 L11.76 109.07 L11.76 109.71 L11.79 110.33 L11.82 110.95 L11.87 111.55 L11.94 112.14 L12.02 112.71 L12.12 113.28 L12.23 113.83 L12.36 114.37 L12.50 114.90 L12.66 115.41 L12.83 115.92 L13.02 116.41 L13.23 116.89 L13.45 117.36 L13.68 117.82 L13.94 118.26 L14.21 118.70 L14.49 119.12 L14.80 119.54 L15.12 119.94 L15.45 120.33 L15.81 120.71 L16.18 121.08 L16.57 121.44 L16.97 121.78 L17.40 122.12 L17.84 122.45 L18.30 122.76 L18.78 123.06 L19.28 123.35 L19.80 123.63 L20.34 123.90 L20.89 124.16 L21.47 124.40 L22.06 124.63 L22.68 124.85 L23.31 125.05 L23.97 125.25 L24.22 125.35 L25.21 125.44 L26.20 125.51 L27.19 125.59 L28.18 125.66 L29.17 125.73 L30.17 125.79 L31.16 125.85 L32.15 125.91 L33.14 125.96 L34.13 126.01 L35.12 126.06 L36.11 126.10 L37.10 126.14 L38.09 126.18 L39.08 126.21 L40.07 126.24 L41.06 126.27 L42.06 126.29 L43.05 126.31 L44.04 126.32 L45.03 126.33 L46.02 126.34 L47.01 126.35 L48.00 126.35 L48.99 126.35 L49.98 126.34 L50.97 126.33 L51.96 126.32 L52.95 126.31 L53.94 126.29 L54.94 126.27 L55.93 126.24 L56.92 126.21 L57.91 126.18 L58.90 126.14 L59.89 126.10 L60.88 126.06 L61.87 126.01 L62.86 125.96 L63.85 125.91 L64.84 125.85 L65.83 125.79 L66.83 125.73 L67.82 125.66 L68.81 125.59 L69.80 125.51 L70.79 125.44 L71.36 125.42 L72.03 125.25 L72.69 125.05 L73.32 124.85 L73.94 124.63 L74.53 124.40 L75.11 124.16 L75.66 123.90 L76.20 123.63 L76.72 123.35 L77.22 123.06 L77.70 122.76 L78.16 122.45 L78.60 122.12 L79.03 121.78 L79.43 121.44 L79.82 121.08 L80.19 120.71 L80.55 120.33 L80.88 119.94 L81.20 119.54 L81.51 119.12 L81.79 118.70 L82.06 118.26 L82.32 117.82 L82.55 117.36 L82.77 116.89 L82.98 116.41 L83.17 115.92 L83.34 115.41 L83.50 114.90 L83.64 114.37 L83.77 113.83 L83.88 113.28 L83.98 112.71 L84.06 112.14 L84.13 111.55 L84.18 110.95 L84.21 110.33 L84.24 109.71 L84.24 109.07 L84.24 108.41 L84.22 107.75 L84.18 107.07 L84.13 106.38 L84.07 105.68 L83.99 104.96 L83.90 104.24 L83.81 103.60 L83.63 102.81 L83.42 102.03 L83.15 101.26 L82.85 100.51 L82.50 99.76 L82.11 99.02 L81.67 98.28 L81.19 97.55 L80.66 96.82 L80.10 96.10 L79.49 95.38 L78.84 94.67 L78.16 93.96 L77.44 93.26 L76.68 92.57 L75.89 91.88 L75.07 91.21 L74.23 90.53 L73.36 89.85 L72.47 89.17 L71.57 88.50 L70.65 87.82 L69.71 87.15 L68.76 86.47 L67.80 85.80 L66.83 85.13 L65.85 84.46 L64.86 83.79 L63.88 83.12 L62.89 82.46 L61.91 81.80 L60.92 81.14 L59.95 80.48 L58.98 79.82 L58.01 79.17 L57.07 78.51 L56.13 77.86 L55.21 77.21 L54.31 76.57 L53.42 75.92 L52.56 75.27 L51.72 74.63 L50.91 73.98 L50.12 73.34 L49.36 72.69 L48.63 72.05 L47.92 71.40 Z"/>
  <path d="M9.30 104.93 L10.88 104.68 L12.45 104.44 L14.03 104.19 L15.61 103.95 L17.19 103.70 L18.76 103.46 L20.34 103.21 L21.92 102.96 L23.50 102.72 L25.07 102.47 L26.65 102.22 L28.23 101.97 L29.81 101.73 L31.38 101.48 L32.96 101.23 L34.54 100.98 L36.11 100.73 L37.69 100.48 L39.27 100.23 L40.85 99.98 L42.42 99.73 L44.00 99.48 L45.58 99.23 L47.15 98.98 L48.73 98.73 L50.31 98.48 L51.88 98.22 L53.46 97.97 L55.04 97.72 L56.61 97.47 L58.19 97.22 L59.77 96.96 L61.34 96.71 L62.92 96.46 L64.49 96.20 L66.07 95.95 L67.65 95.69 L69.22 95.44 L70.80 95.18 L72.38 94.93 L73.95 94.67 L75.53 94.42 L77.10 94.16 L78.68 93.91 L78.58 92.89 L78.91 93.39 L79.22 93.90 L79.53 94.42 L79.83 94.94 L80.12 95.47 L80.40 96.01 L80.68 96.55 L80.94 97.09 L81.20 97.64 L81.45 98.20 L81.69 98.75 L81.92 99.32 L82.14 99.89 L82.35 100.46 L82.56 101.04 L82.75 101.62 L82.94 102.21 L83.11 102.80 L83.28 103.39 L83.43 103.99 L83.58 104.59 L83.72 105.19 L83.85 105.80 L83.96 106.41 L84.07 107.03 L84.17 107.65 L84.26 108.27 L84.34 108.89 L84.40 109.52 L84.46 110.14 L84.51 110.78 L84.54 111.41 L84.57 112.05 L84.58 112.68 L84.59 113.32 L84.58 113.97 L84.56 114.61 L84.53 115.25 L84.49 115.90 L84.44 116.55 L84.38 117.20 L84.31 117.85 L84.22 118.50 L84.13 119.15 L84.02 119.80 L84.01 120.12 L84.09 120.42 L84.26 120.68 L84.51 120.87 L84.80 120.98 L85.12 120.99 L85.42 120.91 L85.68 120.74 L85.87 120.49 L85.98 120.20 L86.13 119.52 L86.26 118.83 L86.39 118.15 L86.50 117.47 L86.60 116.79 L86.68 116.11 L86.76 115.43 L86.82 114.75 L86.88 114.07 L86.92 113.39 L86.95 112.71 L86.96 112.03 L86.97 111.35 L86.96 110.68 L86.95 110.00 L86.92 109.33 L86.88 108.66 L86.83 107.99 L86.77 107.32 L86.70 106.66 L86.61 105.99 L86.52 105.33 L86.41 104.67 L86.30 104.02 L86.17 103.37 L86.03 102.72 L85.88 102.07 L85.72 101.42 L85.55 100.78 L85.37 100.15 L85.18 99.51 L84.98 98.88 L84.76 98.26 L84.54 97.64 L84.31 97.02 L84.06 96.41 L83.81 95.80 L83.55 95.20 L83.27 94.60 L82.99 94.00 L82.69 93.41 L82.39 92.83 L82.08 92.25 L81.75 91.68 L81.42 91.11 L78.16 90.58 L76.58 90.81 L75.01 91.05 L73.43 91.28 L71.85 91.51 L70.27 91.75 L68.69 91.98 L67.11 92.22 L65.53 92.45 L63.95 92.69 L62.37 92.92 L60.79 93.16 L59.21 93.39 L57.63 93.63 L56.05 93.87 L54.48 94.10 L52.90 94.34 L51.32 94.58 L49.74 94.81 L48.16 95.05 L46.58 95.29 L45.00 95.53 L43.42 95.76 L41.84 96.00 L40.27 96.24 L38.69 96.48 L37.11 96.72 L35.53 96.96 L33.95 97.20 L32.37 97.44 L30.79 97.68 L29.22 97.92 L27.64 98.16 L26.06 98.40 L24.48 98.64 L22.90 98.88 L21.33 99.13 L19.75 99.37 L18.17 99.61 L16.59 99.85 L15.01 100.10 L13.43 100.34 L11.86 100.58 L10.28 100.83 L8.70 101.07 L8.12 101.26 L7.63 101.62 L7.27 102.11 L7.08 102.69 L7.07 103.30 L7.26 103.88 L7.62 104.37 L8.11 104.73 L8.69 104.92 Z"/>
</svg>
