<svg xmlns="http://www.w3.org/2000/svg" viewBox="0 0 96 140" fill="#433D37" fill-rule="evenodd">
  <path d="M48.96 69.04 L48.28 68.38 L47.58 67.72 L46.84 67.06 L46.08 66.40 L45.29 65.75 L44.48 65.09 L43.64 64.43 L42.78 63.76 L41.91 63.10 L41.01 62.43 L40.10 61.76 L39.17 61.09 L38.23 60.42 L37.28 59.74 L36.32 59.06 L35.35 58.38 L34.38 57.70 L33.41 57.02 L32.44 56.33 L31.46 55.64 L30.50 54.96 L29.53 54.27 L28.58 53.58 L27.63 52.89 L26.70 52.20 L25.78 51.52 L24.88 50.83 L23.99 50.15 L23.12 49.47 L22.28 48.79 L21.45 48.12 L20.65 47.44 L19.88 46.76 L19.15 46.08 L18.45 45.39 L17.79 44.70 L17.17 44.01 L16.60 43.31 L16.06 42.61 L15.56 41.91 L15.11 41.21 L14.70 40.51 L14.34 39.81 L14.01 39.11 L13.73 38.40 L13.49 37.68 L13.29 36.96 L13.15 36.36 L13.05 35.64 L12.95 34.93 L12.87 34.23 L12.81 33.55 L12.76 32.88 L12.72 32.23 L12.69 31.59 L12.68 30.96 L12.68 30.34 L12.69 29.74 L12.72 29.15 L12.76 28.58 L12.82 28.01 L12.89 27.46 L12.97 26.92 L13.07 26.39 L13.18 25.88 L13.31 25.37 L13.45 24.88 L13.60 24.40 L13.78 23.93 L13.96 23.47 L14.16 23.03 L14.38 22.59 L14.61 22.17 L14.86 21.75 L15.13 21.35 L15.41 20.96 L15.71 20.57 L16.02 20.20 L16.35 19.84 L16.70 19.49 L17.07 19.15 L17.45 18.81 L17.85 18.49 L18.27 18.18 L18.71 17.88 L19.17 17.59 L19.65 17.31 L20.14 17.04 L20.66 16.78 L21.19 16.54 L21.75 16.30 L22.32 16.08 L22.92 15.86 L23.53 15.67 L24.17 15.48 L24.28 15.39 L25.27 15.31 L26.26 15.23 L27.25 15.16 L28.24 15.09 L29.22 15.02 L30.21 14.96 L31.20 14.90 L32.19 14.84 L33.18 14.79 L34.17 14.74 L35.15 14.69 L36.14 14.65 L37.13 14.61 L38.12 14.57 L39.11 14.54 L40.09 14.51 L41.08 14.48 L42.07 14.46 L43.06 14.44 L44.05 14.43 L45.04 14.42 L46.02 14.41 L47.01 14.40 L48.00 14.40 L48.99 14.40 L49.98 14.41 L50.96 14.42 L51.95 14.43 L52.94 14.44 L53.93 14.46 L54.92 14.48 L55.91 14.51 L56.89 14.54 L57.88 14.57 L58.87 14.61 L59.86 14.65 L60.85 14.69 L61.83 14.74 L62.82 14.79 L63.81 14.84 L64.80 14.90 L65.79 14.96 L66.78 15.02 L67.76 15.09 L68.75 15.16 L69.74 15.23 L70.73 15.31 L71.17 15.30 L71.83 15.48 L72.47 15.67 L73.08 15.86 L73.68 16.08 L74.25 16.30 L74.81 16.54 L75.34 16.78 L75.86 17.04 L76.35 17.31 L76.83 17.59 L77.29 17.88 L77.73 18.18 L78.15 18.49 L78.55 18.81 L78.93 19.15 L79.30 19.49 L79.65 19.84 L79.98 20.20 L80.29 20.57 L80.59 20.96 L80.87 21.35 L81.14 21.75 L81.39 22.17 L81.62 22.59 L81.84 23.03 L82.04 23.47 L82.22 23.93 L82.40 24.40 L82.55 24.88 L82.69 25.37 L82.82 25.88 L82.93 26.39 L83.03 26.92 L83.11 27.46 L83.18 28.01 L83.24 28.58 L83.28 29.15 L83.31 29.74 L83.32 30.34 L83.32 30.96 L83.31 31.59 L83.28 32.23 L83.24 32.88 L83.19 33.55 L83.13 34.23 L83.05 34.93 L82.95 35.64 L82.87 36.23 L82.71 36.96 L82.51 37.68 L82.27 38.40 L81.99 39.11 L81.66 39.81 L81.30 40.51 L80.89 41.21 L80.44 41.91 L79.94 42.61 L79.40 43.31 L78.83 44.01 L78.21 44.70 L77.55 45.39 L76.85 46.08 L76.12 46.76 L75.35 47.44 L74.55 48.12 L73.72 48.79 L72.88 49.47 L72.01 50.15 L71.12 50.83 L70.22 51.52 L69.30 52.20 L68.37 52.89 L67.42 53.58 L66.47 54.27 L65.50 54.96 L64.54 55.64 L63.56 56.33 L62.59 57.02 L61.62 57.70 L60.65 58.38 L59.68 59.06 L58.72 59.74 L57.77 60.42 L56.83 61.09 L55.90 61.76 L54.99 62.43 L54.09 63.10 L53.22 63.76 L52.36 64.43 L51.52 65.09 L50.71 65.75 L49.92 66.40 L49.16 67.06 L48.42 67.72 L47.72 68.38 Z M47.04 70.96 L46.43 70.38 L45.76 69.81 L45.05 69.25 L44.30 68.71 L43.51 68.17 L42.67 67.65 L41.81 67.13 L40.91 66.63 L39.98 66.13 L39.03 65.63 L38.05 65.14 L37.05 64.66 L36.03 64.18 L34.99 63.70 L33.94 63.21 L32.87 62.73 L31.79 62.24 L30.70 61.75 L29.61 61.25 L28.51 60.74 L27.41 60.23 L26.31 59.70 L25.21 59.16 L24.12 58.61 L23.03 58.04 L21.95 57.45 L20.88 56.84 L19.82 56.21 L18.78 55.56 L17.77 54.88 L16.77 54.18 L15.79 53.45 L14.84 52.69 L13.90 51.92 L12.99 51.12 L12.11 50.30 L11.26 49.44 L10.44 48.56 L9.65 47.65 L8.91 46.70 L8.21 45.71 L7.55 44.69 L6.95 43.63 L6.40 42.53 L5.92 41.40 L5.50 40.22 L5.15 39.01 L4.85 37.64 L4.72 36.75 L4.62 35.86 L4.54 34.99 L4.48 34.12 L4.45 33.26 L4.44 32.40 L4.45 31.56 L4.49 30.73 L4.55 29.90 L4.63 29.09 L4.73 28.28 L4.86 27.49 L5.01 26.70 L5.19 25.93 L5.38 25.17 L5.60 24.42 L5.84 23.69 L6.10 22.96 L6.38 22.25 L6.69 21.56 L7.01 20.87 L7.36 20.20 L7.73 19.55 L8.12 18.91 L8.53 18.28 L8.96 17.67 L9.41 17.08 L9.88 16.50 L10.37 15.94 L10.88 15.40 L11.42 14.87 L11.97 14.36 L12.53 13.87 L13.12 13.40 L13.73 12.94 L14.35 12.51 L14.99 12.09 L15.65 11.69 L16.33 11.30 L17.02 10.94 L17.73 10.60 L18.46 10.27 L19.21 9.96 L19.97 9.67 L20.74 9.40 L21.54 9.15 L22.35 8.91 L23.72 8.61 L24.73 8.52 L25.74 8.45 L26.75 8.37 L27.76 8.30 L28.78 8.23 L29.79 8.17 L30.80 8.11 L31.81 8.05 L32.82 7.99 L33.83 7.94 L34.85 7.90 L35.86 7.85 L36.87 7.81 L37.88 7.78 L38.89 7.74 L39.91 7.71 L40.92 7.69 L41.93 7.66 L42.94 7.64 L43.95 7.63 L44.96 7.62 L45.98 7.61 L46.99 7.60 L48.00 7.60 L49.01 7.60 L50.02 7.61 L51.04 7.62 L52.05 7.63 L53.06 7.64 L54.07 7.66 L55.08 7.69 L56.09 7.71 L57.11 7.74 L58.12 7.78 L59.13 7.81 L60.14 7.85 L61.15 7.90 L62.17 7.94 L63.18 7.99 L64.19 8.05 L65.20 8.11 L66.21 8.17 L67.22 8.23 L68.24 8.30 L69.25 8.37 L70.26 8.45 L71.27 8.52 L72.83 8.70 L73.65 8.91 L74.46 9.15 L75.26 9.40 L76.03 9.67 L76.79 9.96 L77.54 10.27 L78.27 10.60 L78.98 10.94 L79.67 11.30 L80.35 11.69 L81.01 12.09 L81.65 12.51 L82.27 12.94 L82.88 13.40 L83.47 13.87 L84.03 14.36 L84.58 14.87 L85.12 15.40 L85.63 15.94 L86.12 16.50 L86.59 17.08 L87.04 17.67 L87.47 18.28 L87.88 18.91 L88.27 19.55 L88.64 20.20 L88.99 20.87 L89.31 21.56 L89.62 22.25 L89.90 22.96 L90.16 23.69 L90.40 24.42 L90.62 25.17 L90.81 25.93 L90.99 26.70 L91.14 27.49 L91.27 28.28 L91.37 29.09 L91.45 29.90 L91.51 30.73 L91.55 31.56 L91.56 32.40 L91.55 33.26 L91.52 34.12 L91.46 34.99 L91.38 35.86 L91.28 36.75 L91.13 37.77 L90.85 39.01 L90.50 40.22 L90.08 41.40 L89.60 42.53 L89.05 43.63 L88.45 44.69 L87.79 45.71 L87.09 46.70 L86.35 47.65 L85.56 48.56 L84.74 49.44 L83.89 50.30 L83.01 51.12 L82.10 51.92 L81.16 52.69 L80.21 53.45 L79.23 54.18 L78.23 54.88 L77.22 55.56 L76.18 56.21 L75.12 56.84 L74.05 57.45 L72.97 58.04 L71.88 58.61 L70.79 59.16 L69.69 59.70 L68.59 60.23 L67.49 60.74 L66.39 61.25 L65.30 61.75 L64.21 62.24 L63.13 62.73 L62.06 63.21 L61.01 63.70 L59.97 64.18 L58.95 64.66 L57.95 65.14 L56.97 65.63 L56.02 66.13 L55.09 66.63 L54.19 67.13 L53.33 67.65 L52.49 68.17 L51.70 68.71 L50.95 69.25 L50.24 69.81 L49.57 70.38 Z"/>
  <path d="M47.04 69.04 L46.43 69.62 L45.76 70.19 L45.05 70.75 L44.30 71.29 L43.51 71.83 L42.67 72.35 L41.81 72.87 L40.91 73.37 L39.98 73.87 L39.03 74.37 L38.05 74.86 L37.05 75.34 L36.03 75.82 L34.99 76.30 L33.94 76.79 L32.87 77.27 L31.79 77.76 L30.70 78.25 L29.61 78.75 L28.51 79.26 L27.41 79.77 L26.31 80.30 L25.21 80.84 L24.12 81.39 L23.03 81.96 L21.95 82.55 L20.88 83.16 L19.82 83.79 L18.78 84.44 L17.77 85.12 L16.77 85.82 L15.79 86.55 L14.84 87.31 L13.90 88.08 L12.99 88.88 L12.11 89.70 L11.26 90.56 L10.44 91.44 L9.65 92.35 L8.91 93.30 L8.21 94.29 L7.55 95.31 L6.95 96.37 L6.40 97.47 L5.92 98.60 L5.50 99.78 L5.15 100.99 L4.85 102.36 L4.72 103.25 L4.62 104.14 L4.54 105.01 L4.48 105.88 L4.45 106.74 L4.44 107.60 L4.45 108.44 L4.49 109.27 L4.55 110.10 L4.63 110.91 L4.73 111.72 L4.86 112.51 L5.01 113.30 L5.19 114.07 L5.38 114.83 L5.60 115.58 L5.84 116.31 L6.10 117.04 L6.38 117.75 L6.69 118.44 L7.01 119.13 L7.36 119.80 L7.73 120.45 L8.12 121.09 L8.53 121.72 L8.96 122.33 L9.41 122.92 L9.88 123.50 L10.37 124.06 L10.88 124.60 L11.42 125.13 L11.97 125.64 L12.53 126.13 L13.12 126.60 L13.73 127.06 L14.35 127.49 L14.99 127.91 L15.65 128.31 L16.33 128.70 L17.02 129.06 L17.73 129.40 L18.46 129.73 L19.21 130.04 L19.97 130.33 L20.74 130.60 L21.54 130.85 L22.35 131.09 L23.72 131.39 L24.73 131.48 L25.74 131.55 L26.75 131.63 L27.76 131.70 L28.78 131.77 L29.79 131.83 L30.80 131.89 L31.81 131.95 L32.82 132.01 L33.83 132.06 L34.85 132.10 L35.86 132.15 L36.87 132.19 L37.88 132.22 L38.89 132.26 L39.91 132.29 L40.92 132.31 L41.93 132.34 L42.94 132.36 L43.95 132.37 L44.96 132.38 L45.98 132.39 L46.99 132.40 L48.00 132.40 L49.01 132.40 L50.02 132.39 L51.04 132.38 L52.05 132.37 L53.06 132.36 L54.07 132.34 L55.08 132.31 L56.09 132.29 L57.11 132.26 L58.12 132.22 L59.13 132.19 L60.14 132.15 L61.15 132.10 L62.17 132.06 L63.18 132.01 L64.19 131.95 L65.20 131.89 L66.21 131.83 L67.22 131.77 L68.24 131.70 L69.25 131.63 L70.26 131.55 L71.27 131.48 L72.83 131.30 L73.65 131.09 L74.46 130.85 L75.26 130.60 L76.03 130.33 L76.79 130.04 L77.54 129.73 L78.27 129.40 L78.98 129.06 L79.67 128.70 L80.35 128.31 L81.01 127.91 L81.65 127.49 L82.27 127.06 L82.88 126.60 L83.47 126.13 L84.03 125.64 L84.58 125.13 L85.12 124.60 L85.63 124.06 L86.12 123.50 L86.59 122.92 L87.04 122.33 L87.47 121.72 L87.88 121.09 L88.27 120.45 L88.64 119.80 L88.99 119.13 L89.31 118.44 L89.62 117.75 L89.90 117.04 L90.16 116.31 L90.40 115.58 L90.62 114.83 L90.81 114.07 L90.99 113.30 L91.14 112.51 L91.27 111.72 L91.37 110.91 L91.45 110.10 L91.51 109.27 L91.55 108.44 L91.56 107.60 L91.55 106.74 L91.52 105.88 L91.46 105.01 L91.38 104.14 L91.28 103.25 L91.13 102.23 L90.85 100.99 L90.50 99.78 L90.08 98.60 L89.60 97.47 L89.05 96.37 L88.45 95.31 L87.79 94.29 L87.09 93.30 L86.35 92.35 L85.56 91.44 L84.74 90.56 L83.89 89.70 L83.01 88.88 L82.10 88.08 L81.16 87.31 L80.21 86.55 L79.23 85.82 L78.23 85.12 L77.22 84.44 L76.18 83.79 L75.12 83.16 L74.05 82.55 L72.97 81.96 L71.88 81.39 L70.79 80.84 L69.69 80.30 L68.59 79.77 L67.49 79.26 L66.39 78.75 L65.30 78.25 L64.21 77.76 L63.13 77.27 L62.06 76.79 L61.01 76.30 L59.97 75.82 L58.95 75.34 L57.95 74.86 L56.97 74.37 L56.02 73.87 L55.09 73.37 L54.19 72.87 L53.33 72.35 L52.49 71.83 L51.70 71.29 L50.95 70.75 L50.24 70.19 L49.57 69.62 Z M48.96 70.96 L48.28 71.62 L47.58 72.28 L46.84 72.94 L46.08 73.60 L45.29 74.25 L44.48 74.91 L43.64 75.57 L42.78 76.24 L41.91 76.90 L41.01 77.57 L40.10 78.24 L39.17 78.91 L38.23 79.58 L37.28 80.26 L36.32 80.94 L35.35 81.62 L34.38 82.30 L33.41 82.98 L32.44 83.67 L31.46 84.36 L30.50 85.04 L29.53 85.73 L28.58 86.42 L27.63 87.11 L26.70 87.80 L25.78 88.48 L24.88 89.17 L23.99 89.85 L23.12 90.53 L22.28 91.21 L21.45 91.88 L20.65 92.56 L19.88 93.24 L19.15 93.92 L18.45 94.61 L17.79 95.30 L17.17 95.99 L16.60 96.69 L16.06 97.39 L15.56 98.09 L15.11 98.79 L14.70 99.49 L14.34 100.19 L14.01 100.89 L13.73 101.60 L13.49 102.32 L13.29 103.04 L13.15 103.64 L13.05 104.36 L12.95 105.07 L12.87 105.77 L12.81 106.45 L12.76 107.12 L12.72 107.77 L12.69 108.41 L12.68 109.04 L12.68 109.66 L12.69 110.26 L12.72 110.85 L12.76 111.42 L12.82 111.99 L12.89 112.54 L12.97 113.08 L13.07 113.61 L13.18 114.12 L13.31 114.63 L13.45 115.12 L13.60 115.60 L13.78 116.07 L13.96 116.53 L14.16 116.97 L14.38 117.41 L14.61 117.83 L14.86 118.25 L15.13 118.65 L15.41 119.04 L15.71 119.43 L16.02 119.80 L16.35 120.16 L16.70 120.51 L17.07 120.85 L17.45 121.19 L17.85 121.51 L18.27 121.82 L18.71 122.12 L19.17 122.41 L19.65 122.69 L20.14 122.96 L20.66 123.22 L21.19 123.46 L21.75 123.70 L22.32 123.92 L22.92 124.14 L23.53 124.33 L24.17 124.52 L24.28 124.61 L25.27 124.69 L26.26 124.77 L27.25 124.84 L28.24 124.91 L29.22 124.98 L30.21 125.04 L31.20 125.10 L32.19 125.16 L33.18 125.21 L34.17 125.26 L35.15 125.31 L36.14 125.35 L37.13 125.39 L38.12 125.43 L39.11 125.46 L40.09 125.49 L41.08 125.52 L42.07 125.54 L43.06 125.56 L44.05 125.57 L45.04 125.58 L46.02 125.59 L47.01 125.60 L48.00 125.60 L48.99 125.60 L49.98 125.59 L50.96 125.58 L51.95 125.57 L52.94 125.56 L53.93 125.54 L54.92 125.52 L55.91 125.49 L56.89 125.46 L57.88 125.43 L58.87 125.39 L59.86 125.35 L60.85 125.31 L61.83 125.26 L62.82 125.21 L63.81 125.16 L64.80 125.10 L65.79 125.04 L66.78 124.98 L67.76 124.91 L68.75 124.84 L69.74 124.77 L70.73 124.69 L71.17 124.70 L71.83 124.52 L72.47 124.33 L73.08 124.14 L73.68 123.92 L74.25 123.70 L74.81 123.46 L75.34 123.22 L75.86 122.96 L76.35 122.69 L76.83 122.41 L77.29 122.12 L77.73 121.82 L78.15 121.51 L78.55 121.19 L78.93 120.85 L79.30 120.51 L79.65 120.16 L79.98 119.80 L80.29 119.43 L80.59 119.04 L80.87 118.65 L81.14 118.25 L81.39 117.83 L81.62 117.41 L81.84 116.97 L82.04 116.53 L82.22 116.07 L82.40 115.60 L82.55 115.12 L82.69 114.63 L82.82 114.12 L82.93 113.61 L83.03 113.08 L83.11 112.54 L83.18 111.99 L83.24 111.42 L83.28 110.85 L83.31 110.26 L83.32 109.66 L83.32 109.04 L83.31 108.41 L83.28 107.77 L83.24 107.12 L83.19 106.45 L83.13 105.77 L83.05 105.07 L82.95 104.36 L82.87 103.77 L82.71 103.04 L82.51 102.32 L82.27 101.60 L81.99 100.89 L81.66 100.19 L81.30 99.49 L80.89 98.79 L80.44 98.09 L79.94 97.39 L79.40 96.69 L78.83 95.99 L78.21 95.30 L77.55 94.61 L76.85 93.92 L76.12 93.24 L75.35 92.56 L74.55 91.88 L73.72 91.21 L72.88 90.53 L72.01 89.85 L71.12 89.17 L70.22 88.48 L69.30 87.80 L68.37 87.11 L67.42 86.42 L66.47 85.73 L65.50 85.04 L64.54 84.36 L63.56 83.67 L62.59 82.98 L61.62 82.30 L60.65 81.62 L59.68 80.94 L58.72 80.26 L57.77 79.58 L56.83 78.91 L55.90 78.24 L54.99 77.57 L54.09 76.90 L53.22 76.24 L52.36 75.57 L51.52 74.91 L50.71 74.25 L49.92 73.60 L49.16 72.94 L48.42 72.28 L47.72 71.62 Z"/>
  <path d="M11.36 104.47 L12.89 104.25 L14.43 104.03 L15.96 103.81 L17.49 103.58 L19.02 103.36 L20.56 103.13 L22.09 102.91 L23.62 102.68 L25.16 102.46 L26.69 102.23 L28.22 102.01 L29.75 101.78 L31.29 101.55 L32.82 101.33 L34.35 101.10 L35.89 100.87 L37.42 100.64 L38.95 100.42 L40.48 100.19 L42.01 99.96 L43.55 99.73 L45.08 99.50 L46.61 99.27 L48.14 99.04 L49.68 98.81 L51.21 98.58 L52.74 98.34 L54.27 98.11 L55.80 97.88 L57.34 97.65 L58.87 97.42 L60.40 97.18 L61.93 96.95 L63.46 96.72 L64.99 96.48 L66.53 96.25 L68.06 96.01 L69.59 95.78 L71.12 95.54 L72.65 95.31 L74.18 95.07 L75.71 94.84 L77.25 94.60 L78.78 94.36 L78.35 93.38 L78.66 93.74 L78.97 94.10 L79.26 94.47 L79.55 94.85 L79.83 95.23 L80.10 95.61 L80.37 96.00 L80.62 96.40 L80.87 96.80 L81.11 97.20 L81.34 97.61 L81.55 98.02 L81.76 98.44 L81.96 98.86 L82.16 99.28 L82.34 99.71 L82.51 100.15 L82.67 100.58 L82.82 101.02 L82.97 101.47 L83.10 101.92 L83.22 102.37 L83.33 102.82 L83.43 103.28 L83.52 103.74 L83.60 104.21 L83.66 104.68 L83.72 105.15 L83.76 105.62 L83.80 106.10 L83.82 106.58 L83.83 107.06 L83.82 107.54 L83.81 108.03 L83.78 108.52 L83.74 109.01 L83.69 109.51 L83.62 110.01 L83.54 110.51 L83.45 111.01 L83.35 111.51 L83.23 112.02 L83.09 112.52 L82.94 113.03 L82.78 113.54 L82.70 113.94 L82.75 114.35 L82.92 114.72 L83.19 115.02 L83.54 115.22 L83.94 115.30 L84.35 115.25 L84.72 115.08 L85.02 114.81 L85.22 114.46 L85.44 113.90 L85.65 113.34 L85.84 112.78 L86.02 112.22 L86.18 111.66 L86.33 111.10 L86.47 110.54 L86.59 109.98 L86.69 109.42 L86.78 108.85 L86.86 108.29 L86.92 107.73 L86.97 107.17 L87.00 106.61 L87.02 106.05 L87.02 105.49 L87.01 104.94 L86.99 104.38 L86.96 103.83 L86.91 103.28 L86.84 102.73 L86.77 102.18 L86.68 101.63 L86.58 101.09 L86.46 100.55 L86.33 100.01 L86.19 99.48 L86.04 98.95 L85.87 98.42 L85.70 97.90 L85.51 97.38 L85.30 96.87 L85.09 96.36 L84.86 95.85 L84.63 95.35 L84.38 94.85 L84.12 94.36 L83.85 93.87 L83.57 93.39 L83.27 92.92 L82.97 92.45 L82.65 91.98 L82.33 91.52 L82.00 91.07 L81.65 90.62 L78.16 90.08 L76.62 90.29 L75.09 90.50 L73.55 90.71 L72.02 90.91 L70.48 91.12 L68.94 91.33 L67.41 91.54 L65.87 91.75 L64.34 91.96 L62.80 92.17 L61.27 92.38 L59.73 92.60 L58.20 92.81 L56.66 93.02 L55.13 93.23 L53.59 93.44 L52.06 93.66 L50.53 93.87 L48.99 94.08 L47.46 94.30 L45.92 94.51 L44.39 94.72 L42.85 94.94 L41.32 95.15 L39.78 95.37 L38.25 95.58 L36.72 95.80 L35.18 96.02 L33.65 96.23 L32.11 96.45 L30.58 96.67 L29.05 96.89 L27.51 97.10 L25.98 97.32 L24.44 97.54 L22.91 97.76 L21.38 97.98 L19.84 98.20 L18.31 98.42 L16.78 98.64 L15.24 98.86 L13.71 99.08 L12.17 99.30 L10.64 99.53 L9.89 99.76 L9.26 100.21 L8.79 100.84 L8.54 101.58 L8.53 102.36 L8.76 103.11 L9.21 103.74 L9.84 104.21 L10.58 104.46 Z"/>
</svg>
