<svg xmlns="http://www.w3.org/2000/svg" viewBox="0 0 96 140" fill="#2A2521" fill-rule="evenodd">
  <path d="M77.78 50.44 L77.19 50.91 L76.59 51.38 L75.98 51.84 L75.36 52.29 L74.73 52.74 L74.09 53.18 L73.45 53.62 L72.79 54.05 L72.14 54.48 L71.47 54.91 L70.80 55.33 L70.12 55.75 L69.45 56.16 L68.76 56.58 L68.08 56.99 L67.39 57.39 L66.70 57.79 L66.01 58.19 L65.32 58.59 L64.63 58.99 L63.94 59.38 L63.26 59.78 L62.57 60.17 L61.89 60.56 L61.21 60.94 L60.54 61.33 L59.87 61.72 L59.20 62.10 L58.54 62.49 L57.89 62.88 L57.25 63.26 L56.61 63.65 L55.98 64.03 L55.36 64.42 L54.75 64.81 L54.15 65.19 L53.56 65.58 L52.99 65.97 L52.42 66.37 L51.87 66.76 L51.33 67.16 L50.81 67.56 L50.30 67.96 L49.81 68.36 L49.33 68.76 L48.87 69.17 L48.43 69.59 L48.00 70.00 L47.57 69.59 L47.13 69.17 L46.67 68.76 L46.19 68.36 L45.70 67.96 L45.19 67.56 L44.67 67.16 L44.13 66.76 L43.58 66.37 L43.01 65.97 L42.44 65.58 L41.85 65.19 L41.25 64.81 L40.64 64.42 L40.02 64.03 L39.39 63.65 L38.75 63.26 L38.11 62.88 L37.46 62.49 L36.80 62.10 L36.13 61.72 L35.46 61.33 L34.79 60.94 L34.11 60.56 L33.43 60.17 L32.74 59.78 L32.06 59.38 L31.37 58.99 L30.68 58.59 L29.99 58.19 L29.30 57.79 L28.61 57.39 L27.92 56.99 L27.24 56.58 L26.55 56.16 L25.88 55.75 L25.20 55.33 L24.53 54.91 L23.86 54.48 L23.21 54.05 L22.55 53.62 L21.91 53.18 L21.27 52.74 L20.64 52.29 L20.02 51.84 L19.41 51.38 L18.81 50.91 L18.22 50.44 Z" fill="#C3B4AC"/>
  <path d="M9.00 103.00 L12.55 102.45 L16.10 101.90 L19.65 101.35 L23.20 100.80 L26.75 100.25 L30.30 99.70 L33.85 99.15 L37.40 98.60 L40.95 98.05 L44.50 97.50 L48.05 96.95 L51.60 96.40 L55.15 95.85 L58.70 95.30 L62.25 94.75 L65.80 94.20 L69.35 93.65 L72.90 93.10 L76.45 92.55 L80.00 92.00 L80.73 93.21 L81.41 94.46 L82.04 95.73 L82.63 97.02 L83.17 98.34 L83.66 99.69 L84.10 101.05 L84.50 102.43 L84.84 103.83 L85.12 105.25 L85.36 106.68 L85.54 108.13 L85.67 109.59 L85.75 111.05 L85.77 112.53 L85.73 114.02 L85.63 115.51 L85.48 117.00 L85.27 118.50 L85.00 120.00 L84.43 119.77 L84.09 120.29 L83.73 120.78 L83.35 121.27 L82.96 121.74 L82.55 122.20 L82.12 122.64 L81.67 123.07 L81.20 123.49 L80.71 123.89 L80.21 124.28 L79.69 124.66 L79.15 125.02 L78.59 125.36 L78.01 125.69 L77.42 126.01 L76.80 126.31 L76.17 126.60 L75.52 126.87 L74.85 127.13 L74.17 127.37 L73.46 127.59 L72.74 127.80 L72.00 128.00 L71.00 128.08 L70.00 128.16 L69.00 128.23 L68.00 128.31 L67.00 128.37 L66.00 128.44 L65.00 128.50 L64.00 128.56 L63.00 128.61 L62.00 128.66 L61.00 128.71 L60.00 128.75 L59.00 128.79 L58.00 128.83 L57.00 128.86 L56.00 128.89 L55.00 128.91 L54.00 128.94 L53.00 128.96 L52.00 128.97 L51.00 128.98 L50.00 128.99 L49.00 129.00 L48.00 129.00 L47.00 129.00 L46.00 128.99 L45.00 128.98 L44.00 128.97 L43.00 128.96 L42.00 128.94 L41.00 128.91 L40.00 128.89 L39.00 128.86 L38.00 128.83 L37.00 128.79 L36.00 128.75 L35.00 128.71 L34.00 128.66 L33.00 128.61 L32.00 128.56 L31.00 128.50 L30.00 128.44 L29.00 128.37 L28.00 128.31 L27.00 128.23 L26.00 128.16 L25.00 128.08 L24.00 128.00 L23.26 127.80 L22.54 127.59 L21.83 127.37 L21.15 127.13 L20.48 126.87 L19.83 126.60 L19.20 126.31 L18.58 126.01 L17.99 125.69 L17.41 125.36 L16.85 125.02 L16.31 124.66 L15.79 124.28 L15.29 123.89 L14.80 123.49 L14.33 123.07 L13.88 122.64 L13.45 122.20 L13.04 121.74 L12.65 121.27 L12.27 120.78 L11.91 120.29 L11.57 119.77 L11.25 119.25 L10.95 118.71 L10.66 118.16 L10.39 117.60 L10.15 117.02 L9.92 116.43 L9.70 115.83 L9.51 115.22 L9.33 114.59 L9.18 113.95 L9.04 113.30 L8.92 112.64 L8.81 111.97 L8.73 111.28 L8.66 110.59 L8.61 109.88 L8.58 109.16 L8.57 108.43 L8.58 107.68 L8.60 106.93 L8.65 106.17 L8.71 105.39 L8.79 104.60 L8.88 103.81 L9.00 103.00 Z" fill="#C3B4AC"/>
  <path d="M49.45 68.55 L48.76 67.87 L48.03 67.20 L47.27 66.53 L46.49 65.87 L45.69 65.21 L44.85 64.55 L44.00 63.90 L43.12 63.24 L42.23 62.59 L41.32 61.94 L40.39 61.28 L39.45 60.63 L38.49 59.97 L37.53 59.31 L36.55 58.66 L35.57 58.00 L34.59 57.34 L33.60 56.67 L32.62 56.01 L31.64 55.35 L30.66 54.68 L29.68 54.01 L28.72 53.35 L27.77 52.68 L26.82 52.01 L25.90 51.34 L24.99 50.67 L24.09 50.00 L23.22 49.33 L22.37 48.67 L21.54 48.00 L20.74 47.34 L19.97 46.67 L19.23 45.99 L18.53 45.31 L17.87 44.63 L17.25 43.94 L16.66 43.25 L16.12 42.56 L15.62 41.87 L15.17 41.18 L14.76 40.48 L14.39 39.78 L14.06 39.08 L13.78 38.38 L13.54 37.67 L13.34 36.95 L13.20 36.35 L13.10 35.63 L13.01 34.92 L12.93 34.23 L12.87 33.55 L12.82 32.88 L12.78 32.23 L12.76 31.59 L12.75 30.96 L12.76 30.35 L12.78 29.75 L12.82 29.16 L12.86 28.59 L12.93 28.03 L13.00 27.48 L13.09 26.95 L13.20 26.43 L13.32 25.92 L13.45 25.42 L13.60 24.94 L13.76 24.46 L13.93 24.00 L14.12 23.55 L14.33 23.12 L14.55 22.69 L14.78 22.27 L15.03 21.87 L15.29 21.47 L15.57 21.09 L15.87 20.72 L16.18 20.35 L16.51 20.00 L16.86 19.66 L17.22 19.32 L17.60 19.00 L17.99 18.68 L18.41 18.38 L18.84 18.08 L19.29 17.80 L19.76 17.52 L20.25 17.26 L20.76 17.00 L21.29 16.76 L21.84 16.53 L22.41 16.31 L23.00 16.10 L23.61 15.90 L24.24 15.72 L24.30 15.64 L25.29 15.56 L26.28 15.48 L27.27 15.41 L28.25 15.34 L29.24 15.27 L30.23 15.21 L31.22 15.15 L32.20 15.09 L33.19 15.04 L34.18 14.99 L35.16 14.94 L36.15 14.90 L37.14 14.86 L38.13 14.82 L39.11 14.79 L40.10 14.76 L41.09 14.73 L42.08 14.71 L43.06 14.69 L44.05 14.68 L45.04 14.67 L46.03 14.66 L47.01 14.65 L48.00 14.65 L48.99 14.65 L49.97 14.66 L50.96 14.67 L51.95 14.68 L52.94 14.69 L53.92 14.71 L54.91 14.73 L55.90 14.76 L56.89 14.79 L57.87 14.82 L58.86 14.86 L59.85 14.90 L60.84 14.94 L61.82 14.99 L62.81 15.04 L63.80 15.09 L64.78 15.15 L65.77 15.21 L66.76 15.27 L67.75 15.34 L68.73 15.41 L69.72 15.48 L70.71 15.56 L71.11 15.55 L71.76 15.72 L72.39 15.90 L73.00 16.10 L73.59 16.31 L74.16 16.53 L74.71 16.76 L75.24 17.00 L75.75 17.26 L76.24 17.52 L76.71 17.80 L77.16 18.08 L77.59 18.38 L78.01 18.68 L78.40 19.00 L78.78 19.32 L79.14 19.66 L79.49 20.00 L79.82 20.35 L80.13 20.72 L80.43 21.09 L80.71 21.47 L80.97 21.87 L81.22 22.27 L81.45 22.69 L81.67 23.12 L81.88 23.55 L82.07 24.00 L82.24 24.46 L82.40 24.94 L82.55 25.42 L82.68 25.92 L82.80 26.43 L82.91 26.95 L83.00 27.48 L83.07 28.03 L83.14 28.59 L83.18 29.16 L83.22 29.75 L83.24 30.35 L83.25 30.96 L83.24 31.59 L83.22 32.23 L83.18 32.88 L83.13 33.55 L83.07 34.23 L82.99 34.92 L82.90 35.63 L82.82 36.22 L82.66 36.95 L82.46 37.67 L82.22 38.38 L81.94 39.08 L81.61 39.78 L81.24 40.48 L80.83 41.18 L80.38 41.87 L79.88 42.56 L79.34 43.25 L78.75 43.94 L78.13 44.63 L77.47 45.31 L76.77 45.99 L76.03 46.67 L75.26 47.34 L74.46 48.00 L73.63 48.67 L72.78 49.33 L71.91 50.00 L71.01 50.67 L70.10 51.34 L69.18 52.01 L68.23 52.68 L67.28 53.35 L66.32 54.01 L65.34 54.68 L64.36 55.35 L63.38 56.01 L62.40 56.67 L61.41 57.34 L60.43 58.00 L59.45 58.66 L58.47 59.31 L57.51 59.97 L56.55 60.63 L55.61 61.28 L54.68 61.94 L53.77 62.59 L52.88 63.24 L52.00 63.90 L51.15 64.55 L50.31 65.21 L49.51 65.87 L48.73 66.53 L47.97 67.20 L47.24 67.87 Z" fill="none" stroke="#FFFFFF" stroke-width="3.4" stroke-linejoin="round" stroke-linecap="round"/>
  <path d="M46.55 68.55 L45.95 69.11 L45.31 69.67 L44.62 70.22 L43.89 70.76 L43.11 71.29 L42.30 71.82 L41.45 72.34 L40.57 72.86 L39.66 73.37 L38.72 73.87 L37.76 74.38 L36.77 74.88 L35.77 75.38 L34.74 75.88 L33.70 76.38 L32.65 76.89 L31.58 77.39 L30.51 77.91 L29.43 78.43 L28.34 78.96 L27.25 79.49 L26.16 80.04 L25.07 80.60 L23.98 81.18 L22.90 81.77 L21.83 82.37 L20.77 83.00 L19.72 83.64 L18.69 84.31 L17.67 85.00 L16.68 85.71 L15.71 86.45 L14.75 87.21 L13.82 87.99 L12.92 88.80 L12.04 89.63 L11.19 90.49 L10.37 91.38 L9.59 92.30 L8.85 93.26 L8.15 94.25 L7.50 95.28 L6.89 96.34 L6.35 97.44 L5.87 98.58 L5.45 99.76 L5.10 100.97 L4.80 102.35 L4.67 103.25 L4.57 104.13 L4.49 105.01 L4.43 105.88 L4.39 106.74 L4.37 107.60 L4.38 108.44 L4.41 109.28 L4.47 110.10 L4.54 110.92 L4.64 111.73 L4.76 112.53 L4.90 113.32 L5.07 114.09 L5.26 114.86 L5.47 115.61 L5.70 116.35 L5.96 117.08 L6.24 117.80 L6.53 118.51 L6.86 119.20 L7.20 119.88 L7.57 120.54 L7.95 121.19 L8.36 121.82 L8.79 122.44 L9.24 123.04 L9.72 123.63 L10.21 124.20 L10.72 124.75 L11.26 125.29 L11.81 125.80 L12.38 126.30 L12.98 126.78 L13.59 127.25 L14.22 127.69 L14.86 128.11 L15.53 128.52 L16.21 128.91 L16.91 129.28 L17.63 129.63 L18.36 129.96 L19.11 130.27 L19.88 130.56 L20.67 130.83 L21.47 131.09 L22.28 131.33 L23.70 131.64 L24.71 131.72 L25.72 131.80 L26.73 131.88 L27.75 131.95 L28.76 132.02 L29.77 132.08 L30.78 132.14 L31.80 132.20 L32.81 132.26 L33.82 132.31 L34.84 132.35 L35.85 132.40 L36.86 132.44 L37.87 132.47 L38.89 132.51 L39.90 132.54 L40.91 132.56 L41.92 132.59 L42.94 132.61 L43.95 132.62 L44.96 132.63 L45.97 132.64 L46.99 132.65 L48.00 132.65 L49.01 132.65 L50.03 132.64 L51.04 132.63 L52.05 132.62 L53.06 132.61 L54.08 132.59 L55.09 132.56 L56.10 132.54 L57.11 132.51 L58.13 132.47 L59.14 132.44 L60.15 132.40 L61.16 132.35 L62.18 132.31 L63.19 132.26 L64.20 132.20 L65.22 132.14 L66.23 132.08 L67.24 132.02 L68.25 131.95 L69.27 131.88 L70.28 131.80 L71.29 131.72 L72.89 131.55 L73.72 131.33 L74.53 131.09 L75.33 130.83 L76.12 130.56 L76.89 130.27 L77.64 129.96 L78.37 129.63 L79.09 129.28 L79.79 128.91 L80.47 128.52 L81.14 128.11 L81.78 127.69 L82.41 127.25 L83.02 126.78 L83.62 126.30 L84.19 125.80 L84.74 125.29 L85.28 124.75 L85.79 124.20 L86.28 123.63 L86.76 123.04 L87.21 122.44 L87.64 121.82 L88.05 121.19 L88.43 120.54 L88.80 119.88 L89.14 119.20 L89.47 118.51 L89.76 117.80 L90.04 117.08 L90.30 116.35 L90.53 115.61 L90.74 114.86 L90.93 114.09 L91.10 113.32 L91.24 112.53 L91.36 111.73 L91.46 110.92 L91.53 110.10 L91.59 109.28 L91.62 108.44 L91.63 107.60 L91.61 106.74 L91.57 105.88 L91.51 105.01 L91.43 104.13 L91.33 103.25 L91.18 102.22 L90.90 100.97 L90.55 99.76 L90.13 98.58 L89.65 97.44 L89.11 96.34 L88.50 95.28 L87.85 94.25 L87.15 93.26 L86.41 92.30 L85.63 91.38 L84.81 90.49 L83.96 89.63 L83.08 88.80 L82.18 87.99 L81.25 87.21 L80.29 86.45 L79.32 85.71 L78.33 85.00 L77.31 84.31 L76.28 83.64 L75.23 83.00 L74.17 82.37 L73.10 81.77 L72.02 81.18 L70.93 80.60 L69.84 80.04 L68.75 79.49 L67.66 78.96 L66.57 78.43 L65.49 77.91 L64.42 77.39 L63.35 76.89 L62.30 76.38 L61.26 75.88 L60.23 75.38 L59.23 74.88 L58.24 74.38 L57.28 73.87 L56.34 73.37 L55.43 72.86 L54.55 72.34 L53.70 71.82 L52.89 71.29 L52.11 70.76 L51.38 70.22 L50.69 69.67 L50.05 69.11 Z" fill="none" stroke="#FFFFFF" stroke-width="3.4" stroke-linejoin="round" stroke-linecap="round"/>
  <path d="M9.42 105.72 L11.00 105.47 L12.58 105.23 L14.15 104.98 L15.73 104.74 L17.31 104.49 L18.89 104.25 L20.46 104.00 L22.04 103.75 L23.62 103.51 L25.20 103.26 L26.77 103.01 L28.35 102.76 L29.93 102.52 L31.51 102.27 L33.08 102.02 L34.66 101.77 L36.24 101.52 L37.81 101.27 L39.39 101.02 L40.97 100.77 L42.54 100.52 L44.12 100.27 L45.70 100.02 L47.28 99.77 L48.85 99.52 L50.43 99.27 L52.01 99.02 L53.58 98.76 L55.16 98.51 L56.73 98.26 L58.31 98.01 L59.89 97.75 L61.46 97.50 L63.04 97.25 L64.62 96.99 L66.19 96.74 L67.77 96.48 L69.35 96.23 L70.92 95.98 L72.50 95.72 L74.07 95.47 L75.65 95.21 L77.23 94.95 L78.80 94.70 L77.90 93.31 L78.22 93.80 L78.53 94.30 L78.83 94.81 L79.12 95.32 L79.41 95.84 L79.69 96.36 L79.95 96.89 L80.21 97.42 L80.47 97.96 L80.71 98.50 L80.94 99.05 L81.17 99.60 L81.39 100.15 L81.60 100.72 L81.79 101.28 L81.98 101.85 L82.17 102.42 L82.34 103.00 L82.50 103.58 L82.65 104.16 L82.80 104.75 L82.93 105.34 L83.06 105.94 L83.17 106.54 L83.28 107.14 L83.38 107.74 L83.46 108.35 L83.54 108.96 L83.60 109.57 L83.66 110.19 L83.71 110.81 L83.74 111.43 L83.77 112.05 L83.78 112.67 L83.79 113.30 L83.78 113.93 L83.76 114.56 L83.74 115.19 L83.70 115.82 L83.65 116.46 L83.59 117.09 L83.52 117.73 L83.43 118.37 L83.34 119.01 L83.23 119.65 L83.21 120.21 L83.36 120.75 L83.68 121.22 L84.12 121.57 L84.65 121.77 L85.21 121.79 L85.75 121.64 L86.22 121.32 L86.57 120.88 L86.77 120.35 L86.91 119.66 L87.05 118.96 L87.18 118.27 L87.29 117.58 L87.39 116.88 L87.48 116.19 L87.56 115.49 L87.62 114.80 L87.67 114.10 L87.72 113.41 L87.75 112.72 L87.76 112.03 L87.77 111.33 L87.76 110.65 L87.75 109.96 L87.72 109.27 L87.68 108.59 L87.63 107.90 L87.56 107.22 L87.49 106.54 L87.40 105.87 L87.31 105.19 L87.20 104.52 L87.08 103.85 L86.95 103.19 L86.81 102.52 L86.65 101.86 L86.49 101.21 L86.32 100.55 L86.13 99.90 L85.94 99.26 L85.73 98.62 L85.51 97.98 L85.28 97.34 L85.05 96.72 L84.80 96.09 L84.54 95.47 L84.27 94.85 L83.99 94.24 L83.70 93.64 L83.40 93.04 L83.09 92.44 L82.77 91.85 L82.44 91.27 L82.10 90.69 L78.04 89.79 L76.46 90.02 L74.88 90.26 L73.30 90.49 L71.72 90.72 L70.14 90.96 L68.57 91.19 L66.99 91.43 L65.41 91.66 L63.83 91.90 L62.25 92.13 L60.67 92.37 L59.09 92.60 L57.51 92.84 L55.93 93.07 L54.35 93.31 L52.77 93.55 L51.19 93.78 L49.62 94.02 L48.04 94.26 L46.46 94.50 L44.88 94.73 L43.30 94.97 L41.72 95.21 L40.14 95.45 L38.56 95.69 L36.99 95.93 L35.41 96.17 L33.83 96.41 L32.25 96.65 L30.67 96.89 L29.09 97.13 L27.52 97.37 L25.94 97.61 L24.36 97.85 L22.78 98.09 L21.20 98.34 L19.62 98.58 L18.05 98.82 L16.47 99.06 L14.89 99.31 L13.31 99.55 L11.73 99.79 L10.16 100.04 L8.58 100.28 L7.76 100.55 L7.06 101.05 L6.55 101.74 L6.29 102.56 L6.28 103.42 L6.55 104.24 L7.05 104.94 L7.74 105.45 L8.56 105.71 Z" fill="none" stroke="#FFFFFF" stroke-width="3.4" stroke-linejoin="round" stroke-linecap="round"/>
  <path d="M49.45 68.55 L48.76 67.87 L48.03 67.20 L47.27 66.53 L46.49 65.87 L45.69 65.21 L44.85 64.55 L44.00 63.90 L43.12 63.24 L42.23 62.59 L41.32 61.94 L40.39 61.28 L39.45 60.63 L38.49 59.97 L37.53 59.31 L36.55 58.66 L35.57 58.00 L34.59 57.34 L33.60 56.67 L32.62 56.01 L31.64 55.35 L30.66 54.68 L29.68 54.01 L28.72 53.35 L27.77 52.68 L26.82 52.01 L25.90 51.34 L24.99 50.67 L24.09 50.00 L23.22 49.33 L22.37 48.67 L21.54 48.00 L20.74 47.34 L19.97 46.67 L19.23 45.99 L18.53 45.31 L17.87 44.63 L17.25 43.94 L16.66 43.25 L16.12 42.56 L15.62 41.87 L15.17 41.18 L14.76 40.48 L14.39 39.78 L14.06 39.08 L13.78 38.38 L13.54 37.67 L13.34 36.95 L13.20 36.35 L13.10 35.63 L13.01 34.92 L12.93 34.23 L12.87 33.55 L12.82 32.88 L12.78 32.23 L12.76 31.59 L12.75 30.96 L12.76 30.35 L12.78 29.75 L12.82 29.16 L12.86 28.59 L12.93 28.03 L13.00 27.48 L13.09 26.95 L13.20 26.43 L13.32 25.92 L13.45 25.42 L13.60 24.94 L13.76 24.46 L13.93 24.00 L14.12 23.55 L14.33 23.12 L14.55 22.69 L14.78 22.27 L15.03 21.87 L15.29 21.47 L15.57 21.09 L15.87 20.72 L16.18 20.35 L16.51 20.00 L16.86 19.66 L17.22 19.32 L17.60 19.00 L17.99 18.68 L18.41 18.38 L18.84 18.08 L19.29 17.80 L19.76 17.52 L20.25 17.26 L20.76 17.00 L21.29 16.76 L21.84 16.53 L22.41 16.31 L23.00 16.10 L23.61 15.90 L24.24 15.72 L24.30 15.64 L25.29 15.56 L26.28 15.48 L27.27 15.41 L28.25 15.34 L29.24 15.27 L30.23 15.21 L31.22 15.15 L32.20 15.09 L33.19 15.04 L34.18 14.99 L35.16 14.94 L36.15 14.90 L37.14 14.86 L38.13 14.82 L39.11 14.79 L40.10 14.76 L41.09 14.73 L42.08 14.71 L43.06 14.69 L44.05 14.68 L45.04 14.67 L46.03 14.66 L47.01 14.65 L48.00 14.65 L48.99 14.65 L49.97 14.66 L50.96 14.67 L51.95 14.68 L52.94 14.69 L53.92 14.71 L54.91 14.73 L55.90 14.76 L56.89 14.79 L57.87 14.82 L58.86 14.86 L59.85 14.90 L60.84 14.94 L61.82 14.99 L62.81 15.04 L63.80 15.09 L64.78 15.15 L65.77 15.21 L66.76 15.27 L67.75 15.34 L68.73 15.41 L69.72 15.48 L70.71 15.56 L71.11 15.55 L71.76 15.72 L72.39 15.90 L73.00 16.10 L73.59 16.31 L74.16 16.53 L74.71 16.76 L75.24 17.00 L75.75 17.26 L76.24 17.52 L76.71 17.80 L77.16 18.08 L77.59 18.38 L78.01 18.68 L78.40 19.00 L78.78 19.32 L79.14 19.66 L79.49 20.00 L79.82 20.35 L80.13 20.72 L80.43 21.09 L80.71 21.47 L80.97 21.87 L81.22 22.27 L81.45 22.69 L81.67 23.12 L81.88 23.55 L82.07 24.00 L82.24 24.46 L82.40 24.94 L82.55 25.42 L82.68 25.92 L82.80 26.43 L82.91 26.95 L83.00 27.48 L83.07 28.03 L83.14 28.59 L83.18 29.16 L83.22 29.75 L83.24 30.35 L83.25 30.96 L83.24 31.59 L83.22 32.23 L83.18 32.88 L83.13 33.55 L83.07 34.23 L82.99 34.92 L82.90 35.63 L82.82 36.22 L82.66 36.95 L82.46 37.67 L82.22 38.38 L81.94 39.08 L81.61 39.78 L81.24 40.48 L80.83 41.18 L80.38 41.87 L79.88 42.56 L79.34 43.25 L78.75 43.94 L78.13 44.63 L77.47 45.31 L76.77 45.99 L76.03 46.67 L75.26 47.34 L74.46 48.00 L73.63 48.67 L72.78 49.33 L71.91 50.00 L71.01 50.67 L70.10 51.34 L69.18 52.01 L68.23 52.68 L67.28 53.35 L66.32 54.01 L65.34 54.68 L64.36 55.35 L63.38 56.01 L62.40 56.67 L61.41 57.34 L60.43 58.00 L59.45 58.66 L58.47 59.31 L57.51 59.97 L56.55 60.63 L55.61 61.28 L54.68 61.94 L53.77 62.59 L52.88 63.24 L52.00 63.90 L51.15 64.55 L50.31 65.21 L49.51 65.87 L48.73 66.53 L47.97 67.20 L47.24 67.87 Z M46.55 71.45 L45.95 70.89 L45.31 70.33 L44.62 69.78 L43.89 69.24 L43.11 68.71 L42.30 68.18 L41.45 67.66 L40.57 67.14 L39.66 66.63 L38.72 66.13 L37.76 65.62 L36.77 65.12 L35.77 64.62 L34.74 64.12 L33.70 63.62 L32.65 63.11 L31.58 62.61 L30.51 62.09 L29.43 61.57 L28.34 61.04 L27.25 60.51 L26.16 59.96 L25.07 59.40 L23.98 58.82 L22.90 58.23 L21.83 57.63 L20.77 57.00 L19.72 56.36 L18.69 55.69 L17.67 55.00 L16.68 54.29 L15.71 53.55 L14.75 52.79 L13.82 52.01 L12.92 51.20 L12.04 50.37 L11.19 49.51 L10.37 48.62 L9.59 47.70 L8.85 46.74 L8.15 45.75 L7.50 44.72 L6.89 43.66 L6.35 42.56 L5.87 41.42 L5.45 40.24 L5.10 39.03 L4.80 37.65 L4.67 36.75 L4.57 35.87 L4.49 34.99 L4.43 34.12 L4.39 33.26 L4.37 32.40 L4.38 31.56 L4.41 30.72 L4.47 29.90 L4.54 29.08 L4.64 28.27 L4.76 27.47 L4.90 26.68 L5.07 25.91 L5.26 25.14 L5.47 24.39 L5.70 23.65 L5.96 22.92 L6.24 22.20 L6.53 21.49 L6.86 20.80 L7.20 20.12 L7.57 19.46 L7.95 18.81 L8.36 18.18 L8.79 17.56 L9.24 16.96 L9.72 16.37 L10.21 15.80 L10.72 15.25 L11.26 14.71 L11.81 14.20 L12.38 13.70 L12.98 13.22 L13.59 12.75 L14.22 12.31 L14.86 11.89 L15.53 11.48 L16.21 11.09 L16.91 10.72 L17.63 10.37 L18.36 10.04 L19.11 9.73 L19.88 9.44 L20.67 9.17 L21.47 8.91 L22.28 8.67 L23.70 8.36 L24.71 8.28 L25.72 8.20 L26.73 8.12 L27.75 8.05 L28.76 7.98 L29.77 7.92 L30.78 7.86 L31.80 7.80 L32.81 7.74 L33.82 7.69 L34.84 7.65 L35.85 7.60 L36.86 7.56 L37.87 7.53 L38.89 7.49 L39.90 7.46 L40.91 7.44 L41.92 7.41 L42.94 7.39 L43.95 7.38 L44.96 7.37 L45.97 7.36 L46.99 7.35 L48.00 7.35 L49.01 7.35 L50.03 7.36 L51.04 7.37 L52.05 7.38 L53.06 7.39 L54.08 7.41 L55.09 7.44 L56.10 7.46 L57.11 7.49 L58.13 7.53 L59.14 7.56 L60.15 7.60 L61.16 7.65 L62.18 7.69 L63.19 7.74 L64.20 7.80 L65.22 7.86 L66.23 7.92 L67.24 7.98 L68.25 8.05 L69.27 8.12 L70.28 8.20 L71.29 8.28 L72.89 8.45 L73.72 8.67 L74.53 8.91 L75.33 9.17 L76.12 9.44 L76.89 9.73 L77.64 10.04 L78.37 10.37 L79.09 10.72 L79.79 11.09 L80.47 11.48 L81.14 11.89 L81.78 12.31 L82.41 12.75 L83.02 13.22 L83.62 13.70 L84.19 14.20 L84.74 14.71 L85.28 15.25 L85.79 15.80 L86.28 16.37 L86.76 16.96 L87.21 17.56 L87.64 18.18 L88.05 18.81 L88.43 19.46 L88.80 20.12 L89.14 20.80 L89.47 21.49 L89.76 22.20 L90.04 22.92 L90.30 23.65 L90.53 24.39 L90.74 25.14 L90.93 25.91 L91.10 26.68 L91.24 27.47 L91.36 28.27 L91.46 29.08 L91.53 29.90 L91.59 30.72 L91.62 31.56 L91.63 32.40 L91.61 33.26 L91.57 34.12 L91.51 34.99 L91.43 35.87 L91.33 36.75 L91.18 37.78 L90.90 39.03 L90.55 40.24 L90.13 41.42 L89.65 42.56 L89.11 43.66 L88.50 44.72 L87.85 45.75 L87.15 46.74 L86.41 47.70 L85.63 48.62 L84.81 49.51 L83.96 50.37 L83.08 51.20 L82.18 52.01 L81.25 52.79 L80.29 53.55 L79.32 54.29 L78.33 55.00 L77.31 55.69 L76.28 56.36 L75.23 57.00 L74.17 57.63 L73.10 58.23 L72.02 58.82 L70.93 59.40 L69.84 59.96 L68.75 60.51 L67.66 61.04 L66.57 61.57 L65.49 62.09 L64.42 62.61 L63.35 63.11 L62.30 63.62 L61.26 64.12 L60.23 64.62 L59.23 65.12 L58.24 65.62 L57.28 66.13 L56.34 66.63 L55.43 67.14 L54.55 67.66 L53.70 68.18 L52.89 68.71 L52.11 69.24 L51.38 69.78 L50.69 70.33 L50.05 70.89 Z"/>
  <path d="M46.55 68.55 L45.95 69.11 L45.31 69.67 L44.62 70.22 L43.89 70.76 L43.11 71.29 L42.30 71.82 L41.45 72.34 L40.57 72.86 L39.66 73.37 L38.72 73.87 L37.76 74.38 L36.77 74.88 L35.77 75.38 L34.74 75.88 L33.70 76.38 L32.65 76.89 L31.58 77.39 L30.51 77.91 L29.43 78.43 L28.34 78.96 L27.25 79.49 L26.16 80.04 L25.07 80.60 L23.98 81.18 L22.90 81.77 L21.83 82.37 L20.77 83.00 L19.72 83.64 L18.69 84.31 L17.67 85.00 L16.68 85.71 L15.71 86.45 L14.75 87.21 L13.82 87.99 L12.92 88.80 L12.04 89.63 L11.19 90.49 L10.37 91.38 L9.59 92.30 L8.85 93.26 L8.15 94.25 L7.50 95.28 L6.89 96.34 L6.35 97.44 L5.87 98.58 L5.45 99.76 L5.10 100.97 L4.80 102.35 L4.67 103.25 L4.57 104.13 L4.49 105.01 L4.43 105.88 L4.39 106.74 L4.37 107.60 L4.38 108.44 L4.41 109.28 L4.47 110.10 L4.54 110.92 L4.64 111.73 L4.76 112.53 L4.90 113.32 L5.07 114.09 L5.26 114.86 L5.47 115.61 L5.70 116.35 L5.96 117.08 L6.24 117.80 L6.53 118.51 L6.86 119.20 L7.20 119.88 L7.57 120.54 L7.95 121.19 L8.36 121.82 L8.79 122.44 L9.24 123.04 L9.72 123.63 L10.21 124.20 L10.72 124.75 L11.26 125.29 L11.81 125.80 L12.38 126.30 L12.98 126.78 L13.59 127.25 L14.22 127.69 L14.86 128.11 L15.53 128.52 L16.21 128.91 L16.91 129.28 L17.63 129.63 L18.36 129.96 L19.11 130.27 L19.88 130.56 L20.67 130.83 L21.47 131.09 L22.28 131.33 L23.70 131.64 L24.71 131.72 L25.72 131.80 L26.73 131.88 L27.75 131.95 L28.76 132.02 L29.77 132.08 L30.78 132.14 L31.80 132.20 L32.81 132.26 L33.82 132.31 L34.84 132.35 L35.85 132.40 L36.86 132.44 L37.87 132.47 L38.89 132.51 L39.90 132.54 L40.91 132.56 L41.92 132.59 L42.94 132.61 L43.95 132.62 L44.96 132.63 L45.97 132.64 L46.99 132.65 L48.00 132.65 L49.01 132.65 L50.03 132.64 L51.04 132.63 L52.05 132.62 L53.06 132.61 L54.08 132.59 L55.09 132.56 L56.10 132.54 L57.11 132.51 L58.13 132.47 L59.14 132.44 L60.15 132.40 L61.16 132.35 L62.18 132.31 L63.19 132.26 L64.20 132.20 L65.22 132.14 L66.23 132.08 L67.24 132.02 L68.25 131.95 L69.27 131.88 L70.28 131.80 L71.29 131.72 L72.89 131.55 L73.72 131.33 L74.53 131.09 L75.33 130.83 L76.12 130.56 L76.89 130.27 L77.64 129.96 L78.37 129.63 L79.09 129.28 L79.79 128.91 L80.47 128.52 L81.14 128.11 L81.78 127.69 L82.41 127.25 L83.02 126.78 L83.62 126.30 L84.19 125.80 L84.74 125.29 L85.28 124.75 L85.79 124.20 L86.28 123.63 L86.76 123.04 L87.21 122.44 L87.64 121.82 L88.05 121.19 L88.43 120.54 L88.80 119.88 L89.14 119.20 L89.47 118.51 L89.76 117.80 L90.04 117.08 L90.30 116.35 L90.53 115.61 L90.74 114.86 L90.93 114.09 L91.10 113.32 L91.24 112.53 L91.36 111.73 L91.46 110.92 L91.53 110.10 L91.59 109.28 L91.62 108.44 L91.63 107.60 L91.61 106.74 L91.57 105.88 L91.51 105.01 L91.43 104.13 L91.33 103.25 L91.18 102.22 L90.90 100.97 L90.55 99.76 L90.13 98.58 L89.65 97.44 L89.11 96.34 L88.50 95.28 L87.85 94.25 L87.15 93.26 L86.41 92.30 L85.63 91.38 L84.81 90.49 L83.96 89.63 L83.08 88.80 L82.18 87.99 L81.25 87.21 L80.29 86.45 L79.32 85.71 L78.33 85.00 L77.31 84.31 L76.28 83.64 L75.23 83.00 L74.17 82.37 L73.10 81.77 L72.02 81.18 L70.93 80.60 L69.84 80.04 L68.75 79.49 L67.66 78.96 L66.57 78.43 L65.49 77.91 L64.42 77.39 L63.35 76.89 L62.30 76.38 L61.26 75.88 L60.23 75.38 L59.23 74.88 L58.24 74.38 L57.28 73.87 L56.34 73.37 L55.43 72.86 L54.55 72.34 L53.70 71.82 L52.89 71.29 L52.11 70.76 L51.38 70.22 L50.69 69.67 L50.05 69.11 Z M49.45 71.45 L48.76 72.13 L48.03 72.80 L47.27 73.47 L46.49 74.13 L45.69 74.79 L44.85 75.45 L44.00 76.10 L43.12 76.76 L42.23 77.41 L41.32 78.06 L40.39 78.72 L39.45 79.37 L38.49 80.03 L37.53 80.69 L36.55 81.34 L35.57 82.00 L34.59 82.66 L33.60 83.33 L32.62 83.99 L31.64 84.65 L30.66 85.32 L29.68 85.99 L28.72 86.65 L27.77 87.32 L26.82 87.99 L25.90 88.66 L24.99 89.33 L24.09 90.00 L23.22 90.67 L22.37 91.33 L21.54 92.00 L20.74 92.66 L19.97 93.33 L19.23 94.01 L18.53 94.69 L17.87 95.37 L17.25 96.06 L16.66 96.75 L16.12 97.44 L15.62 98.13 L15.17 98.82 L14.76 99.52 L14.39 100.22 L14.06 100.92 L13.78 101.62 L13.54 102.33 L13.34 103.05 L13.20 103.65 L13.10 104.37 L13.01 105.08 L12.93 105.77 L12.87 106.45 L12.82 107.12 L12.78 107.77 L12.76 108.41 L12.75 109.04 L12.76 109.65 L12.78 110.25 L12.82 110.84 L12.86 111.41 L12.93 111.97 L13.00 112.52 L13.09 113.05 L13.20 113.57 L13.32 114.08 L13.45 114.58 L13.60 115.06 L13.76 115.54 L13.93 116.00 L14.12 116.45 L14.33 116.88 L14.55 117.31 L14.78 117.73 L15.03 118.13 L15.29 118.53 L15.57 118.91 L15.87 119.28 L16.18 119.65 L16.51 120.00 L16.86 120.34 L17.22 120.68 L17.60 121.00 L17.99 121.32 L18.41 121.62 L18.84 121.92 L19.29 122.20 L19.76 122.48 L20.25 122.74 L20.76 123.00 L21.29 123.24 L21.84 123.47 L22.41 123.69 L23.00 123.90 L23.61 124.10 L24.24 124.28 L24.30 124.36 L25.29 124.44 L26.28 124.52 L27.27 124.59 L28.25 124.66 L29.24 124.73 L30.23 124.79 L31.22 124.85 L32.20 124.91 L33.19 124.96 L34.18 125.01 L35.16 125.06 L36.15 125.10 L37.14 125.14 L38.13 125.18 L39.11 125.21 L40.10 125.24 L41.09 125.27 L42.08 125.29 L43.06 125.31 L44.05 125.32 L45.04 125.33 L46.03 125.34 L47.01 125.35 L48.00 125.35 L48.99 125.35 L49.97 125.34 L50.96 125.33 L51.95 125.32 L52.94 125.31 L53.92 125.29 L54.91 125.27 L55.90 125.24 L56.89 125.21 L57.87 125.18 L58.86 125.14 L59.85 125.10 L60.84 125.06 L61.82 125.01 L62.81 124.96 L63.80 124.91 L64.78 124.85 L65.77 124.79 L66.76 124.73 L67.75 124.66 L68.73 124.59 L69.72 124.52 L70.71 124.44 L71.11 124.45 L71.76 124.28 L72.39 124.10 L73.00 123.90 L73.59 123.69 L74.16 123.47 L74.71 123.24 L75.24 123.00 L75.75 122.74 L76.24 122.48 L76.71 122.20 L77.16 121.92 L77.59 121.62 L78.01 121.32 L78.40 121.00 L78.78 120.68 L79.14 120.34 L79.49 120.00 L79.82 119.65 L80.13 119.28 L80.43 118.91 L80.71 118.53 L80.97 118.13 L81.22 117.73 L81.45 117.31 L81.67 116.88 L81.88 116.45 L82.07 116.00 L82.24 115.54 L82.40 115.06 L82.55 114.58 L82.68 114.08 L82.80 113.57 L82.91 113.05 L83.00 112.52 L83.07 111.97 L83.14 111.41 L83.18 110.84 L83.22 110.25 L83.24 109.65 L83.25 109.04 L83.24 108.41 L83.22 107.77 L83.18 107.12 L83.13 106.45 L83.07 105.77 L82.99 105.08 L82.90 104.37 L82.82 103.78 L82.66 103.05 L82.46 102.33 L82.22 101.62 L81.94 100.92 L81.61 100.22 L81.24 99.52 L80.83 98.82 L80.38 98.13 L79.88 97.44 L79.34 96.75 L78.75 96.06 L78.13 95.37 L77.47 94.69 L76.77 94.01 L76.03 93.33 L75.26 92.66 L74.46 92.00 L73.63 91.33 L72.78 90.67 L71.91 90.00 L71.01 89.33 L70.10 88.66 L69.18 87.99 L68.23 87.32 L67.28 86.65 L66.32 85.99 L65.34 85.32 L64.36 84.65 L63.38 83.99 L62.40 83.33 L61.41 82.66 L60.43 82.00 L59.45 81.34 L58.47 80.69 L57.51 80.03 L56.55 79.37 L55.61 78.72 L54.68 78.06 L53.77 77.41 L52.88 76.76 L52.00 76.10 L51.15 75.45 L50.31 74.79 L49.51 74.13 L48.73 73.47 L47.97 72.80 L47.24 72.13 Z"/>
  <path d="M9.42 105.72 L11.00 105.47 L12.58 105.23 L14.15 104.98 L15.73 104.74 L17.31 104.49 L18.89 104.25 L20.46 104.00 L22.04 103.75 L23.62 103.51 L25.20 103.26 L26.77 103.01 L28.35 102.76 L29.93 102.52 L31.51 102.27 L33.08 102.02 L34.66 101.77 L36.24 101.52 L37.81 101.27 L39.39 101.02 L40.97 100.77 L42.54 100.52 L44.12 100.27 L45.70 100.02 L47.28 99.77 L48.85 99.52 L50.43 99.27 L52.01 99.02 L53.58 98.76 L55.16 98.51 L56.73 98.26 L58.31 98.01 L59.89 97.75 L61.46 97.50 L63.04 97.25 L64.62 96.99 L66.19 96.74 L67.77 96.48 L69.35 96.23 L70.92 95.98 L72.50 95.72 L74.07 95.47 L75.65 95.21 L77.23 94.95 L78.80 94.70 L77.90 93.31 L78.22 93.80 L78.53 94.30 L78.83 94.81 L79.12 95.32 L79.41 95.84 L79.69 96.36 L79.95 96.89 L80.21 97.42 L80.47 97.96 L80.71 98.50 L80.94 99.05 L81.17 99.60 L81.39 100.15 L81.60 100.72 L81.79 101.28 L81.98 101.85 L82.17 102.42 L82.34 103.00 L82.50 103.58 L82.65 104.16 L82.80 104.75 L82.93 105.34 L83.06 105.94 L83.17 106.54 L83.28 107.14 L83.38 107.74 L83.46 108.35 L83.54 108.96 L83.60 109.57 L83.66 110.19 L83.71 110.81 L83.74 111.43 L83.77 112.05 L83.78 112.67 L83.79 113.30 L83.78 113.93 L83.76 114.56 L83.74 115.19 L83.70 115.82 L83.65 116.46 L83.59 117.09 L83.52 117.73 L83.43 118.37 L83.34 119.01 L83.23 119.65 L83.21 120.21 L83.36 120.75 L83.68 121.22 L84.12 121.57 L84.65 121.77 L85.21 121.79 L85.75 121.64 L86.22 121.32 L86.57 120.88 L86.77 120.35 L86.91 119.66 L87.05 118.96 L87.18 118.27 L87.29 117.58 L87.39 116.88 L87.48 116.19 L87.56 115.49 L87.62 114.80 L87.67 114.10 L87.72 113.41 L87.75 112.72 L87.76 112.03 L87.77 111.33 L87.76 110.65 L87.75 109.96 L87.72 109.27 L87.68 108.59 L87.63 107.90 L87.56 107.22 L87.49 106.54 L87.40 105.87 L87.31 105.19 L87.20 104.52 L87.08 103.85 L86.95 103.19 L86.81 102.52 L86.65 101.86 L86.49 101.21 L86.32 100.55 L86.13 99.90 L85.94 99.26 L85.73 98.62 L85.51 97.98 L85.28 97.34 L85.05 96.72 L84.80 96.09 L84.54 95.47 L84.27 94.85 L83.99 94.24 L83.70 93.64 L83.40 93.04 L83.09 92.44 L82.77 91.85 L82.44 91.27 L82.10 90.69 L78.04 89.79 L76.46 90.02 L74.88 90.26 L73.30 90.49 L71.72 90.72 L70.14 90.96 L68.57 91.19 L66.99 91.43 L65.41 91.66 L63.83 91.90 L62.25 92.13 L60.67 92.37 L59.09 92.60 L57.51 92.84 L55.93 93.07 L54.35 93.31 L52.77 93.55 L51.19 93.78 L49.62 94.02 L48.04 94.26 L46.46 94.50 L44.88 94.73 L43.30 94.97 L41.72 95.21 L40.14 95.45 L38.56 95.69 L36.99 95.93 L35.41 96.17 L33.83 96.41 L32.25 96.65 L30.67 96.89 L29.09 97.13 L27.52 97.37 L25.94 97.61 L24.36 97.85 L22.78 98.09 L21.20 98.34 L19.62 98.58 L18.05 98.82 L16.47 99.06 L14.89 99.31 L13.31 99.55 L11.73 99.79 L10.16 100.04 L8.58 100.28 L7.76 100.55 L7.06 101.05 L6.55 101.74 L6.29 102.56 L6.28 103.42 L6.55 104.24 L7.05 104.94 L7.74 105.45 L8.56 105.71 Z"/>
</svg>
