<svg xmlns="http://www.w3.org/2000/svg" viewBox="0 0 96 140" fill="#103A45" fill-rule="evenodd">
  <path d="M48.75 69.25 L48.18 68.72 L47.25 68.09 L46.52 67.46 L45.76 66.82 L44.96 66.19 L44.14 65.56 L43.30 64.94 L42.43 64.31 L41.53 63.68 L40.62 63.06 L39.69 62.44 L38.74 61.81 L37.79 61.18 L36.80 60.55 L35.82 59.92 L34.84 59.29 L33.83 58.65 L32.84 58.02 L31.83 57.38 L30.83 56.74 L29.83 56.09 L28.83 55.44 L27.84 54.79 L26.86 54.14 L25.89 53.48 L24.93 52.82 L23.99 52.16 L23.07 51.50 L22.16 50.82 L21.27 50.14 L20.41 49.46 L19.57 48.78 L18.76 48.09 L17.98 47.39 L17.23 46.68 L16.53 45.95 L15.85 45.23 L15.21 44.49 L14.62 43.74 L14.07 42.99 L13.56 42.22 L13.09 41.45 L12.67 40.67 L12.29 39.87 L11.97 39.08 L11.68 38.26 L11.45 37.42 L11.28 36.65 L11.16 35.88 L11.07 35.14 L10.99 34.40 L10.93 33.68 L10.89 32.97 L10.85 32.27 L10.84 31.59 L10.84 30.90 L10.85 30.24 L10.89 29.60 L10.93 28.95 L10.99 28.33 L11.07 27.71 L11.16 27.12 L11.28 26.53 L11.40 25.95 L11.55 25.39 L11.70 24.83 L11.88 24.30 L12.07 23.77 L12.28 23.25 L12.50 22.75 L12.74 22.26 L13.00 21.78 L13.27 21.31 L13.57 20.85 L13.87 20.41 L14.20 19.98 L14.54 19.56 L14.89 19.15 L15.27 18.75 L15.67 18.36 L16.08 17.99 L16.50 17.63 L16.95 17.28 L17.41 16.93 L17.90 16.61 L18.40 16.30 L18.92 16.00 L19.46 15.71 L20.02 15.43 L20.59 15.16 L21.20 14.91 L21.81 14.68 L22.44 14.45 L23.09 14.25 L23.77 14.04 L23.99 13.96 L25.15 13.83 L26.14 13.76 L27.14 13.68 L28.13 13.61 L29.12 13.54 L30.12 13.48 L31.12 13.42 L32.11 13.36 L33.10 13.30 L34.09 13.25 L35.09 13.21 L36.08 13.17 L37.07 13.13 L38.07 13.09 L39.06 13.06 L40.05 13.03 L41.04 13.00 L42.04 12.98 L43.04 12.96 L44.03 12.95 L45.02 12.94 L46.01 12.93 L47.01 12.92 L48.00 12.92 L48.99 12.92 L49.99 12.93 L50.98 12.94 L51.97 12.95 L52.96 12.96 L53.96 12.98 L54.96 13.00 L55.95 13.03 L56.94 13.06 L57.93 13.09 L58.93 13.13 L59.92 13.17 L60.91 13.21 L61.91 13.25 L62.90 13.30 L63.89 13.36 L64.88 13.42 L65.88 13.48 L66.88 13.54 L67.87 13.61 L68.86 13.68 L69.86 13.76 L70.85 13.83 L71.34 13.84 L72.23 14.04 L72.91 14.25 L73.56 14.45 L74.19 14.68 L74.80 14.91 L75.41 15.16 L75.98 15.43 L76.54 15.71 L77.08 16.00 L77.60 16.30 L78.10 16.61 L78.59 16.93 L79.05 17.28 L79.50 17.63 L79.92 17.99 L80.33 18.36 L80.73 18.75 L81.11 19.15 L81.46 19.56 L81.80 19.98 L82.13 20.41 L82.43 20.85 L82.73 21.31 L83.00 21.78 L83.26 22.26 L83.50 22.75 L83.72 23.25 L83.93 23.77 L84.12 24.30 L84.30 24.83 L84.45 25.39 L84.60 25.95 L84.72 26.53 L84.84 27.12 L84.93 27.71 L85.01 28.33 L85.07 28.95 L85.11 29.60 L85.15 30.24 L85.16 30.90 L85.16 31.59 L85.15 32.27 L85.11 32.97 L85.07 33.68 L85.01 34.40 L84.93 35.14 L84.84 35.88 L84.74 36.57 L84.55 37.42 L84.32 38.26 L84.03 39.08 L83.71 39.87 L83.33 40.67 L82.91 41.45 L82.44 42.22 L81.93 42.99 L81.38 43.74 L80.79 44.49 L80.15 45.23 L79.47 45.95 L78.77 46.68 L78.02 47.39 L77.24 48.09 L76.43 48.78 L75.59 49.46 L74.73 50.14 L73.84 50.82 L72.93 51.50 L72.01 52.16 L71.07 52.82 L70.11 53.48 L69.14 54.14 L68.16 54.79 L67.17 55.44 L66.17 56.09 L65.17 56.74 L64.17 57.38 L63.16 58.02 L62.17 58.65 L61.16 59.29 L60.18 59.92 L59.20 60.55 L58.21 61.18 L57.26 61.81 L56.31 62.44 L55.38 63.06 L54.47 63.68 L53.57 64.31 L52.70 64.94 L51.86 65.56 L51.04 66.19 L50.24 66.82 L49.48 67.46 L48.75 68.09 L47.82 68.72 Z M47.38 70.62 L46.73 70.04 L46.08 69.44 L45.37 68.86 L44.62 68.29 L43.83 67.73 L43.01 67.17 L42.15 66.62 L41.27 66.08 L40.36 65.54 L39.42 65.01 L38.46 64.47 L37.47 63.94 L36.47 63.41 L35.46 62.89 L34.43 62.35 L33.38 61.82 L32.34 61.29 L31.27 60.74 L30.21 60.20 L29.15 59.65 L28.07 59.09 L27.01 58.53 L25.95 57.95 L24.89 57.36 L23.84 56.76 L22.80 56.15 L21.77 55.51 L20.75 54.87 L19.75 54.21 L18.77 53.53 L17.81 52.83 L16.88 52.11 L15.96 51.37 L15.07 50.62 L14.22 49.84 L13.38 49.05 L12.58 48.22 L11.82 47.38 L11.10 46.52 L10.40 45.62 L9.76 44.70 L9.16 43.75 L8.61 42.77 L8.12 41.76 L7.68 40.72 L7.30 39.65 L6.99 38.55 L6.72 37.35 L6.60 36.50 L6.50 35.66 L6.42 34.82 L6.36 33.99 L6.32 33.17 L6.30 32.36 L6.30 31.56 L6.33 30.78 L6.37 30.00 L6.44 29.23 L6.52 28.48 L6.63 27.73 L6.76 27.00 L6.91 26.27 L7.07 25.56 L7.27 24.86 L7.47 24.17 L7.71 23.50 L7.95 22.84 L8.22 22.18 L8.51 21.55 L8.83 20.93 L9.16 20.32 L9.50 19.72 L9.88 19.14 L10.26 18.58 L10.67 18.02 L11.10 17.48 L11.54 16.96 L12.01 16.45 L12.50 15.96 L13.00 15.49 L13.53 15.03 L14.07 14.59 L14.63 14.16 L15.21 13.75 L15.80 13.36 L16.42 12.98 L17.06 12.62 L17.71 12.27 L18.38 11.95 L19.06 11.64 L19.76 11.35 L20.48 11.07 L21.22 10.81 L21.98 10.57 L22.78 10.33 L23.84 10.09 L24.85 10.00 L25.86 9.93 L26.86 9.85 L27.87 9.78 L28.88 9.71 L29.88 9.65 L30.88 9.59 L31.89 9.53 L32.90 9.48 L33.91 9.43 L34.91 9.38 L35.92 9.33 L36.93 9.29 L37.93 9.26 L38.94 9.22 L39.95 9.19 L40.96 9.17 L41.96 9.14 L42.96 9.12 L43.97 9.11 L44.98 9.10 L45.99 9.09 L46.99 9.08 L48.00 9.08 L49.01 9.08 L50.01 9.09 L51.02 9.10 L52.03 9.11 L53.04 9.12 L54.04 9.14 L55.04 9.17 L56.05 9.19 L57.06 9.22 L58.07 9.26 L59.07 9.29 L60.08 9.33 L61.09 9.38 L62.09 9.43 L63.10 9.48 L64.11 9.53 L65.12 9.59 L66.12 9.65 L67.12 9.71 L68.13 9.78 L69.14 9.85 L70.14 9.93 L71.15 10.00 L72.46 10.14 L73.25 10.35 L74.02 10.57 L74.78 10.81 L75.52 11.07 L76.24 11.35 L76.94 11.64 L77.62 11.95 L78.29 12.27 L78.94 12.62 L79.58 12.98 L80.20 13.36 L80.79 13.75 L81.37 14.16 L81.93 14.59 L82.47 15.03 L83.00 15.49 L83.50 15.96 L83.99 16.45 L84.46 16.96 L84.90 17.48 L85.33 18.02 L85.74 18.58 L86.12 19.14 L86.50 19.72 L86.84 20.32 L87.17 20.93 L87.49 21.55 L87.78 22.18 L88.05 22.84 L88.29 23.50 L88.53 24.17 L88.73 24.86 L88.93 25.56 L89.09 26.27 L89.24 27.00 L89.37 27.73 L89.48 28.48 L89.56 29.23 L89.63 30.00 L89.67 30.78 L89.70 31.56 L89.70 32.36 L89.68 33.17 L89.64 33.99 L89.58 34.82 L89.50 35.66 L89.40 36.50 L89.26 37.43 L89.01 38.55 L88.70 39.65 L88.32 40.72 L87.88 41.76 L87.39 42.77 L86.84 43.75 L86.24 44.70 L85.60 45.62 L84.90 46.52 L84.18 47.38 L83.42 48.22 L82.62 49.05 L81.78 49.84 L80.93 50.62 L80.04 51.37 L79.12 52.11 L78.19 52.83 L77.23 53.53 L76.25 54.21 L75.25 54.87 L74.23 55.51 L73.20 56.15 L72.16 56.76 L71.11 57.36 L70.05 57.95 L68.99 58.53 L67.93 59.09 L66.85 59.65 L65.79 60.20 L64.73 60.74 L63.66 61.29 L62.62 61.82 L61.57 62.35 L60.54 62.89 L59.53 63.41 L58.53 63.94 L57.54 64.47 L56.58 65.01 L55.64 65.54 L54.73 66.08 L53.85 66.62 L52.99 67.17 L52.17 67.73 L51.38 68.29 L50.59 69.03 L50.00 69.57 L49.37 70.16 Z"/>
  <path d="M48.75 70.75 L48.18 71.28 L47.25 71.91 L46.52 72.54 L45.76 73.18 L44.96 73.81 L44.14 74.44 L43.30 75.06 L42.43 75.69 L41.53 76.32 L40.62 76.94 L39.69 77.56 L38.74 78.19 L37.79 78.82 L36.80 79.45 L35.82 80.08 L34.84 80.71 L33.83 81.35 L32.84 81.98 L31.83 82.62 L30.83 83.26 L29.83 83.91 L28.83 84.56 L27.84 85.21 L26.86 85.86 L25.89 86.52 L24.93 87.18 L23.99 87.84 L23.07 88.50 L22.16 89.18 L21.27 89.86 L20.41 90.54 L19.57 91.22 L18.76 91.91 L17.98 92.61 L17.23 93.32 L16.53 94.05 L15.85 94.77 L15.21 95.51 L14.62 96.26 L14.07 97.01 L13.56 97.78 L13.09 98.55 L12.67 99.33 L12.29 100.13 L11.97 100.92 L11.68 101.74 L11.45 102.58 L11.28 103.35 L11.16 104.12 L11.07 104.86 L10.99 105.60 L10.93 106.32 L10.89 107.03 L10.85 107.73 L10.84 108.41 L10.84 109.10 L10.85 109.76 L10.89 110.40 L10.93 111.05 L10.99 111.67 L11.07 112.29 L11.16 112.88 L11.28 113.47 L11.40 114.05 L11.55 114.61 L11.70 115.17 L11.88 115.70 L12.07 116.23 L12.28 116.75 L12.50 117.25 L12.74 117.74 L13.00 118.22 L13.27 118.69 L13.57 119.15 L13.87 119.59 L14.20 120.02 L14.54 120.44 L14.89 120.85 L15.27 121.25 L15.67 121.64 L16.08 122.01 L16.50 122.37 L16.95 122.72 L17.41 123.07 L17.90 123.39 L18.40 123.70 L18.92 124.00 L19.46 124.29 L20.02 124.57 L20.59 124.84 L21.20 125.09 L21.81 125.32 L22.44 125.55 L23.09 125.75 L23.77 125.96 L23.99 126.04 L25.15 126.17 L26.14 126.24 L27.14 126.32 L28.13 126.39 L29.12 126.46 L30.12 126.52 L31.12 126.58 L32.11 126.64 L33.10 126.70 L34.09 126.75 L35.09 126.79 L36.08 126.83 L37.07 126.87 L38.07 126.91 L39.06 126.94 L40.05 126.97 L41.04 127.00 L42.04 127.02 L43.04 127.04 L44.03 127.05 L45.02 127.06 L46.01 127.07 L47.01 127.08 L48.00 127.08 L48.99 127.08 L49.99 127.07 L50.98 127.06 L51.97 127.05 L52.96 127.04 L53.96 127.02 L54.96 127.00 L55.95 126.97 L56.94 126.94 L57.93 126.91 L58.93 126.87 L59.92 126.83 L60.91 126.79 L61.91 126.75 L62.90 126.70 L63.89 126.64 L64.88 126.58 L65.88 126.52 L66.88 126.46 L67.87 126.39 L68.86 126.32 L69.86 126.24 L70.85 126.17 L71.34 126.16 L72.23 125.96 L72.91 125.75 L73.56 125.55 L74.19 125.32 L74.80 125.09 L75.41 124.84 L75.98 124.57 L76.54 124.29 L77.08 124.00 L77.60 123.70 L78.10 123.39 L78.59 123.07 L79.05 122.72 L79.50 122.37 L79.92 122.01 L80.33 121.64 L80.73 121.25 L81.11 120.85 L81.46 120.44 L81.80 120.02 L82.13 119.59 L82.43 119.15 L82.73 118.69 L83.00 118.22 L83.26 117.74 L83.50 117.25 L83.72 116.75 L83.93 116.23 L84.12 115.70 L84.30 115.17 L84.45 114.61 L84.60 114.05 L84.72 113.47 L84.84 112.88 L84.93 112.29 L85.01 111.67 L85.07 111.05 L85.11 110.40 L85.15 109.76 L85.16 109.10 L85.16 108.41 L85.15 107.73 L85.11 107.03 L85.07 106.32 L85.01 105.60 L84.93 104.86 L84.84 104.12 L84.74 103.43 L84.55 102.58 L84.32 101.74 L84.03 100.92 L83.71 100.13 L83.33 99.33 L82.91 98.55 L82.44 97.78 L81.93 97.01 L81.38 96.26 L80.79 95.51 L80.15 94.77 L79.47 94.05 L78.77 93.32 L78.02 92.61 L77.24 91.91 L76.43 91.22 L75.59 90.54 L74.73 89.86 L73.84 89.18 L72.93 88.50 L72.01 87.84 L71.07 87.18 L70.11 86.52 L69.14 85.86 L68.16 85.21 L67.17 84.56 L66.17 83.91 L65.17 83.26 L64.17 82.62 L63.16 81.98 L62.17 81.35 L61.16 80.71 L60.18 80.08 L59.20 79.45 L58.21 78.82 L57.26 78.19 L56.31 77.56 L55.38 76.94 L54.47 76.32 L53.57 75.69 L52.70 75.06 L51.86 74.44 L51.04 73.81 L50.24 73.18 L49.48 72.54 L48.75 71.91 L47.82 71.28 Z M47.38 69.38 L46.73 69.96 L46.08 70.56 L45.37 71.14 L44.62 71.71 L43.83 72.27 L43.01 72.83 L42.15 73.38 L41.27 73.92 L40.36 74.46 L39.42 74.99 L38.46 75.53 L37.47 76.06 L36.47 76.59 L35.46 77.11 L34.43 77.65 L33.38 78.18 L32.34 78.71 L31.27 79.26 L30.21 79.80 L29.15 80.35 L28.07 80.91 L27.01 81.47 L25.95 82.05 L24.89 82.64 L23.84 83.24 L22.80 83.85 L21.77 84.49 L20.75 85.13 L19.75 85.79 L18.77 86.47 L17.81 87.17 L16.88 87.89 L15.96 88.63 L15.07 89.38 L14.22 90.16 L13.38 90.95 L12.58 91.78 L11.82 92.62 L11.10 93.48 L10.40 94.38 L9.76 95.30 L9.16 96.25 L8.61 97.23 L8.12 98.24 L7.68 99.28 L7.30 100.35 L6.99 101.45 L6.72 102.65 L6.60 103.50 L6.50 104.34 L6.42 105.18 L6.36 106.01 L6.32 106.83 L6.30 107.64 L6.30 108.44 L6.33 109.22 L6.37 110.00 L6.44 110.77 L6.52 111.52 L6.63 112.27 L6.76 113.00 L6.91 113.73 L7.07 114.44 L7.27 115.14 L7.47 115.83 L7.71 116.50 L7.95 117.16 L8.22 117.82 L8.51 118.45 L8.83 119.07 L9.16 119.68 L9.50 120.28 L9.88 120.86 L10.26 121.42 L10.67 121.98 L11.10 122.52 L11.54 123.04 L12.01 123.55 L12.50 124.04 L13.00 124.51 L13.53 124.97 L14.07 125.41 L14.63 125.84 L15.21 126.25 L15.80 126.64 L16.42 127.02 L17.06 127.38 L17.71 127.73 L18.38 128.05 L19.06 128.36 L19.76 128.65 L20.48 128.93 L21.22 129.19 L21.98 129.43 L22.78 129.67 L23.84 129.91 L24.85 130.00 L25.86 130.07 L26.86 130.15 L27.87 130.22 L28.88 130.29 L29.88 130.35 L30.88 130.41 L31.89 130.47 L32.90 130.52 L33.91 130.57 L34.91 130.62 L35.92 130.67 L36.93 130.71 L37.93 130.74 L38.94 130.78 L39.95 130.81 L40.96 130.83 L41.96 130.86 L42.96 130.88 L43.97 130.89 L44.98 130.90 L45.99 130.91 L46.99 130.92 L48.00 130.92 L49.01 130.92 L50.01 130.91 L51.02 130.90 L52.03 130.89 L53.04 130.88 L54.04 130.86 L55.04 130.83 L56.05 130.81 L57.06 130.78 L58.07 130.74 L59.07 130.71 L60.08 130.67 L61.09 130.62 L62.09 130.57 L63.10 130.52 L64.11 130.47 L65.12 130.41 L66.12 130.35 L67.12 130.29 L68.13 130.22 L69.14 130.15 L70.14 130.07 L71.15 130.00 L72.46 129.86 L73.25 129.65 L74.02 129.43 L74.78 129.19 L75.52 128.93 L76.24 128.65 L76.94 128.36 L77.62 128.05 L78.29 127.73 L78.94 127.38 L79.58 127.02 L80.20 126.64 L80.79 126.25 L81.37 125.84 L81.93 125.41 L82.47 124.97 L83.00 124.51 L83.50 124.04 L83.99 123.55 L84.46 123.04 L84.90 122.52 L85.33 121.98 L85.74 121.42 L86.12 120.86 L86.50 120.28 L86.84 119.68 L87.17 119.07 L87.49 118.45 L87.78 117.82 L88.05 117.16 L88.29 116.50 L88.53 115.83 L88.73 115.14 L88.93 114.44 L89.09 113.73 L89.24 113.00 L89.37 112.27 L89.48 111.52 L89.56 110.77 L89.63 110.00 L89.67 109.22 L89.70 108.44 L89.70 107.64 L89.68 106.83 L89.64 106.01 L89.58 105.18 L89.50 104.34 L89.40 103.50 L89.26 102.57 L89.01 101.45 L88.70 100.35 L88.32 99.28 L87.88 98.24 L87.39 97.23 L86.84 96.25 L86.24 95.30 L85.60 94.38 L84.90 93.48 L84.18 92.62 L83.42 91.78 L82.62 90.95 L81.78 90.16 L80.93 89.38 L80.04 88.63 L79.12 87.89 L78.19 87.17 L77.23 86.47 L76.25 85.79 L75.25 85.13 L74.23 84.49 L73.20 83.85 L72.16 83.24 L71.11 82.64 L70.05 82.05 L68.99 81.47 L67.93 80.91 L66.85 80.35 L65.79 79.80 L64.73 79.26 L63.66 78.71 L62.62 78.18 L61.57 77.65 L60.54 77.11 L59.53 76.59 L58.53 76.06 L57.54 75.53 L56.58 74.99 L55.64 74.46 L54.73 73.92 L53.85 73.38 L52.99 72.83 L52.17 72.27 L51.38 71.71 L50.59 70.97 L50.00 70.43 L49.37 69.84 Z"/>
  <path d="M9.30 104.93 L10.88 104.68 L12.45 104.44 L14.03 104.19 L15.61 103.95 L17.19 103.70 L18.76 103.46 L20.34 103.21 L21.92 102.96 L23.50 102.72 L25.07 102.47 L26.65 102.22 L28.23 101.97 L29.81 101.73 L31.38 101.48 L32.96 101.23 L34.54 100.98 L36.11 100.73 L37.69 100.48 L39.27 100.23 L40.85 99.98 L42.42 99.73 L44.00 99.48 L45.58 99.23 L47.15 98.98 L48.73 98.73 L50.31 98.48 L51.88 98.22 L53.46 97.97 L55.04 97.72 L56.61 97.47 L58.19 97.22 L59.77 96.96 L61.34 96.71 L62.92 96.46 L64.49 96.20 L66.07 95.95 L67.65 95.69 L69.22 95.44 L70.80 95.18 L72.38 94.93 L73.95 94.67 L75.53 94.42 L77.10 94.16 L78.68 93.91 L78.16 90.58 L76.58 90.81 L75.01 91.05 L73.43 91.28 L71.85 91.51 L70.27 91.75 L68.69 91.98 L67.11 92.22 L65.53 92.45 L63.95 92.69 L62.37 92.92 L60.79 93.16 L59.21 93.39 L57.63 93.63 L56.05 93.87 L54.48 94.10 L52.90 94.34 L51.32 94.58 L49.74 94.81 L48.16 95.05 L46.58 95.29 L45.00 95.53 L43.42 95.76 L41.84 96.00 L40.27 96.24 L38.69 96.48 L37.11 96.72 L35.53 96.96 L33.95 97.20 L32.37 97.44 L30.79 97.68 L29.22 97.92 L27.64 98.16 L26.06 98.40 L24.48 98.64 L22.90 98.88 L21.33 99.13 L19.75 99.37 L18.17 99.61 L16.59 99.85 L15.01 100.10 L13.43 100.34 L11.86 100.58 L10.28 100.83 L8.70 101.07 L8.12 101.26 L7.63 101.62 L7.27 102.11 L7.08 102.69 L7.07 103.30 L7.26 103.88 L7.62 104.37 L8.11 104.73 L8.69 104.92 Z"/>
</svg>
