<svg xmlns="http://www.w3.org/2000/svg" viewBox="0 0 96 140" fill="#2A2521" fill-rule="evenodd">
  <path d="M77.78 50.44 L77.19 50.91 L76.59 51.38 L75.98 51.84 L75.36 52.29 L74.73 52.74 L74.09 53.18 L73.45 53.62 L72.79 54.05 L72.14 54.48 L71.47 54.91 L70.80 55.33 L70.12 55.75 L69.45 56.16 L68.76 56.58 L68.08 56.99 L67.39 57.39 L66.70 57.79 L66.01 58.19 L65.32 58.59 L64.63 58.99 L63.94 59.38 L63.26 59.78 L62.57 60.17 L61.89 60.56 L61.21 60.94 L60.54 61.33 L59.87 61.72 L59.20 62.10 L58.54 62.49 L57.89 62.88 L57.25 63.26 L56.61 63.65 L55.98 64.03 L55.36 64.42 L54.75 64.81 L54.15 65.19 L53.56 65.58 L52.99 65.97 L52.42 66.37 L51.87 66.76 L51.33 67.16 L50.81 67.56 L50.30 67.96 L49.81 68.36 L49.33 68.76 L48.87 69.17 L48.43 69.59 L48.00 70.00 L47.57 69.59 L47.13 69.17 L46.67 68.76 L46.19 68.36 L45.70 67.96 L45.19 67.56 L44.67 67.16 L44.13 66.76 L43.58 66.37 L43.01 65.97 L42.44 65.58 L41.85 65.19 L41.25 64.81 L40.64 64.42 L40.02 64.03 L39.39 63.65 L38.75 63.26 L38.11 62.88 L37.46 62.49 L36.80 62.10 L36.13 61.72 L35.46 61.33 L34.79 60.94 L34.11 60.56 L33.43 60.17 L32.74 59.78 L32.06 59.38 L31.37 58.99 L30.68 58.59 L29.99 58.19 L29.30 57.79 L28.61 57.39 L27.92 56.99 L27.24 56.58 L26.55 56.16 L25.88 55.75 L25.20 55.33 L24.53 54.91 L23.86 54.48 L23.21 54.05 L22.55 53.62 L21.91 53.18 L21.27 52.74 L20.64 52.29 L20.02 51.84 L19.41 51.38 L18.81 50.91 L18.22 50.44 Z" fill="#C3B4AC"/>
  <path d="M11.00 102.00 L14.45 101.50 L17.90 101.00 L21.35 100.50 L24.80 100.00 L28.25 99.50 L31.70 99.00 L35.15 98.50 L38.60 98.00 L42.05 97.50 L45.50 97.00 L48.95 96.50 L52.40 96.00 L55.85 95.50 L59.30 95.00 L62.75 94.50 L66.20 94.00 L69.65 93.50 L73.10 93.00 L76.55 92.50 L80.00 92.00 L80.73 92.91 L81.41 93.86 L82.04 94.83 L82.62 95.82 L83.16 96.84 L83.64 97.89 L84.06 98.95 L84.43 100.03 L84.75 101.13 L85.00 102.25 L85.19 103.38 L85.33 104.53 L85.40 105.69 L85.40 106.85 L85.34 108.03 L85.22 109.22 L85.02 110.41 L84.75 111.60 L84.41 112.80 L84.00 114.00 L86.67 114.59 L86.49 115.22 L86.30 115.83 L86.08 116.43 L85.85 117.02 L85.61 117.60 L85.34 118.16 L85.05 118.71 L84.75 119.25 L84.43 119.77 L84.09 120.29 L83.73 120.78 L83.35 121.27 L82.96 121.74 L82.55 122.20 L82.12 122.64 L81.67 123.07 L81.20 123.49 L80.71 123.89 L80.21 124.28 L79.69 124.66 L79.15 125.02 L78.59 125.36 L78.01 125.69 L77.42 126.01 L76.80 126.31 L76.17 126.60 L75.52 126.87 L74.85 127.13 L74.17 127.37 L73.46 127.59 L72.74 127.80 L72.00 128.00 L71.00 128.08 L70.00 128.16 L69.00 128.23 L68.00 128.31 L67.00 128.37 L66.00 128.44 L65.00 128.50 L64.00 128.56 L63.00 128.61 L62.00 128.66 L61.00 128.71 L60.00 128.75 L59.00 128.79 L58.00 128.83 L57.00 128.86 L56.00 128.89 L55.00 128.91 L54.00 128.94 L53.00 128.96 L52.00 128.97 L51.00 128.98 L50.00 128.99 L49.00 129.00 L48.00 129.00 L47.00 129.00 L46.00 128.99 L45.00 128.98 L44.00 128.97 L43.00 128.96 L42.00 128.94 L41.00 128.91 L40.00 128.89 L39.00 128.86 L38.00 128.83 L37.00 128.79 L36.00 128.75 L35.00 128.71 L34.00 128.66 L33.00 128.61 L32.00 128.56 L31.00 128.50 L30.00 128.44 L29.00 128.37 L28.00 128.31 L27.00 128.23 L26.00 128.16 L25.00 128.08 L24.00 128.00 L23.26 127.80 L22.54 127.59 L21.83 127.37 L21.15 127.13 L20.48 126.87 L19.83 126.60 L19.20 126.31 L18.58 126.01 L17.99 125.69 L17.41 125.36 L16.85 125.02 L16.31 124.66 L15.79 124.28 L15.29 123.89 L14.80 123.49 L14.33 123.07 L13.88 122.64 L13.45 122.20 L13.04 121.74 L12.65 121.27 L12.27 120.78 L11.91 120.29 L11.57 119.77 L11.25 119.25 L10.95 118.71 L10.66 118.16 L10.39 117.60 L10.15 117.02 L9.92 116.43 L9.70 115.83 L9.51 115.22 L9.33 114.59 L9.18 113.95 L9.04 113.30 L8.92 112.64 L8.81 111.97 L8.73 111.28 L8.66 110.59 L8.61 109.88 L8.58 109.16 L8.57 108.43 L8.58 107.68 L8.60 106.93 L8.65 106.17 L8.71 105.39 L8.79 104.60 L8.88 103.81 L9.00 103.00 L9.22 102.01 Z" fill="#C3B4AC"/>
  <path d="M49.45 68.55 L48.76 67.87 L48.03 67.20 L47.27 66.53 L46.49 65.87 L45.69 65.21 L44.85 64.55 L44.00 63.90 L43.12 63.24 L42.23 62.59 L41.32 61.94 L40.39 61.28 L39.45 60.63 L38.49 59.97 L37.53 59.31 L36.55 58.66 L35.57 58.00 L34.59 57.34 L33.60 56.67 L32.62 56.01 L31.64 55.35 L30.66 54.68 L29.68 54.01 L28.72 53.35 L27.77 52.68 L26.82 52.01 L25.90 51.34 L24.99 50.67 L24.09 50.00 L23.22 49.33 L22.37 48.67 L21.54 48.00 L20.74 47.34 L19.97 46.67 L19.23 45.99 L18.53 45.31 L17.87 44.63 L17.25 43.94 L16.66 43.25 L16.12 42.56 L15.62 41.87 L15.17 41.18 L14.76 40.48 L14.39 39.78 L14.06 39.08 L13.78 38.38 L13.54 37.67 L13.34 36.95 L13.20 36.35 L13.10 35.63 L13.01 34.92 L12.93 34.23 L12.87 33.55 L12.82 32.88 L12.78 32.23 L12.76 31.59 L12.75 30.96 L12.76 30.35 L12.78 29.75 L12.82 29.16 L12.86 28.59 L12.93 28.03 L13.00 27.48 L13.09 26.95 L13.20 26.43 L13.32 25.92 L13.45 25.42 L13.60 24.94 L13.76 24.46 L13.93 24.00 L14.12 23.55 L14.33 23.12 L14.55 22.69 L14.78 22.27 L15.03 21.87 L15.29 21.47 L15.57 21.09 L15.87 20.72 L16.18 20.35 L16.51 20.00 L16.86 19.66 L17.22 19.32 L17.60 19.00 L17.99 18.68 L18.41 18.38 L18.84 18.08 L19.29 17.80 L19.76 17.52 L20.25 17.26 L20.76 17.00 L21.29 16.76 L21.84 16.53 L22.41 16.31 L23.00 16.10 L23.61 15.90 L24.24 15.72 L24.30 15.64 L25.29 15.56 L26.28 15.48 L27.27 15.41 L28.25 15.34 L29.24 15.27 L30.23 15.21 L31.22 15.15 L32.20 15.09 L33.19 15.04 L34.18 14.99 L35.16 14.94 L36.15 14.90 L37.14 14.86 L38.13 14.82 L39.11 14.79 L40.10 14.76 L41.09 14.73 L42.08 14.71 L43.06 14.69 L44.05 14.68 L45.04 14.67 L46.03 14.66 L47.01 14.65 L48.00 14.65 L48.99 14.65 L49.97 14.66 L50.96 14.67 L51.95 14.68 L52.94 14.69 L53.92 14.71 L54.91 14.73 L55.90 14.76 L56.89 14.79 L57.87 14.82 L58.86 14.86 L59.85 14.90 L60.84 14.94 L61.82 14.99 L62.81 15.04 L63.80 15.09 L64.78 15.15 L65.77 15.21 L66.76 15.27 L67.75 15.34 L68.73 15.41 L69.72 15.48 L70.71 15.56 L71.11 15.55 L71.76 15.72 L72.39 15.90 L73.00 16.10 L73.59 16.31 L74.16 16.53 L74.71 16.76 L75.24 17.00 L75.75 17.26 L76.24 17.52 L76.71 17.80 L77.16 18.08 L77.59 18.38 L78.01 18.68 L78.40 19.00 L78.78 19.32 L79.14 19.66 L79.49 20.00 L79.82 20.35 L80.13 20.72 L80.43 21.09 L80.71 21.47 L80.97 21.87 L81.22 22.27 L81.45 22.69 L81.67 23.12 L81.88 23.55 L82.07 24.00 L82.24 24.46 L82.40 24.94 L82.55 25.42 L82.68 25.92 L82.80 26.43 L82.91 26.95 L83.00 27.48 L83.07 28.03 L83.14 28.59 L83.18 29.16 L83.22 29.75 L83.24 30.35 L83.25 30.96 L83.24 31.59 L83.22 32.23 L83.18 32.88 L83.13 33.55 L83.07 34.23 L82.99 34.92 L82.90 35.63 L82.82 36.22 L82.66 36.95 L82.46 37.67 L82.22 38.38 L81.94 39.08 L81.61 39.78 L81.24 40.48 L80.83 41.18 L80.38 41.87 L79.88 42.56 L79.34 43.25 L78.75 43.94 L78.13 44.63 L77.47 45.31 L76.77 45.99 L76.03 46.67 L75.26 47.34 L74.46 48.00 L73.63 48.67 L72.78 49.33 L71.91 50.00 L71.01 50.67 L70.10 51.34 L69.18 52.01 L68.23 52.68 L67.28 53.35 L66.32 54.01 L65.34 54.68 L64.36 55.35 L63.38 56.01 L62.40 56.67 L61.41 57.34 L60.43 58.00 L59.45 58.66 L58.47 59.31 L57.51 59.97 L56.55 60.63 L55.61 61.28 L54.68 61.94 L53.77 62.59 L52.88 63.24 L52.00 63.90 L51.15 64.55 L50.31 65.21 L49.51 65.87 L48.73 66.53 L47.97 67.20 L47.24 67.87 Z" fill="none" stroke="#FFFFFF" stroke-width="3.4" stroke-linejoin="round" stroke-linecap="round"/>
  <path d="M46.55 68.55 L45.95 69.11 L45.31 69.67 L44.62 70.22 L43.89 70.76 L43.11 71.29 L42.30 71.82 L41.45 72.34 L40.57 72.86 L39.66 73.37 L38.72 73.87 L37.76 74.38 L36.77 74.88 L35.77 75.38 L34.74 75.88 L33.70 76.38 L32.65 76.89 L31.58 77.39 L30.51 77.91 L29.43 78.43 L28.34 78.96 L27.25 79.49 L26.16 80.04 L25.07 80.60 L23.98 81.18 L22.90 81.77 L21.83 82.37 L20.77 83.00 L19.72 83.64 L18.69 84.31 L17.67 85.00 L16.68 85.71 L15.71 86.45 L14.75 87.21 L13.82 87.99 L12.92 88.80 L12.04 89.63 L11.19 90.49 L10.37 91.38 L9.59 92.30 L8.85 93.26 L8.15 94.25 L7.50 95.28 L6.89 96.34 L6.35 97.44 L5.87 98.58 L5.45 99.76 L5.10 100.97 L4.80 102.35 L4.67 103.25 L4.57 104.13 L4.49 105.01 L4.43 105.88 L4.39 106.74 L4.37 107.60 L4.38 108.44 L4.41 109.28 L4.47 110.10 L4.54 110.92 L4.64 111.73 L4.76 112.53 L4.90 113.32 L5.07 114.09 L5.26 114.86 L5.47 115.61 L5.70 116.35 L5.96 117.08 L6.24 117.80 L6.53 118.51 L6.86 119.20 L7.20 119.88 L7.57 120.54 L7.95 121.19 L8.36 121.82 L8.79 122.44 L9.24 123.04 L9.72 123.63 L10.21 124.20 L10.72 124.75 L11.26 125.29 L11.81 125.80 L12.38 126.30 L12.98 126.78 L13.59 127.25 L14.22 127.69 L14.86 128.11 L15.53 128.52 L16.21 128.91 L16.91 129.28 L17.63 129.63 L18.36 129.96 L19.11 130.27 L19.88 130.56 L20.67 130.83 L21.47 131.09 L22.28 131.33 L23.70 131.64 L24.71 131.72 L25.72 131.80 L26.73 131.88 L27.75 131.95 L28.76 132.02 L29.77 132.08 L30.78 132.14 L31.80 132.20 L32.81 132.26 L33.82 132.31 L34.84 132.35 L35.85 132.40 L36.86 132.44 L37.87 132.47 L38.89 132.51 L39.90 132.54 L40.91 132.56 L41.92 132.59 L42.94 132.61 L43.95 132.62 L44.96 132.63 L45.97 132.64 L46.99 132.65 L48.00 132.65 L49.01 132.65 L50.03 132.64 L51.04 132.63 L52.05 132.62 L53.06 132.61 L54.08 132.59 L55.09 132.56 L56.10 132.54 L57.11 132.51 L58.13 132.47 L59.14 132.44 L60.15 132.40 L61.16 132.35 L62.18 132.31 L63.19 132.26 L64.20 132.20 L65.22 132.14 L66.23 132.08 L67.24 132.02 L68.25 131.95 L69.27 131.88 L70.28 131.80 L71.29 131.72 L72.89 131.55 L73.72 131.33 L74.53 131.09 L75.33 130.83 L76.12 130.56 L76.89 130.27 L77.64 129.96 L78.37 129.63 L79.09 129.28 L79.79 128.91 L80.47 128.52 L81.14 128.11 L81.78 127.69 L82.41 127.25 L83.02 126.78 L83.62 126.30 L84.19 125.80 L84.74 125.29 L85.28 124.75 L85.79 124.20 L86.28 123.63 L86.76 123.04 L87.21 122.44 L87.64 121.82 L88.05 121.19 L88.43 120.54 L88.80 119.88 L89.14 119.20 L89.47 118.51 L89.76 117.80 L90.04 117.08 L90.30 116.35 L90.53 115.61 L90.74 114.86 L90.93 114.09 L91.10 113.32 L91.24 112.53 L91.36 111.73 L91.46 110.92 L91.53 110.10 L91.59 109.28 L91.62 108.44 L91.63 107.60 L91.61 106.74 L91.57 105.88 L91.51 105.01 L91.43 104.13 L91.33 103.25 L91.18 102.22 L90.90 100.97 L90.55 99.76 L90.13 98.58 L89.65 97.44 L89.11 96.34 L88.50 95.28 L87.85 94.25 L87.15 93.26 L86.41 92.30 L85.63 91.38 L84.81 90.49 L83.96 89.63 L83.08 88.80 L82.18 87.99 L81.25 87.21 L80.29 86.45 L79.32 85.71 L78.33 85.00 L77.31 84.31 L76.28 83.64 L75.23 83.00 L74.17 82.37 L73.10 81.77 L72.02 81.18 L70.93 80.60 L69.84 80.04 L68.75 79.49 L67.66 78.96 L66.57 78.43 L65.49 77.91 L64.42 77.39 L63.35 76.89 L62.30 76.38 L61.26 75.88 L60.23 75.38 L59.23 74.88 L58.24 74.38 L57.28 73.87 L56.34 73.37 L55.43 72.86 L54.55 72.34 L53.70 71.82 L52.89 71.29 L52.11 70.76 L51.38 70.22 L50.69 69.67 L50.05 69.11 Z" fill="none" stroke="#FFFFFF" stroke-width="3.4" stroke-linejoin="round" stroke-linecap="round"/>
  <path d="M11.39 104.72 L12.93 104.50 L14.46 104.28 L15.99 104.05 L17.53 103.83 L19.06 103.61 L20.59 103.38 L22.13 103.16 L23.66 102.93 L25.19 102.71 L26.73 102.49 L28.26 102.26 L29.79 102.03 L31.32 101.81 L32.86 101.58 L34.39 101.36 L35.92 101.13 L37.46 100.90 L38.99 100.68 L40.52 100.45 L42.05 100.22 L43.59 99.99 L45.12 99.76 L46.65 99.54 L48.18 99.31 L49.71 99.08 L51.25 98.85 L52.78 98.62 L54.31 98.39 L55.84 98.16 L57.38 97.93 L58.91 97.70 L60.44 97.47 L61.97 97.24 L63.50 97.01 L65.04 96.77 L66.57 96.54 L68.10 96.31 L69.63 96.08 L71.16 95.85 L72.70 95.61 L74.23 95.38 L75.76 95.15 L77.29 94.91 L78.82 94.68 L78.10 93.58 L78.41 93.94 L78.71 94.30 L79.00 94.67 L79.28 95.04 L79.55 95.41 L79.82 95.80 L80.07 96.18 L80.32 96.57 L80.56 96.97 L80.79 97.37 L81.01 97.77 L81.23 98.18 L81.43 98.59 L81.62 99.00 L81.81 99.42 L81.98 99.84 L82.15 100.27 L82.30 100.70 L82.45 101.13 L82.58 101.57 L82.71 102.01 L82.82 102.45 L82.93 102.90 L83.02 103.35 L83.11 103.80 L83.18 104.25 L83.24 104.71 L83.29 105.17 L83.33 105.64 L83.36 106.10 L83.38 106.57 L83.38 107.04 L83.38 107.52 L83.36 107.99 L83.33 108.47 L83.29 108.95 L83.23 109.44 L83.16 109.92 L83.08 110.41 L82.99 110.90 L82.88 111.39 L82.76 111.88 L82.62 112.37 L82.48 112.87 L82.31 113.37 L82.20 113.92 L82.26 114.48 L82.50 114.99 L82.88 115.41 L83.37 115.69 L83.92 115.80 L84.48 115.74 L84.99 115.50 L85.41 115.12 L85.69 114.63 L85.91 114.06 L86.12 113.49 L86.31 112.92 L86.49 112.35 L86.65 111.78 L86.80 111.20 L86.93 110.63 L87.04 110.05 L87.15 109.48 L87.23 108.91 L87.31 108.33 L87.37 107.76 L87.41 107.19 L87.44 106.62 L87.45 106.04 L87.45 105.48 L87.44 104.91 L87.41 104.34 L87.37 103.78 L87.32 103.22 L87.25 102.66 L87.17 102.10 L87.07 101.55 L86.96 101.00 L86.84 100.45 L86.71 99.91 L86.56 99.37 L86.40 98.83 L86.23 98.29 L86.04 97.76 L85.85 97.24 L85.64 96.72 L85.42 96.20 L85.19 95.69 L84.94 95.18 L84.69 94.68 L84.42 94.19 L84.14 93.69 L83.85 93.21 L83.55 92.73 L83.24 92.25 L82.92 91.79 L82.59 91.32 L82.25 90.87 L81.90 90.42 L78.11 89.76 L76.58 89.98 L75.04 90.19 L73.51 90.40 L71.97 90.61 L70.44 90.82 L68.90 91.03 L67.37 91.25 L65.83 91.46 L64.30 91.67 L62.76 91.88 L61.23 92.10 L59.69 92.31 L58.16 92.52 L56.62 92.74 L55.09 92.95 L53.55 93.17 L52.02 93.38 L50.49 93.60 L48.95 93.81 L47.42 94.03 L45.88 94.24 L44.35 94.46 L42.81 94.67 L41.28 94.89 L39.75 95.11 L38.21 95.32 L36.68 95.54 L35.14 95.76 L33.61 95.98 L32.08 96.20 L30.54 96.41 L29.01 96.63 L27.47 96.85 L25.94 97.07 L24.41 97.29 L22.87 97.51 L21.34 97.73 L19.81 97.95 L18.27 98.17 L16.74 98.39 L15.21 98.61 L13.67 98.83 L12.14 99.06 L10.61 99.28 L9.78 99.53 L9.08 100.03 L8.57 100.72 L8.29 101.53 L8.28 102.39 L8.53 103.22 L9.03 103.92 L9.72 104.43 L10.53 104.71 Z" fill="none" stroke="#FFFFFF" stroke-width="3.4" stroke-linejoin="round" stroke-linecap="round"/>
  <path d="M49.45 68.55 L48.76 67.87 L48.03 67.20 L47.27 66.53 L46.49 65.87 L45.69 65.21 L44.85 64.55 L44.00 63.90 L43.12 63.24 L42.23 62.59 L41.32 61.94 L40.39 61.28 L39.45 60.63 L38.49 59.97 L37.53 59.31 L36.55 58.66 L35.57 58.00 L34.59 57.34 L33.60 56.67 L32.62 56.01 L31.64 55.35 L30.66 54.68 L29.68 54.01 L28.72 53.35 L27.77 52.68 L26.82 52.01 L25.90 51.34 L24.99 50.67 L24.09 50.00 L23.22 49.33 L22.37 48.67 L21.54 48.00 L20.74 47.34 L19.97 46.67 L19.23 45.99 L18.53 45.31 L17.87 44.63 L17.25 43.94 L16.66 43.25 L16.12 42.56 L15.62 41.87 L15.17 41.18 L14.76 40.48 L14.39 39.78 L14.06 39.08 L13.78 38.38 L13.54 37.67 L13.34 36.95 L13.20 36.35 L13.10 35.63 L13.01 34.92 L12.93 34.23 L12.87 33.55 L12.82 32.88 L12.78 32.23 L12.76 31.59 L12.75 30.96 L12.76 30.35 L12.78 29.75 L12.82 29.16 L12.86 28.59 L12.93 28.03 L13.00 27.48 L13.09 26.95 L13.20 26.43 L13.32 25.92 L13.45 25.42 L13.60 24.94 L13.76 24.46 L13.93 24.00 L14.12 23.55 L14.33 23.12 L14.55 22.69 L14.78 22.27 L15.03 21.87 L15.29 21.47 L15.57 21.09 L15.87 20.72 L16.18 20.35 L16.51 20.00 L16.86 19.66 L17.22 19.32 L17.60 19.00 L17.99 18.68 L18.41 18.38 L18.84 18.08 L19.29 17.80 L19.76 17.52 L20.25 17.26 L20.76 17.00 L21.29 16.76 L21.84 16.53 L22.41 16.31 L23.00 16.10 L23.61 15.90 L24.24 15.72 L24.30 15.64 L25.29 15.56 L26.28 15.48 L27.27 15.41 L28.25 15.34 L29.24 15.27 L30.23 15.21 L31.22 15.15 L32.20 15.09 L33.19 15.04 L34.18 14.99 L35.16 14.94 L36.15 14.90 L37.14 14.86 L38.13 14.82 L39.11 14.79 L40.10 14.76 L41.09 14.73 L42.08 14.71 L43.06 14.69 L44.05 14.68 L45.04 14.67 L46.03 14.66 L47.01 14.65 L48.00 14.65 L48.99 14.65 L49.97 14.66 L50.96 14.67 L51.95 14.68 L52.94 14.69 L53.92 14.71 L54.91 14.73 L55.90 14.76 L56.89 14.79 L57.87 14.82 L58.86 14.86 L59.85 14.90 L60.84 14.94 L61.82 14.99 L62.81 15.04 L63.80 15.09 L64.78 15.15 L65.77 15.21 L66.76 15.27 L67.75 15.34 L68.73 15.41 L69.72 15.48 L70.71 15.56 L71.11 15.55 L71.76 15.72 L72.39 15.90 L73.00 16.10 L73.59 16.31 L74.16 16.53 L74.71 16.76 L75.24 17.00 L75.75 17.26 L76.24 17.52 L76.71 17.80 L77.16 18.08 L77.59 18.38 L78.01 18.68 L78.40 19.00 L78.78 19.32 L79.14 19.66 L79.49 20.00 L79.82 20.35 L80.13 20.72 L80.43 21.09 L80.71 21.47 L80.97 21.87 L81.22 22.27 L81.45 22.69 L81.67 23.12 L81.88 23.55 L82.07 24.00 L82.24 24.46 L82.40 24.94 L82.55 25.42 L82.68 25.92 L82.80 26.43 L82.91 26.95 L83.00 27.48 L83.07 28.03 L83.14 28.59 L83.18 29.16 L83.22 29.75 L83.24 30.35 L83.25 30.96 L83.24 31.59 L83.22 32.23 L83.18 32.88 L83.13 33.55 L83.07 34.23 L82.99 34.92 L82.90 35.63 L82.82 36.22 L82.66 36.95 L82.46 37.67 L82.22 38.38 L81.94 39.08 L81.61 39.78 L81.24 40.48 L80.83 41.18 L80.38 41.87 L79.88 42.56 L79.34 43.25 L78.75 43.94 L78.13 44.63 L77.47 45.31 L76.77 45.99 L76.03 46.67 L75.26 47.34 L74.46 48.00 L73.63 48.67 L72.78 49.33 L71.91 50.00 L71.01 50.67 L70.10 51.34 L69.18 52.01 L68.23 52.68 L67.28 53.35 L66.32 54.01 L65.34 54.68 L64.36 55.35 L63.38 56.01 L62.40 56.67 L61.41 57.34 L60.43 58.00 L59.45 58.66 L58.47 59.31 L57.51 59.97 L56.55 60.63 L55.61 61.28 L54.68 61.94 L53.77 62.59 L52.88 63.24 L52.00 63.90 L51.15 64.55 L50.31 65.21 L49.51 65.87 L48.73 66.53 L47.97 67.20 L47.24 67.87 Z M46.55 71.45 L45.95 70.89 L45.31 70.33 L44.62 69.78 L43.89 69.24 L43.11 68.71 L42.30 68.18 L41.45 67.66 L40.57 67.14 L39.66 66.63 L38.72 66.13 L37.76 65.62 L36.77 65.12 L35.77 64.62 L34.74 64.12 L33.70 63.62 L32.65 63.11 L31.58 62.61 L30.51 62.09 L29.43 61.57 L28.34 61.04 L27.25 60.51 L26.16 59.96 L25.07 59.40 L23.98 58.82 L22.90 58.23 L21.83 57.63 L20.77 57.00 L19.72 56.36 L18.69 55.69 L17.67 55.00 L16.68 54.29 L15.71 53.55 L14.75 52.79 L13.82 52.01 L12.92 51.20 L12.04 50.37 L11.19 49.51 L10.37 48.62 L9.59 47.70 L8.85 46.74 L8.15 45.75 L7.50 44.72 L6.89 43.66 L6.35 42.56 L5.87 41.42 L5.45 40.24 L5.10 39.03 L4.80 37.65 L4.67 36.75 L4.57 35.87 L4.49 34.99 L4.43 34.12 L4.39 33.26 L4.37 32.40 L4.38 31.56 L4.41 30.72 L4.47 29.90 L4.54 29.08 L4.64 28.27 L4.76 27.47 L4.90 26.68 L5.07 25.91 L5.26 25.14 L5.47 24.39 L5.70 23.65 L5.96 22.92 L6.24 22.20 L6.53 21.49 L6.86 20.80 L7.20 20.12 L7.57 19.46 L7.95 18.81 L8.36 18.18 L8.79 17.56 L9.24 16.96 L9.72 16.37 L10.21 15.80 L10.72 15.25 L11.26 14.71 L11.81 14.20 L12.38 13.70 L12.98 13.22 L13.59 12.75 L14.22 12.31 L14.86 11.89 L15.53 11.48 L16.21 11.09 L16.91 10.72 L17.63 10.37 L18.36 10.04 L19.11 9.73 L19.88 9.44 L20.67 9.17 L21.47 8.91 L22.28 8.67 L23.70 8.36 L24.71 8.28 L25.72 8.20 L26.73 8.12 L27.75 8.05 L28.76 7.98 L29.77 7.92 L30.78 7.86 L31.80 7.80 L32.81 7.74 L33.82 7.69 L34.84 7.65 L35.85 7.60 L36.86 7.56 L37.87 7.53 L38.89 7.49 L39.90 7.46 L40.91 7.44 L41.92 7.41 L42.94 7.39 L43.95 7.38 L44.96 7.37 L45.97 7.36 L46.99 7.35 L48.00 7.35 L49.01 7.35 L50.03 7.36 L51.04 7.37 L52.05 7.38 L53.06 7.39 L54.08 7.41 L55.09 7.44 L56.10 7.46 L57.11 7.49 L58.13 7.53 L59.14 7.56 L60.15 7.60 L61.16 7.65 L62.18 7.69 L63.19 7.74 L64.20 7.80 L65.22 7.86 L66.23 7.92 L67.24 7.98 L68.25 8.05 L69.27 8.12 L70.28 8.20 L71.29 8.28 L72.89 8.45 L73.72 8.67 L74.53 8.91 L75.33 9.17 L76.12 9.44 L76.89 9.73 L77.64 10.04 L78.37 10.37 L79.09 10.72 L79.79 11.09 L80.47 11.48 L81.14 11.89 L81.78 12.31 L82.41 12.75 L83.02 13.22 L83.62 13.70 L84.19 14.20 L84.74 14.71 L85.28 15.25 L85.79 15.80 L86.28 16.37 L86.76 16.96 L87.21 17.56 L87.64 18.18 L88.05 18.81 L88.43 19.46 L88.80 20.12 L89.14 20.80 L89.47 21.49 L89.76 22.20 L90.04 22.92 L90.30 23.65 L90.53 24.39 L90.74 25.14 L90.93 25.91 L91.10 26.68 L91.24 27.47 L91.36 28.27 L91.46 29.08 L91.53 29.90 L91.59 30.72 L91.62 31.56 L91.63 32.40 L91.61 33.26 L91.57 34.12 L91.51 34.99 L91.43 35.87 L91.33 36.75 L91.18 37.78 L90.90 39.03 L90.55 40.24 L90.13 41.42 L89.65 42.56 L89.11 43.66 L88.50 44.72 L87.85 45.75 L87.15 46.74 L86.41 47.70 L85.63 48.62 L84.81 49.51 L83.96 50.37 L83.08 51.20 L82.18 52.01 L81.25 52.79 L80.29 53.55 L79.32 54.29 L78.33 55.00 L77.31 55.69 L76.28 56.36 L75.23 57.00 L74.17 57.63 L73.10 58.23 L72.02 58.82 L70.93 59.40 L69.84 59.96 L68.75 60.51 L67.66 61.04 L66.57 61.57 L65.49 62.09 L64.42 62.61 L63.35 63.11 L62.30 63.62 L61.26 64.12 L60.23 64.62 L59.23 65.12 L58.24 65.62 L57.28 66.13 L56.34 66.63 L55.43 67.14 L54.55 67.66 L53.70 68.18 L52.89 68.71 L52.11 69.24 L51.38 69.78 L50.69 70.33 L50.05 70.89 Z"/>
  <path d="M46.55 68.55 L45.95 69.11 L45.31 69.67 L44.62 70.22 L43.89 70.76 L43.11 71.29 L42.30 71.82 L41.45 72.34 L40.57 72.86 L39.66 73.37 L38.72 73.87 L37.76 74.38 L36.77 74.88 L35.77 75.38 L34.74 75.88 L33.70 76.38 L32.65 76.89 L31.58 77.39 L30.51 77.91 L29.43 78.43 L28.34 78.96 L27.25 79.49 L26.16 80.04 L25.07 80.60 L23.98 81.18 L22.90 81.77 L21.83 82.37 L20.77 83.00 L19.72 83.64 L18.69 84.31 L17.67 85.00 L16.68 85.71 L15.71 86.45 L14.75 87.21 L13.82 87.99 L12.92 88.80 L12.04 89.63 L11.19 90.49 L10.37 91.38 L9.59 92.30 L8.85 93.26 L8.15 94.25 L7.50 95.28 L6.89 96.34 L6.35 97.44 L5.87 98.58 L5.45 99.76 L5.10 100.97 L4.80 102.35 L4.67 103.25 L4.57 104.13 L4.49 105.01 L4.43 105.88 L4.39 106.74 L4.37 107.60 L4.38 108.44 L4.41 109.28 L4.47 110.10 L4.54 110.92 L4.64 111.73 L4.76 112.53 L4.90 113.32 L5.07 114.09 L5.26 114.86 L5.47 115.61 L5.70 116.35 L5.96 117.08 L6.24 117.80 L6.53 118.51 L6.86 119.20 L7.20 119.88 L7.57 120.54 L7.95 121.19 L8.36 121.82 L8.79 122.44 L9.24 123.04 L9.72 123.63 L10.21 124.20 L10.72 124.75 L11.26 125.29 L11.81 125.80 L12.38 126.30 L12.98 126.78 L13.59 127.25 L14.22 127.69 L14.86 128.11 L15.53 128.52 L16.21 128.91 L16.91 129.28 L17.63 129.63 L18.36 129.96 L19.11 130.27 L19.88 130.56 L20.67 130.83 L21.47 131.09 L22.28 131.33 L23.70 131.64 L24.71 131.72 L25.72 131.80 L26.73 131.88 L27.75 131.95 L28.76 132.02 L29.77 132.08 L30.78 132.14 L31.80 132.20 L32.81 132.26 L33.82 132.31 L34.84 132.35 L35.85 132.40 L36.86 132.44 L37.87 132.47 L38.89 132.51 L39.90 132.54 L40.91 132.56 L41.92 132.59 L42.94 132.61 L43.95 132.62 L44.96 132.63 L45.97 132.64 L46.99 132.65 L48.00 132.65 L49.01 132.65 L50.03 132.64 L51.04 132.63 L52.05 132.62 L53.06 132.61 L54.08 132.59 L55.09 132.56 L56.10 132.54 L57.11 132.51 L58.13 132.47 L59.14 132.44 L60.15 132.40 L61.16 132.35 L62.18 132.31 L63.19 132.26 L64.20 132.20 L65.22 132.14 L66.23 132.08 L67.24 132.02 L68.25 131.95 L69.27 131.88 L70.28 131.80 L71.29 131.72 L72.89 131.55 L73.72 131.33 L74.53 131.09 L75.33 130.83 L76.12 130.56 L76.89 130.27 L77.64 129.96 L78.37 129.63 L79.09 129.28 L79.79 128.91 L80.47 128.52 L81.14 128.11 L81.78 127.69 L82.41 127.25 L83.02 126.78 L83.62 126.30 L84.19 125.80 L84.74 125.29 L85.28 124.75 L85.79 124.20 L86.28 123.63 L86.76 123.04 L87.21 122.44 L87.64 121.82 L88.05 121.19 L88.43 120.54 L88.80 119.88 L89.14 119.20 L89.47 118.51 L89.76 117.80 L90.04 117.08 L90.30 116.35 L90.53 115.61 L90.74 114.86 L90.93 114.09 L91.10 113.32 L91.24 112.53 L91.36 111.73 L91.46 110.92 L91.53 110.10 L91.59 109.28 L91.62 108.44 L91.63 107.60 L91.61 106.74 L91.57 105.88 L91.51 105.01 L91.43 104.13 L91.33 103.25 L91.18 102.22 L90.90 100.97 L90.55 99.76 L90.13 98.58 L89.65 97.44 L89.11 96.34 L88.50 95.28 L87.85 94.25 L87.15 93.26 L86.41 92.30 L85.63 91.38 L84.81 90.49 L83.96 89.63 L83.08 88.80 L82.18 87.99 L81.25 87.21 L80.29 86.45 L79.32 85.71 L78.33 85.00 L77.31 84.31 L76.28 83.64 L75.23 83.00 L74.17 82.37 L73.10 81.77 L72.02 81.18 L70.93 80.60 L69.84 80.04 L68.75 79.49 L67.66 78.96 L66.57 78.43 L65.49 77.91 L64.42 77.39 L63.35 76.89 L62.30 76.38 L61.26 75.88 L60.23 75.38 L59.23 74.88 L58.24 74.38 L57.28 73.87 L56.34 73.37 L55.43 72.86 L54.55 72.34 L53.70 71.82 L52.89 71.29 L52.11 70.76 L51.38 70.22 L50.69 69.67 L50.05 69.11 Z M49.45 71.45 L48.76 72.13 L48.03 72.80 L47.27 73.47 L46.49 74.13 L45.69 74.79 L44.85 75.45 L44.00 76.10 L43.12 76.76 L42.23 77.41 L41.32 78.06 L40.39 78.72 L39.45 79.37 L38.49 80.03 L37.53 80.69 L36.55 81.34 L35.57 82.00 L34.59 82.66 L33.60 83.33 L32.62 83.99 L31.64 84.65 L30.66 85.32 L29.68 85.99 L28.72 86.65 L27.77 87.32 L26.82 87.99 L25.90 88.66 L24.99 89.33 L24.09 90.00 L23.22 90.67 L22.37 91.33 L21.54 92.00 L20.74 92.66 L19.97 93.33 L19.23 94.01 L18.53 94.69 L17.87 95.37 L17.25 96.06 L16.66 96.75 L16.12 97.44 L15.62 98.13 L15.17 98.82 L14.76 99.52 L14.39 100.22 L14.06 100.92 L13.78 101.62 L13.54 102.33 L13.34 103.05 L13.20 103.65 L13.10 104.37 L13.01 105.08 L12.93 105.77 L12.87 106.45 L12.82 107.12 L12.78 107.77 L12.76 108.41 L12.75 109.04 L12.76 109.65 L12.78 110.25 L12.82 110.84 L12.86 111.41 L12.93 111.97 L13.00 112.52 L13.09 113.05 L13.20 113.57 L13.32 114.08 L13.45 114.58 L13.60 115.06 L13.76 115.54 L13.93 116.00 L14.12 116.45 L14.33 116.88 L14.55 117.31 L14.78 117.73 L15.03 118.13 L15.29 118.53 L15.57 118.91 L15.87 119.28 L16.18 119.65 L16.51 120.00 L16.86 120.34 L17.22 120.68 L17.60 121.00 L17.99 121.32 L18.41 121.62 L18.84 121.92 L19.29 122.20 L19.76 122.48 L20.25 122.74 L20.76 123.00 L21.29 123.24 L21.84 123.47 L22.41 123.69 L23.00 123.90 L23.61 124.10 L24.24 124.28 L24.30 124.36 L25.29 124.44 L26.28 124.52 L27.27 124.59 L28.25 124.66 L29.24 124.73 L30.23 124.79 L31.22 124.85 L32.20 124.91 L33.19 124.96 L34.18 125.01 L35.16 125.06 L36.15 125.10 L37.14 125.14 L38.13 125.18 L39.11 125.21 L40.10 125.24 L41.09 125.27 L42.08 125.29 L43.06 125.31 L44.05 125.32 L45.04 125.33 L46.03 125.34 L47.01 125.35 L48.00 125.35 L48.99 125.35 L49.97 125.34 L50.96 125.33 L51.95 125.32 L52.94 125.31 L53.92 125.29 L54.91 125.27 L55.90 125.24 L56.89 125.21 L57.87 125.18 L58.86 125.14 L59.85 125.10 L60.84 125.06 L61.82 125.01 L62.81 124.96 L63.80 124.91 L64.78 124.85 L65.77 124.79 L66.76 124.73 L67.75 124.66 L68.73 124.59 L69.72 124.52 L70.71 124.44 L71.11 124.45 L71.76 124.28 L72.39 124.10 L73.00 123.90 L73.59 123.69 L74.16 123.47 L74.71 123.24 L75.24 123.00 L75.75 122.74 L76.24 122.48 L76.71 122.20 L77.16 121.92 L77.59 121.62 L78.01 121.32 L78.40 121.00 L78.78 120.68 L79.14 120.34 L79.49 120.00 L79.82 119.65 L80.13 119.28 L80.43 118.91 L80.71 118.53 L80.97 118.13 L81.22 117.73 L81.45 117.31 L81.67 116.88 L81.88 116.45 L82.07 116.00 L82.24 115.54 L82.40 115.06 L82.55 114.58 L82.68 114.08 L82.80 113.57 L82.91 113.05 L83.00 112.52 L83.07 111.97 L83.14 111.41 L83.18 110.84 L83.22 110.25 L83.24 109.65 L83.25 109.04 L83.24 108.41 L83.22 107.77 L83.18 107.12 L83.13 106.45 L83.07 105.77 L82.99 105.08 L82.90 104.37 L82.82 103.78 L82.66 103.05 L82.46 102.33 L82.22 101.62 L81.94 100.92 L81.61 100.22 L81.24 99.52 L80.83 98.82 L80.38 98.13 L79.88 97.44 L79.34 96.75 L78.75 96.06 L78.13 95.37 L77.47 94.69 L76.77 94.01 L76.03 93.33 L75.26 92.66 L74.46 92.00 L73.63 91.33 L72.78 90.67 L71.91 90.00 L71.01 89.33 L70.10 88.66 L69.18 87.99 L68.23 87.32 L67.28 86.65 L66.32 85.99 L65.34 85.32 L64.36 84.65 L63.38 83.99 L62.40 83.33 L61.41 82.66 L60.43 82.00 L59.45 81.34 L58.47 80.69 L57.51 80.03 L56.55 79.37 L55.61 78.72 L54.68 78.06 L53.77 77.41 L52.88 76.76 L52.00 76.10 L51.15 75.45 L50.31 74.79 L49.51 74.13 L48.73 73.47 L47.97 72.80 L47.24 72.13 Z"/>
  <path d="M11.39 104.72 L12.93 104.50 L14.46 104.28 L15.99 104.05 L17.53 103.83 L19.06 103.61 L20.59 103.38 L22.13 103.16 L23.66 102.93 L25.19 102.71 L26.73 102.49 L28.26 102.26 L29.79 102.03 L31.32 101.81 L32.86 101.58 L34.39 101.36 L35.92 101.13 L37.46 100.90 L38.99 100.68 L40.52 100.45 L42.05 100.22 L43.59 99.99 L45.12 99.76 L46.65 99.54 L48.18 99.31 L49.71 99.08 L51.25 98.85 L52.78 98.62 L54.31 98.39 L55.84 98.16 L57.38 97.93 L58.91 97.70 L60.44 97.47 L61.97 97.24 L63.50 97.01 L65.04 96.77 L66.57 96.54 L68.10 96.31 L69.63 96.08 L71.16 95.85 L72.70 95.61 L74.23 95.38 L75.76 95.15 L77.29 94.91 L78.82 94.68 L78.10 93.58 L78.41 93.94 L78.71 94.30 L79.00 94.67 L79.28 95.04 L79.55 95.41 L79.82 95.80 L80.07 96.18 L80.32 96.57 L80.56 96.97 L80.79 97.37 L81.01 97.77 L81.23 98.18 L81.43 98.59 L81.62 99.00 L81.81 99.42 L81.98 99.84 L82.15 100.27 L82.30 100.70 L82.45 101.13 L82.58 101.57 L82.71 102.01 L82.82 102.45 L82.93 102.90 L83.02 103.35 L83.11 103.80 L83.18 104.25 L83.24 104.71 L83.29 105.17 L83.33 105.64 L83.36 106.10 L83.38 106.57 L83.38 107.04 L83.38 107.52 L83.36 107.99 L83.33 108.47 L83.29 108.95 L83.23 109.44 L83.16 109.92 L83.08 110.41 L82.99 110.90 L82.88 111.39 L82.76 111.88 L82.62 112.37 L82.48 112.87 L82.31 113.37 L82.20 113.92 L82.26 114.48 L82.50 114.99 L82.88 115.41 L83.37 115.69 L83.92 115.80 L84.48 115.74 L84.99 115.50 L85.41 115.12 L85.69 114.63 L85.91 114.06 L86.12 113.49 L86.31 112.92 L86.49 112.35 L86.65 111.78 L86.80 111.20 L86.93 110.63 L87.04 110.05 L87.15 109.48 L87.23 108.91 L87.31 108.33 L87.37 107.76 L87.41 107.19 L87.44 106.62 L87.45 106.04 L87.45 105.48 L87.44 104.91 L87.41 104.34 L87.37 103.78 L87.32 103.22 L87.25 102.66 L87.17 102.10 L87.07 101.55 L86.96 101.00 L86.84 100.45 L86.71 99.91 L86.56 99.37 L86.40 98.83 L86.23 98.29 L86.04 97.76 L85.85 97.24 L85.64 96.72 L85.42 96.20 L85.19 95.69 L84.94 95.18 L84.69 94.68 L84.42 94.19 L84.14 93.69 L83.85 93.21 L83.55 92.73 L83.24 92.25 L82.92 91.79 L82.59 91.32 L82.25 90.87 L81.90 90.42 L78.11 89.76 L76.58 89.98 L75.04 90.19 L73.51 90.40 L71.97 90.61 L70.44 90.82 L68.90 91.03 L67.37 91.25 L65.83 91.46 L64.30 91.67 L62.76 91.88 L61.23 92.10 L59.69 92.31 L58.16 92.52 L56.62 92.74 L55.09 92.95 L53.55 93.17 L52.02 93.38 L50.49 93.60 L48.95 93.81 L47.42 94.03 L45.88 94.24 L44.35 94.46 L42.81 94.67 L41.28 94.89 L39.75 95.11 L38.21 95.32 L36.68 95.54 L35.14 95.76 L33.61 95.98 L32.08 96.20 L30.54 96.41 L29.01 96.63 L27.47 96.85 L25.94 97.07 L24.41 97.29 L22.87 97.51 L21.34 97.73 L19.81 97.95 L18.27 98.17 L16.74 98.39 L15.21 98.61 L13.67 98.83 L12.14 99.06 L10.61 99.28 L9.78 99.53 L9.08 100.03 L8.57 100.72 L8.29 101.53 L8.28 102.39 L8.53 103.22 L9.03 103.92 L9.72 104.43 L10.53 104.71 Z"/>
</svg>
